<?xml version="1.0" encoding="UTF-8" standalone="no"?>
<!DOCTYPE svg PUBLIC "-//W3C//DTD SVG 1.1//EN" "http://www.w3.org/Graphics/SVG/1.1/DTD/svg11.dtd">
<svg version="1.1" xmlns="http://www.w3.org/2000/svg" xmlns:xlink="http://www.w3.org/1999/xlink" preserveAspectRatio="xMidYMid meet" viewBox="57.819492135275674 111.31199720078249 206.63953270697553 113.65757838315085" width="202.64" height="109.66"><defs><path d="M217.02 145.66C217.02 145.66 231.76 125.54 236.67 123.08C241.59 120.63 260.76 120.63 261.41 123.08C262.07 125.54 255.51 125.03 255.51 125.03C254.41 129.38 245.56 164.19 244.45 168.54C244.45 168.54 215.4 147.82 217.02 145.66" id="b3iekYFeun"></path><path d="M242.83 162.6C241.56 164.78 242.69 166.37 244.72 167.52C245.79 163.27 254.43 129.28 255.51 125.03C255.51 125.03 252.65 125.33 248.96 126.56C248.96 126.56 246.54 156.26 242.83 162.6" id="b1lrt2Xtnf"></path><path d="M150.31 177.8C152.37 183.08 103.11 190.96 60.31 169.76C57.92 168.58 58.54 164.99 61.19 164.68C75.27 163 98.76 162.95 105.72 163.97C114.23 165.21 147.08 169.55 150.31 177.8" id="eC0GZcVgN"></path><path d="M60.53 169.87C59.63 169.42 60.15 168.06 61.12 168.33C111.92 182.4 144.21 172.8 144.21 172.8C147.34 174.28 149.58 175.94 150.31 177.8C152.36 183.07 103.28 190.93 60.53 169.87" id="a3bhnon27b"></path><path d="M82.48 216.46C179.64 238.27 249.16 189.22 248.96 175.4C248.38 135.74 90.87 88.88 83.5 168.13C83.5 168.13 81.52 173.57 74.9 182.26C69.38 189.52 73.67 209.91 82.48 216.46" id="bdxA26BTm"></path><path d="M104.59 162.6C104.59 171.96 100.01 179.55 94.35 179.55C88.7 179.55 84.12 171.96 84.12 162.6C84.12 153.24 88.7 145.66 94.35 145.66C100.01 145.66 104.59 153.24 104.59 162.6" id="b10MSsN8BM"></path><path d="M99.65 162.6C99.65 166.96 97.52 170.49 94.88 170.49C92.25 170.49 90.12 166.96 90.12 162.6C90.12 158.25 92.25 154.71 94.88 154.71C97.52 154.71 99.65 158.25 99.65 162.6" id="aTiLsc9BK"></path><path d="M136.74 162.6C136.74 173.46 131.43 182.26 124.87 182.26C118.31 182.26 112.99 173.46 112.99 162.6C112.99 151.75 118.31 142.95 124.87 142.95C131.43 142.95 136.74 151.75 136.74 162.6" id="b35TKDspjQ"></path><path d="M131.01 162.6C131.01 167.66 128.53 171.76 125.48 171.76C122.43 171.76 119.95 167.66 119.95 162.6C119.95 157.55 122.43 153.45 125.48 153.45C128.53 153.45 131.01 157.55 131.01 162.6" id="ashWTnYZw"></path><path d="M125.93 156.83C125.93 158.69 124.42 160.2 122.56 160.2C120.69 160.2 119.18 158.69 119.18 156.83C119.18 154.96 120.69 153.45 122.56 153.45C124.42 153.45 125.93 154.96 125.93 156.83" id="c276rE6kiR"></path><path d="M95.67 156.83C95.67 158.69 94.16 160.2 92.3 160.2C90.44 160.2 88.93 158.69 88.93 156.83C88.93 154.96 90.44 153.45 92.3 153.45C94.16 153.45 95.67 154.96 95.67 156.83" id="b12SYu93mK"></path><path d="M248.96 175.4C248.95 174.68 248.88 173.95 248.77 173.23C163.64 218.92 95.67 198.85 95.67 198.85C95.67 198.85 82.5 193 75.01 205.36C76.76 210.01 79.33 214.12 82.48 216.46C179.64 238.27 249.16 189.22 248.96 175.4" id="a5DMzuATDl"></path><path d="M229.39 182.67C215.48 188.77 202.17 193.18 189.71 196.31C199.91 198.1 212.35 199.09 225.62 198.15C233.07 193.76 238.87 189.32 242.83 185.37C238.48 184.44 233.83 183.5 229.39 182.67" id="b1pwoTPgws"></path><path d="M112.73 189.69C112.73 189.69 126.99 189.7 132.38 185.4C132.38 185.4 133.18 216.31 112.73 189.69" id="dd34ym1HU"></path><path d="M179.54 165.87C179.54 169.93 177.11 173.23 174.11 173.23C171.12 173.23 168.69 169.93 168.69 165.87C168.69 161.8 171.12 158.51 174.11 158.51C177.11 158.51 179.54 161.8 179.54 165.87" id="e7dNrlq8Wk"></path><path d="M172.22 166.61C172.22 163.72 173.95 161.37 176.08 161.37C176.21 161.37 176.34 161.38 176.47 161.4C175.89 160.92 175.21 160.64 174.48 160.64C172.34 160.64 170.61 162.99 170.61 165.88C170.61 168.6 172.14 170.83 174.09 171.1C172.97 170.18 172.22 168.52 172.22 166.61" id="b28rZ1v9x"></path><path d="M196.95 164.4C196.95 168.46 194.52 171.76 191.52 171.76C188.52 171.76 186.09 168.46 186.09 164.4C186.09 160.33 188.52 157.04 191.52 157.04C194.52 157.04 196.95 160.33 196.95 164.4" id="b1dvql8zk"></path><path d="M189.62 165.14C189.62 162.24 191.35 159.9 193.49 159.9C193.62 159.9 193.75 159.91 193.88 159.92C193.29 159.45 192.61 159.17 191.88 159.17C189.75 159.17 188.02 161.52 188.02 164.41C188.02 167.13 189.54 169.36 191.5 169.62C190.38 168.71 189.62 167.04 189.62 165.14" id="b6J8aPN5y"></path><path d="M214.35 162.92C214.35 166.99 211.92 170.28 208.93 170.28C205.93 170.28 203.5 166.99 203.5 162.92C203.5 158.86 205.93 155.57 208.93 155.57C211.92 155.57 214.35 158.86 214.35 162.92" id="d6euyyKdVi"></path><path d="M207.03 163.67C207.03 160.77 208.76 158.43 210.89 158.43C211.02 158.43 211.15 158.44 211.28 158.45C210.7 157.98 210.02 157.7 209.29 157.7C207.16 157.7 205.43 160.04 205.43 162.94C205.43 165.65 206.95 167.89 208.9 168.15C207.78 167.23 207.03 165.57 207.03 163.67" id="b1CcpXlpYp"></path><path d="M99.65 199.82C99.65 199.82 99.37 214.76 88.93 217.81C88.93 217.81 85.84 217.63 82.48 216.46C85.91 213.13 96.22 203.15 99.65 199.82Z" id="bvF6RncTW"></path><path d="M99.73 196.29C99.73 207.43 92.99 216.46 84.67 216.46C76.36 216.46 65.23 207.43 65.23 196.29C65.23 185.15 76.36 176.12 84.67 176.12C92.99 176.12 99.73 185.15 99.73 196.29" id="bZ4PbxJfM"></path><path d="M78.88 191.38C76.76 195.51 73.16 197.88 70.85 196.69C68.54 195.49 68.39 191.19 70.51 187.07C72.64 182.94 76.24 180.57 78.55 181.76C80.86 182.96 81.01 187.26 78.88 191.38" id="c9BKZNECu"></path><path d="M146.06 129.56C146.06 129.56 196.32 129.05 222.54 151.14C222.54 151.14 171.99 131.73 139.21 137.75C106.44 143.76 146.06 129.56 146.06 129.56" id="c61OgJBV6H"></path><path d="M93.75 142.82C93.75 142.82 106.74 158.97 153.58 129.56C153.58 129.56 93.75 142.82 93.75 142.82Z" id="gcGw1IORz"></path><path d="M100.55 129.05C89.28 132.12 79.94 160.3 141.09 135.6C144.31 134.3 153.58 129.56 153.58 129.56C153.79 128.82 155.42 122.92 155.63 122.19C155.63 122.19 165.87 120.34 164.64 117.58C163.41 114.81 95.02 108.98 94.66 114.81C94.3 120.65 101.06 120.24 101.06 120.24C101.06 120.24 103.21 124.03 100.55 129.05" id="a1aedJm8aj"></path><path d="M101.82 125.03C101.82 125.03 131.18 131.81 154.52 126.19C154.42 126.53 153.68 129.22 153.58 129.56C153.58 129.56 124.91 135.06 100.55 129.05C100.55 129.05 100.58 125.96 101.82 125.03" id="cqd36xVhC"></path><path d="M97.84 116.12C97.84 116.12 140.83 124.31 160.7 119.81C160.7 119.81 130.6 121.03 97.84 116.12" id="c5tqXuHfsQ"></path><path d="M239.02 194.11C240.78 199.71 217.91 212.11 205.73 215.96C203.63 212.64 203.63 212.64 201.86 207.04C200.09 201.44 200.22 198.51 202.74 194.91C214.93 191.06 237.25 188.51 239.02 194.11" id="b39fOLxFF"></path><path d="M212.16 204.94C212.97 210.83 209.75 215.88 204.96 216.22C200.18 216.56 195.65 212.07 194.84 206.18C194.03 200.3 197.25 195.25 202.04 194.91C206.82 194.56 211.35 199.06 212.16 204.94" id="b6KH6uM3ha"></path><path d="M210.93 205.03C211.62 210.08 208.86 214.41 204.76 214.71C200.65 215 196.76 211.14 196.07 206.09C195.37 201.04 198.14 196.71 202.24 196.42C206.35 196.12 210.24 199.98 210.93 205.03" id="ahHZRRKJo"></path><path d="M206.31 205.36C206.57 207.27 205.53 208.91 203.97 209.02C202.42 209.13 200.95 207.67 200.69 205.76C200.43 203.85 201.47 202.22 203.02 202.11C204.58 201.99 206.05 203.45 206.31 205.36" id="cbHJQY0mn"></path><path d="M202.74 194.91C202.74 194.91 222.36 201.99 239.02 194.11C239.02 194.11 237.9 191.89 234.01 191.27C230.12 190.66 202.74 194.91 202.74 194.91" id="fzsuguzsf"></path><path d="M163.77 182.26C160.86 187.12 208.08 203.17 253.84 189.47C256.39 188.7 256.39 185.06 253.83 184.3C240.23 180.28 217.08 176.29 210.05 176.12C201.45 175.91 168.34 174.67 163.77 182.26" id="c4YiT4Q2mU"></path><path d="M253.61 189.53C254.57 189.25 254.28 187.82 253.28 187.92C200.84 193.24 170.62 178.36 170.62 178.36C167.29 179.29 164.8 180.55 163.77 182.26C160.86 187.11 207.93 203.11 253.61 189.53" id="caTVvZUPp3"></path><path d="M219.89 185.4C224.92 183.09 227.72 181.8 228.28 181.55C228.28 181.55 210.01 177.93 206.88 178.33C204.37 178.65 198.43 180.2 195.96 180.42C199.15 181.08 207.13 182.74 219.89 185.4Z" id="b7xFXjURmf"></path><path d="M195.96 180.42L196.09 181.85L219.88 186.62L228.28 182.67L228.28 181.55L195.96 180.42Z" id="b19M1nTWQM"></path><path d="M213.18 178.74L214.14 178.89L215.14 179.05L216.17 179.22L214.53 179.87L212.79 180.58L211 181.32L209.21 182.08L207.47 182.81L203.3 181.95L204.71 181.34L206.27 180.67L207.94 179.96L209.66 179.24L211.41 178.51L212.26 178.62L213.18 178.74Z" id="cn9vXjSPu"></path></defs><g><g><use xlink:href="#b3iekYFeun" opacity="1" fill="#4283cd" fill-opacity="1"></use><g><use xlink:href="#b3iekYFeun" opacity="1" fill-opacity="0" stroke="#000000" stroke-width="1" stroke-opacity="0"></use></g></g><g><use xlink:href="#b1lrt2Xtnf" opacity="1" fill="#346ca3" fill-opacity="1"></use><g><use xlink:href="#b1lrt2Xtnf" opacity="1" fill-opacity="0" stroke="#000000" stroke-width="1" stroke-opacity="0"></use></g></g><g><use xlink:href="#eC0GZcVgN" opacity="1" fill="#4283cd" fill-opacity="1"></use><g><use xlink:href="#eC0GZcVgN" opacity="1" fill-opacity="0" stroke="#000000" stroke-width="1" stroke-opacity="0"></use></g></g><g><use xlink:href="#a3bhnon27b" opacity="1" fill="#60a1e2" fill-opacity="1"></use><g><use xlink:href="#a3bhnon27b" opacity="1" fill-opacity="0" stroke="#000000" stroke-width="1" stroke-opacity="0"></use></g></g><g><use xlink:href="#bdxA26BTm" opacity="1" fill="#dfe0e4" fill-opacity="1"></use><g><use xlink:href="#bdxA26BTm" opacity="1" fill-opacity="0" stroke="#000000" stroke-width="1" stroke-opacity="0"></use></g></g><g><use xlink:href="#b10MSsN8BM" opacity="1" fill="#fafafa" fill-opacity="1"></use><g><use xlink:href="#b10MSsN8BM" opacity="1" fill-opacity="0" stroke="#000000" stroke-width="1" stroke-opacity="0"></use></g></g><g><use xlink:href="#aTiLsc9BK" opacity="1" fill="#000000" fill-opacity="1"></use><g><use xlink:href="#aTiLsc9BK" opacity="1" fill-opacity="0" stroke="#000000" stroke-width="1" stroke-opacity="0"></use></g></g><g><use xlink:href="#b35TKDspjQ" opacity="1" fill="#fafafa" fill-opacity="1"></use><g><use xlink:href="#b35TKDspjQ" opacity="1" fill-opacity="0" stroke="#000000" stroke-width="1" stroke-opacity="0"></use></g></g><g><use xlink:href="#ashWTnYZw" opacity="1" fill="#000000" fill-opacity="1"></use><g><use xlink:href="#ashWTnYZw" opacity="1" fill-opacity="0" stroke="#000000" stroke-width="1" stroke-opacity="0"></use></g></g><g><use xlink:href="#c276rE6kiR" opacity="1" fill="#fafafa" fill-opacity="1"></use><g><use xlink:href="#c276rE6kiR" opacity="1" fill-opacity="0" stroke="#000000" stroke-width="1" stroke-opacity="0"></use></g></g><g><use xlink:href="#b12SYu93mK" opacity="1" fill="#fafafa" fill-opacity="1"></use><g><use xlink:href="#b12SYu93mK" opacity="1" fill-opacity="0" stroke="#000000" stroke-width="1" stroke-opacity="0"></use></g></g><g><use xlink:href="#a5DMzuATDl" opacity="1" fill="#4283cd" fill-opacity="1"></use><g><use xlink:href="#a5DMzuATDl" opacity="1" fill-opacity="0" stroke="#000000" stroke-width="1" stroke-opacity="0"></use></g></g><g><use xlink:href="#b1pwoTPgws" opacity="1" fill="#346ca3" fill-opacity="1"></use><g><use xlink:href="#b1pwoTPgws" opacity="1" fill-opacity="0" stroke="#000000" stroke-width="1" stroke-opacity="0"></use></g></g><g><use xlink:href="#dd34ym1HU" opacity="1" fill="#c7535e" fill-opacity="1"></use><g><use xlink:href="#dd34ym1HU" opacity="1" fill-opacity="0" stroke="#000000" stroke-width="1" stroke-opacity="0"></use></g></g><g><use xlink:href="#e7dNrlq8Wk" opacity="1" fill="#60a1e2" fill-opacity="1"></use><g><use xlink:href="#e7dNrlq8Wk" opacity="1" fill-opacity="0" stroke="#000000" stroke-width="1" stroke-opacity="0"></use></g></g><g><use xlink:href="#b28rZ1v9x" opacity="1" fill="#fafafa" fill-opacity="1"></use><g><use xlink:href="#b28rZ1v9x" opacity="1" fill-opacity="0" stroke="#000000" stroke-width="1" stroke-opacity="0"></use></g></g><g><use xlink:href="#b1dvql8zk" opacity="1" fill="#60a1e2" fill-opacity="1"></use><g><use xlink:href="#b1dvql8zk" opacity="1" fill-opacity="0" stroke="#000000" stroke-width="1" stroke-opacity="0"></use></g></g><g><use xlink:href="#b6J8aPN5y" opacity="1" fill="#fafafa" fill-opacity="1"></use><g><use xlink:href="#b6J8aPN5y" opacity="1" fill-opacity="0" stroke="#000000" stroke-width="1" stroke-opacity="0"></use></g></g><g><use xlink:href="#d6euyyKdVi" opacity="1" fill="#60a1e2" fill-opacity="1"></use><g><use xlink:href="#d6euyyKdVi" opacity="1" fill-opacity="0" stroke="#000000" stroke-width="1" stroke-opacity="0"></use></g></g><g><use xlink:href="#b1CcpXlpYp" opacity="1" fill="#fafafa" fill-opacity="1"></use><g><use xlink:href="#b1CcpXlpYp" opacity="1" fill-opacity="0" stroke="#000000" stroke-width="1" stroke-opacity="0"></use></g></g><g><use xlink:href="#bvF6RncTW" opacity="1" fill="#346ca3" fill-opacity="1"></use><g><use xlink:href="#bvF6RncTW" opacity="1" fill-opacity="0" stroke="#000000" stroke-width="1" stroke-opacity="0"></use></g></g><g><use xlink:href="#bZ4PbxJfM" opacity="1" fill="#003b7c" fill-opacity="1"></use><g><use xlink:href="#bZ4PbxJfM" opacity="1" fill-opacity="0" stroke="#000000" stroke-width="1" stroke-opacity="0"></use></g></g><g><use xlink:href="#c9BKZNECu" opacity="1" fill="#fafafa" fill-opacity="1"></use><g><use xlink:href="#c9BKZNECu" opacity="1" fill-opacity="0" stroke="#000000" stroke-width="1" stroke-opacity="0"></use></g></g><g><use xlink:href="#c61OgJBV6H" opacity="1" fill="#ffffff" fill-opacity="1"></use><g><use xlink:href="#c61OgJBV6H" opacity="1" fill-opacity="0" stroke="#000000" stroke-width="1" stroke-opacity="0"></use></g></g><g><use xlink:href="#gcGw1IORz" opacity="1" fill="#b7b7b7" fill-opacity="1"></use><g><use xlink:href="#gcGw1IORz" opacity="1" fill-opacity="0" stroke="#000000" stroke-width="1" stroke-opacity="0"></use></g></g><g><use xlink:href="#a1aedJm8aj" opacity="1" fill="#252726" fill-opacity="1"></use><g><use xlink:href="#a1aedJm8aj" opacity="1" fill-opacity="0" stroke="#000000" stroke-width="1" stroke-opacity="0"></use></g></g><g><use xlink:href="#cqd36xVhC" opacity="1" fill="#dea54a" fill-opacity="1"></use><g><use xlink:href="#cqd36xVhC" opacity="1" fill-opacity="0" stroke="#000000" stroke-width="1" stroke-opacity="0"></use></g></g><g><use xlink:href="#c5tqXuHfsQ" opacity="1" fill="#ffffff" fill-opacity="1"></use><g><use xlink:href="#c5tqXuHfsQ" opacity="1" fill-opacity="0" stroke="#000000" stroke-width="1" stroke-opacity="0"></use></g></g><g><use xlink:href="#b39fOLxFF" opacity="1" fill="#4283cd" fill-opacity="1"></use><g><use xlink:href="#b39fOLxFF" opacity="1" fill-opacity="0" stroke="#000000" stroke-width="1" stroke-opacity="0"></use></g></g><g><use xlink:href="#b6KH6uM3ha" opacity="1" fill="#60a1e2" fill-opacity="1"></use><g><use xlink:href="#b6KH6uM3ha" opacity="1" fill-opacity="0" stroke="#000000" stroke-width="1" stroke-opacity="0"></use></g></g><g><use xlink:href="#ahHZRRKJo" opacity="1" fill="#000000" fill-opacity="1"></use><g><use xlink:href="#ahHZRRKJo" opacity="1" fill-opacity="0" stroke="#000000" stroke-width="1" stroke-opacity="0"></use></g></g><g><use xlink:href="#cbHJQY0mn" opacity="1" fill="#ffffff" fill-opacity="1"></use><g><use xlink:href="#cbHJQY0mn" opacity="1" fill-opacity="0" stroke="#000000" stroke-width="1" stroke-opacity="0"></use></g></g><g><use xlink:href="#fzsuguzsf" opacity="1" fill="#346ca3" fill-opacity="1"></use><g><use xlink:href="#fzsuguzsf" opacity="1" fill-opacity="0" stroke="#000000" stroke-width="1" stroke-opacity="0"></use></g></g><g><use xlink:href="#c4YiT4Q2mU" opacity="1" fill="#4283cd" fill-opacity="1"></use><g><use xlink:href="#c4YiT4Q2mU" opacity="1" fill-opacity="0" stroke="#000000" stroke-width="1" stroke-opacity="0"></use></g></g><g><use xlink:href="#caTVvZUPp3" opacity="1" fill="#60a1e2" fill-opacity="1"></use><g><use xlink:href="#caTVvZUPp3" opacity="1" fill-opacity="0" stroke="#000000" stroke-width="1" stroke-opacity="0"></use></g></g><g><use xlink:href="#b7xFXjURmf" opacity="1" fill="#252726" fill-opacity="1"></use><g><use xlink:href="#b7xFXjURmf" opacity="1" fill-opacity="0" stroke="#000000" stroke-width="1" stroke-opacity="0"></use></g></g><g><use xlink:href="#b19M1nTWQM" opacity="1" fill="#252726" fill-opacity="1"></use><g><use xlink:href="#b19M1nTWQM" opacity="1" fill-opacity="0" stroke="#000000" stroke-width="1" stroke-opacity="0"></use></g></g><g><use xlink:href="#cn9vXjSPu" opacity="1" fill="#dea54a" fill-opacity="1"></use><g><use xlink:href="#cn9vXjSPu" opacity="1" fill-opacity="0" stroke="#000000" stroke-width="1" stroke-opacity="0"></use></g></g></g></svg>