<?xml version="1.0" encoding="UTF-8" standalone="no"?>
<!DOCTYPE svg PUBLIC "-//W3C//DTD SVG 1.1//EN" "http://www.w3.org/Graphics/SVG/1.1/DTD/svg11.dtd">
<svg version="1.1" xmlns="http://www.w3.org/2000/svg" xmlns:xlink="http://www.w3.org/1999/xlink" preserveAspectRatio="xMidYMid meet" viewBox="372.7679908482496 102.23578675797647 227.28338367171534 131.8099006999737" width="223.28" height="127.81"><defs><path d="M407.97 205.7C406.81 214.43 410.71 222.15 416.68 222.94C422.66 223.73 428.44 217.3 429.6 208.57C430.75 199.84 426.85 192.12 420.88 191.33C414.91 190.54 409.13 196.97 407.97 205.7" id="axJ7Se1NG"></path><path d="M412.53 206.3C413.53 198.72 418.03 192.87 423.11 191.99C422.41 191.66 421.66 191.43 420.88 191.33C414.91 190.54 409.13 196.97 407.97 205.7C406.81 214.43 410.71 222.15 416.68 222.94C417.47 223.04 418.24 223.02 419.01 222.89C414.33 220.71 411.52 213.89 412.53 206.3" id="eLcQJWseo"></path><path d="M465.69 217.5C465.36 217.5 465.01 217.43 464.69 217.28C464.22 217.06 461.91 215.99 457.74 214.06C451.79 196.01 448.48 185.97 447.82 183.97C447.41 182.71 448.09 181.35 449.35 180.94C450.61 180.52 451.96 181.2 452.38 182.46C453 184.34 456.09 193.71 461.65 210.59C464.68 211.99 466.37 212.77 466.7 212.93C467.91 213.48 468.43 214.91 467.87 216.11C467.47 216.99 466.6 217.5 465.69 217.5" id="i2sejek8vm"></path><path d="M483.93 215.1C483.93 223.91 479.05 231.05 473.03 231.05C467 231.05 462.12 223.91 462.12 215.1C462.12 206.3 467 199.16 473.03 199.16C479.05 199.16 483.93 206.3 483.93 215.1" id="c1nn1B59sF"></path><path d="M466.97 215.1C466.97 207.52 470.59 201.18 475.45 199.57C474.67 199.31 473.86 199.16 473.03 199.16C467 199.16 462.12 206.3 462.12 215.1C462.12 223.91 467 231.05 473.03 231.05C473.86 231.05 474.67 230.9 475.45 230.64C470.59 229.02 466.97 222.69 466.97 215.1" id="bzeTcWxYa"></path><path d="M480.3 214.22C480.3 218.13 478.13 221.3 475.45 221.3C472.77 221.3 470.6 218.13 470.6 214.22C470.6 210.3 472.77 207.13 475.45 207.13C478.13 207.13 480.3 210.3 480.3 214.22" id="b46RleUjz4"></path><path d="M421.12 209.53C420.21 209.53 419.35 209.02 418.94 208.14C418.38 206.94 418.91 205.51 420.11 204.96C420.45 204.8 422.13 204.02 425.16 202.62C430.73 185.74 433.82 176.37 434.43 174.5C434.85 173.24 436.2 172.55 437.46 172.97C438.72 173.38 439.41 174.74 438.99 176C438.33 178.01 435.02 188.04 429.07 206.1C424.9 208.03 422.59 209.1 422.13 209.31C421.8 209.46 421.46 209.53 421.12 209.53" id="b3Fg2blJX"></path><path d="M557.69 159.15C551.88 156.82 550.97 145.5 555.64 133.87C560.32 122.24 571.39 115.8 577.2 118.14C578.14 118.52 580.59 132.6 576.68 142.33C572 153.96 563.5 161.49 557.69 159.15" id="a1Yp4Mx13p"></path><path d="M560.25 160.25C554.44 157.91 553.53 146.59 558.21 134.96C562.89 123.34 571.39 115.8 577.2 118.14C583 120.48 583.92 131.8 579.24 143.43C574.56 155.05 566.06 162.59 560.25 160.25" id="a2Uf0TYWos"></path><path d="M596.86 158.14C595.65 164.28 577.8 168.29 557.64 164.3C537.48 160.31 522.12 152.09 523.34 145.95C524.55 139.81 541.88 138.07 562.04 142.06C582.2 146.05 598.08 151.99 596.86 158.14" id="btDUfXf4"></path><path d="M596.98 157.69C595.77 163.83 578.44 165.58 558.28 161.58C538.12 157.59 522.76 149.38 523.98 143.24C525.19 137.1 542.52 135.35 562.68 139.34C582.84 143.34 598.2 151.55 596.98 157.69" id="a5paVJ7fl"></path><path d="M508.03 199.04C435.34 194.84 394.95 192.5 386.88 192.04C374.97 191.35 378 187.9 393.62 184.36C393.62 184.36 393.62 184.36 393.62 184.36C409.24 180.83 431.75 178.5 443.66 179.19C455.78 179.89 552.7 185.5 564.81 186.2C576.72 186.89 573.68 190.34 558.07 193.87C558.07 193.87 558.07 193.87 558.07 193.87C542.45 197.4 519.93 199.73 508.03 199.04" id="dE23yHIUZ"></path><path d="M379.6 190.09L379.62 186.51L392.23 185.78L386.88 192.04L379.6 190.09Z" id="h13j4MWBJV"></path><path d="M572.08 188.02L572.08 184.83L561.68 185.78L565.38 191.19L572.08 188.02Z" id="b11YiGTU7J"></path><path d="M508.03 195.7C435.34 191.5 394.95 189.17 386.88 188.7C374.97 188.01 378 184.56 393.62 181.03C393.62 181.03 393.62 181.03 393.62 181.03C409.24 177.49 431.75 175.17 443.66 175.86C455.78 176.56 552.7 182.16 564.81 182.86C576.72 183.55 573.68 187 558.07 190.53C558.07 190.53 558.07 190.53 558.07 190.53C542.45 194.07 519.93 196.39 508.03 195.7" id="d8JqvIAai"></path><path d="M524.3 180.53C528.89 180.79 531.44 180.94 531.95 180.97C531.95 180.97 498.52 191.83 467.33 193.36C463.74 193.16 445.77 192.16 413.43 190.36L524.3 180.53Z" id="a7Mb6qOHh"></path><path d="M410.35 190.27C534.98 193.99 574.24 159.19 574.24 149.45C574.24 131.69 467.41 134.06 404.48 132.64C396.83 132.46 401.13 190 410.35 190.27" id="a18uCLHRjH"></path><path d="M421.21 161.78C420.76 177.77 414.48 190.56 407.2 190.35C399.91 190.15 394.37 177.02 394.82 161.03C395.28 145.04 401.55 132.25 408.84 132.46C416.13 132.66 421.67 145.79 421.21 161.78" id="b4KFIArQN8"></path><path d="M453.48 151.2C453.48 158.17 450.07 163.82 445.86 163.82C441.65 163.82 438.23 158.17 438.23 151.2C438.23 144.23 441.65 138.58 445.86 138.58C450.07 138.58 453.48 144.23 453.48 151.2" id="bPZ6K2ngu"></path><path d="M449.8 153.36C449.8 156.61 448.21 159.24 446.25 159.24C444.29 159.24 442.7 156.61 442.7 153.36C442.7 150.12 444.29 147.49 446.25 147.49C448.21 147.49 449.8 150.12 449.8 153.36" id="e9MxZCDzn"></path><path d="M446.54 149.65C446.54 150.85 445.57 151.82 444.37 151.82C443.18 151.82 442.21 150.85 442.21 149.65C442.21 148.46 443.18 147.49 444.37 147.49C445.57 147.49 446.54 148.46 446.54 149.65" id="c52HMc8Q2W"></path><path d="M440.22 138.35C440.22 138.35 442.98 127.85 451.5 136.05C451.5 136.05 442.52 124.15 440.22 138.35" id="cqDJyouxh"></path><path d="M457.28 135.46C457.28 143.75 463.5 150.46 471.18 150.46C478.86 150.46 485.09 143.75 485.09 135.46C485.09 134.93 485.06 134.4 485.01 133.88C475.9 133.64 466.61 133.49 457.42 133.36C457.33 134.05 457.28 134.75 457.28 135.46" id="irMOxwS5B"></path><path d="M495.57 134.18C496.29 141.74 502.21 147.64 509.41 147.64C516.17 147.64 521.81 142.42 523.05 135.52C514.45 134.93 505.18 134.51 495.57 134.18" id="e4AaS2Ohr"></path><path d="M504.67 126.54C431.98 122.34 391.59 120 383.52 119.54C371.61 118.85 374.64 115.4 390.26 111.86C390.26 111.86 390.26 111.86 390.26 111.86C405.88 108.33 428.39 106.01 440.3 106.69C452.42 107.4 549.34 113 561.45 113.7C573.36 114.39 570.32 117.84 554.71 121.37C554.71 121.37 554.71 121.37 554.71 121.37C539.09 124.91 516.57 127.23 504.67 126.54" id="a13aQNcVm"></path><path d="M376.24 117.59L376.26 114.01L388.87 113.28L383.51 119.54L376.24 117.59Z" id="cjNltSi5o"></path><path d="M568.72 115.52L568.72 112.33L558.32 113.28L562.02 118.69L568.72 115.52Z" id="f2UngBYZBt"></path><path d="M504.67 123.21C431.98 119 391.59 116.67 383.52 116.2C371.61 115.51 374.64 112.06 390.26 108.53C390.26 108.53 390.26 108.53 390.26 108.53C405.88 104.99 428.39 102.67 440.3 103.36C452.42 104.06 549.34 109.66 561.45 110.36C573.36 111.05 570.32 114.5 554.71 118.04C554.71 118.04 554.71 118.04 554.71 118.04C539.09 121.57 516.57 123.89 504.67 123.21" id="ld44DpRpX"></path><path d="M457.28 207.39C457.12 207.39 456.96 207.37 456.79 207.34C453.96 206.75 431.27 202.1 428.43 201.51C427.13 201.25 426.3 199.98 426.57 198.68C426.83 197.38 428.1 196.55 429.4 196.81C432.23 197.39 454.92 202.05 457.76 202.64C459.06 202.9 459.89 204.17 459.63 205.47C459.39 206.6 458.4 207.39 457.28 207.39" id="b2IRPbJSd3"></path><path d="M396.51 141.36C396.51 147.8 398.37 153.79 401.59 158.88C402.8 160.77 405.52 160.85 406.75 158.98C410.14 153.86 412.14 147.63 412.14 140.91C412.14 134.19 410.14 128.07 406.75 123.15C405.52 121.36 402.8 121.59 401.59 123.55C398.37 128.83 396.51 134.93 396.51 141.36" id="bW3G4zNgr"></path><path d="M392.03 175.89C397.33 173.04 401.46 168.58 404.13 163.24C405.13 161.26 403.77 158.82 401.58 158.65C395.76 158.18 389.98 159.38 384.9 162.37C379.96 165.28 376.32 169.51 374.04 174.39C373.21 176.17 374.35 178.46 376.22 178.73C381.4 179.49 386.89 178.66 392.03 175.89" id="f1VGnS4vAj"></path><path d="M425.49 163.81C419.31 160.18 412.73 158.64 406.54 158.88C404.32 158.97 402.96 161.33 403.95 163.37C406.66 168.96 411.01 174.02 416.92 177.78C423.01 181.67 429.97 183.69 437 183.88C439.65 183.96 441.3 181.44 440.09 179.14C436.86 172.95 431.87 167.55 425.49 163.81" id="ge4Vcabq4"></path><path d="M409.39 160.33C409.39 164.43 407.5 167.75 402.33 167.75C397.16 167.75 390.67 164.43 390.67 160.33C390.67 156.23 397.16 152.91 402.33 152.91C407.5 152.91 409.39 156.23 409.39 160.33" id="aaC04ZSZ9"></path><path d="M401.11 155.38C401.33 156.19 399.69 157.33 397.46 157.94C395.22 158.56 393.23 158.4 393.01 157.6C392.79 156.8 394.43 155.65 396.66 155.04C398.9 154.43 400.89 154.58 401.11 155.38" id="a4Mxy7C2"></path><path d="M399.09 180.96C399.09 180.96 405.54 182.81 411.53 180.96C411.53 180.96 404.93 191.09 399.09 180.96" id="j2MAnDwzF4"></path><path d="M438.59 161.41C438.59 161.41 445.74 172.12 453.27 161.41C453.27 161.41 446.54 176.72 438.59 161.41" id="eAaz8JMFE"></path><path d="M475.84 175.6L482.79 180.61L480.17 172.46L487.08 167.4L478.51 167.38L475.84 159.24L473.17 167.38L464.61 167.4L471.52 172.46L468.9 180.61L475.84 175.6Z" id="b1m1gmPJ6R"></path></defs><g><g><use xlink:href="#axJ7Se1NG" opacity="1" fill="#414042" fill-opacity="1"></use><g><use xlink:href="#axJ7Se1NG" opacity="1" fill-opacity="0" stroke="#000000" stroke-width="1" stroke-opacity="0"></use></g></g><g><use xlink:href="#eLcQJWseo" opacity="1" fill="#000000" fill-opacity="1"></use><g><use xlink:href="#eLcQJWseo" opacity="1" fill-opacity="0" stroke="#000000" stroke-width="1" stroke-opacity="0"></use></g></g><g><use xlink:href="#i2sejek8vm" opacity="1" fill="#000000" fill-opacity="1"></use><g><use xlink:href="#i2sejek8vm" opacity="1" fill-opacity="0" stroke="#000000" stroke-width="1" stroke-opacity="0"></use></g></g><g><use xlink:href="#c1nn1B59sF" opacity="1" fill="#414042" fill-opacity="1"></use><g><use xlink:href="#c1nn1B59sF" opacity="1" fill-opacity="0" stroke="#000000" stroke-width="1" stroke-opacity="0"></use></g></g><g><use xlink:href="#bzeTcWxYa" opacity="1" fill="#000000" fill-opacity="1"></use><g><use xlink:href="#bzeTcWxYa" opacity="1" fill-opacity="0" stroke="#000000" stroke-width="1" stroke-opacity="0"></use></g></g><g><use xlink:href="#b46RleUjz4" opacity="1" fill="#ffffff" fill-opacity="1"></use><g><use xlink:href="#b46RleUjz4" opacity="1" fill-opacity="0" stroke="#000000" stroke-width="1" stroke-opacity="0"></use></g></g><g><use xlink:href="#b3Fg2blJX" opacity="1" fill="#000000" fill-opacity="1"></use><g><use xlink:href="#b3Fg2blJX" opacity="1" fill-opacity="0" stroke="#000000" stroke-width="1" stroke-opacity="0"></use></g></g><g><use xlink:href="#a1Yp4Mx13p" opacity="1" fill="#56892f" fill-opacity="1"></use><g><use xlink:href="#a1Yp4Mx13p" opacity="1" fill-opacity="0" stroke="#000000" stroke-width="1" stroke-opacity="0"></use></g></g><g><use xlink:href="#a2Uf0TYWos" opacity="1" fill="#75bf42" fill-opacity="1"></use><g><use xlink:href="#a2Uf0TYWos" opacity="1" fill-opacity="0" stroke="#000000" stroke-width="1" stroke-opacity="0"></use></g></g><g><use xlink:href="#btDUfXf4" opacity="1" fill="#56892f" fill-opacity="1"></use><g><use xlink:href="#btDUfXf4" opacity="1" fill-opacity="0" stroke="#000000" stroke-width="1" stroke-opacity="0"></use></g></g><g><use xlink:href="#a5paVJ7fl" opacity="1" fill="#75bf42" fill-opacity="1"></use><g><use xlink:href="#a5paVJ7fl" opacity="1" fill-opacity="0" stroke="#000000" stroke-width="1" stroke-opacity="0"></use></g></g><g><use xlink:href="#dE23yHIUZ" opacity="1" fill="#56892f" fill-opacity="1"></use><g><use xlink:href="#dE23yHIUZ" opacity="1" fill-opacity="0" stroke="#000000" stroke-width="1" stroke-opacity="0"></use></g></g><g><use xlink:href="#h13j4MWBJV" opacity="1" fill="#56892f" fill-opacity="1"></use><g><use xlink:href="#h13j4MWBJV" opacity="1" fill-opacity="0" stroke="#000000" stroke-width="1" stroke-opacity="0"></use></g></g><g><use xlink:href="#b11YiGTU7J" opacity="1" fill="#56892f" fill-opacity="1"></use><g><use xlink:href="#b11YiGTU7J" opacity="1" fill-opacity="0" stroke="#000000" stroke-width="1" stroke-opacity="0"></use></g></g><g><use xlink:href="#d8JqvIAai" opacity="1" fill="#75bf42" fill-opacity="1"></use><g><use xlink:href="#d8JqvIAai" opacity="1" fill-opacity="0" stroke="#000000" stroke-width="1" stroke-opacity="0"></use></g></g><g><use xlink:href="#a7Mb6qOHh" opacity="1" fill="#56892f" fill-opacity="1"></use><g><use xlink:href="#a7Mb6qOHh" opacity="1" fill-opacity="0" stroke="#000000" stroke-width="1" stroke-opacity="0"></use></g></g><g><use xlink:href="#a18uCLHRjH" opacity="1" fill="#75bf42" fill-opacity="1"></use><g><use xlink:href="#a18uCLHRjH" opacity="1" fill-opacity="0" stroke="#000000" stroke-width="1" stroke-opacity="0"></use></g></g><g><use xlink:href="#b4KFIArQN8" opacity="1" fill="#56892f" fill-opacity="1"></use><g><use xlink:href="#b4KFIArQN8" opacity="1" fill-opacity="0" stroke="#000000" stroke-width="1" stroke-opacity="0"></use></g></g><g><use xlink:href="#bPZ6K2ngu" opacity="1" fill="#fafafa" fill-opacity="1"></use><g><use xlink:href="#bPZ6K2ngu" opacity="1" fill-opacity="0" stroke="#000000" stroke-width="1" stroke-opacity="0"></use></g></g><g><use xlink:href="#e9MxZCDzn" opacity="1" fill="#000000" fill-opacity="1"></use><g><use xlink:href="#e9MxZCDzn" opacity="1" fill-opacity="0" stroke="#000000" stroke-width="1" stroke-opacity="0"></use></g></g><g><use xlink:href="#c52HMc8Q2W" opacity="1" fill="#fafafa" fill-opacity="1"></use><g><use xlink:href="#c52HMc8Q2W" opacity="1" fill-opacity="0" stroke="#000000" stroke-width="1" stroke-opacity="0"></use></g></g><g><use xlink:href="#cqDJyouxh" opacity="1" fill="#56892f" fill-opacity="1"></use><g><use xlink:href="#cqDJyouxh" opacity="1" fill-opacity="0" stroke="#000000" stroke-width="1" stroke-opacity="0"></use></g></g><g><use xlink:href="#irMOxwS5B" opacity="1" fill="#426b22" fill-opacity="1"></use><g><use xlink:href="#irMOxwS5B" opacity="1" fill-opacity="0" stroke="#000000" stroke-width="1" stroke-opacity="0"></use></g></g><g><use xlink:href="#e4AaS2Ohr" opacity="1" fill="#426b22" fill-opacity="1"></use><g><use xlink:href="#e4AaS2Ohr" opacity="1" fill-opacity="0" stroke="#000000" stroke-width="1" stroke-opacity="0"></use></g></g><g><use xlink:href="#a13aQNcVm" opacity="1" fill="#56892f" fill-opacity="1"></use><g><use xlink:href="#a13aQNcVm" opacity="1" fill-opacity="0" stroke="#000000" stroke-width="1" stroke-opacity="0"></use></g></g><g><use xlink:href="#cjNltSi5o" opacity="1" fill="#56892f" fill-opacity="1"></use><g><use xlink:href="#cjNltSi5o" opacity="1" fill-opacity="0" stroke="#000000" stroke-width="1" stroke-opacity="0"></use></g></g><g><use xlink:href="#f2UngBYZBt" opacity="1" fill="#56892f" fill-opacity="1"></use><g><use xlink:href="#f2UngBYZBt" opacity="1" fill-opacity="0" stroke="#000000" stroke-width="1" stroke-opacity="0"></use></g></g><g><use xlink:href="#ld44DpRpX" opacity="1" fill="#75bf42" fill-opacity="1"></use><g><use xlink:href="#ld44DpRpX" opacity="1" fill-opacity="0" stroke="#000000" stroke-width="1" stroke-opacity="0"></use></g></g><g><use xlink:href="#b2IRPbJSd3" opacity="1" fill="#000000" fill-opacity="1"></use><g><use xlink:href="#b2IRPbJSd3" opacity="1" fill-opacity="0" stroke="#000000" stroke-width="1" stroke-opacity="0"></use></g></g><g><use xlink:href="#bW3G4zNgr" opacity="1" fill="#000110" fill-opacity="1"></use><g><use xlink:href="#bW3G4zNgr" opacity="1" fill-opacity="0" stroke="#000000" stroke-width="1" stroke-opacity="0"></use></g></g><g><use xlink:href="#f1VGnS4vAj" opacity="1" fill="#000110" fill-opacity="1"></use><g><use xlink:href="#f1VGnS4vAj" opacity="1" fill-opacity="0" stroke="#000000" stroke-width="1" stroke-opacity="0"></use></g></g><g><use xlink:href="#ge4Vcabq4" opacity="1" fill="#000110" fill-opacity="1"></use><g><use xlink:href="#ge4Vcabq4" opacity="1" fill-opacity="0" stroke="#000000" stroke-width="1" stroke-opacity="0"></use></g></g><g><use xlink:href="#aaC04ZSZ9" opacity="1" fill="#a3ff3e" fill-opacity="1"></use><g><use xlink:href="#aaC04ZSZ9" opacity="1" fill-opacity="0" stroke="#000000" stroke-width="1" stroke-opacity="0"></use></g></g><g><use xlink:href="#a4Mxy7C2" opacity="1" fill="#ffffff" fill-opacity="1"></use><g><use xlink:href="#a4Mxy7C2" opacity="1" fill-opacity="0" stroke="#000000" stroke-width="1" stroke-opacity="0"></use></g></g><g><use xlink:href="#j2MAnDwzF4" opacity="1" fill="#000110" fill-opacity="1"></use><g><use xlink:href="#j2MAnDwzF4" opacity="1" fill-opacity="0" stroke="#000000" stroke-width="1" stroke-opacity="0"></use></g></g><g><use xlink:href="#eAaz8JMFE" opacity="1" fill="#426b22" fill-opacity="1"></use><g><use xlink:href="#eAaz8JMFE" opacity="1" fill-opacity="0" stroke="#000000" stroke-width="1" stroke-opacity="0"></use></g></g><g><use xlink:href="#b1m1gmPJ6R" opacity="1" fill="#ffd433" fill-opacity="1"></use><g><use xlink:href="#b1m1gmPJ6R" opacity="1" fill-opacity="0" stroke="#000000" stroke-width="1" stroke-opacity="0"></use></g></g></g></svg>