<?xml version="1.0" encoding="UTF-8" standalone="no"?>
<!DOCTYPE svg PUBLIC "-//W3C//DTD SVG 1.1//EN" "http://www.w3.org/Graphics/SVG/1.1/DTD/svg11.dtd">
<svg version="1.1" xmlns="http://www.w3.org/2000/svg" xmlns:xlink="http://www.w3.org/1999/xlink" preserveAspectRatio="xMidYMid meet" viewBox="9.661626600208095 261.7566251055772 302.9555302319396 89.5190676638482" width="298.96" height="85.52"><defs><path d="M220.83 317.56C205.34 320.04 189.16 326.13 179.01 333.75C194.89 335.22 212.36 333.42 226.03 329.45C236.72 326.35 243.8 322.26 247.13 318.36C241.87 316.3 232.75 315.64 220.83 317.56" id="b3LL18n4Iv"></path><path d="M221.82 319.83C229.57 318.4 236.07 317.83 241.19 317.88C236.14 317.26 229.43 317.45 221.39 318.85C211.86 320.51 202.03 323.58 193.36 327.63C202.91 324.18 212.69 321.51 221.82 319.83" id="aVNy3YmuA"></path><path d="M243.72 317.97L244.98 313.68L246.22 313.48L247.13 318.36L243.72 317.97Z" id="e17RuIOWkT"></path><path d="M244.41 320.13L247.85 323.12L248.99 322.79L247.13 318.36L244.41 320.13Z" id="ce8qeL9qt"></path><path d="M43.15 296.19C31.12 298.12 18.54 302.85 10.66 308.77C23 309.91 36.57 308.51 47.19 305.43C55.5 303.02 61 299.84 63.58 296.81C59.5 295.21 52.41 294.7 43.15 296.19" id="a4cZbYTtFG"></path><path d="M43.92 297.95C49.95 296.84 54.99 296.4 58.97 296.44C55.05 295.96 49.84 296.1 43.59 297.19C36.19 298.48 28.55 300.86 21.81 304.02C29.23 301.33 36.83 299.26 43.92 297.95" id="e2dgRpFGdO"></path><path d="M60.94 296.51L61.92 293.17L62.88 293.02L63.58 296.81L60.94 296.51Z" id="b7a0ImT2G"></path><path d="M61.47 298.18L64.15 300.51L65.03 300.25L63.58 296.81L61.47 298.18Z" id="czx73aOBV"></path><path d="M234.29 298.13C234.79 301.22 233.75 303.96 231.97 304.24C230.18 304.53 228.34 302.25 227.84 299.16C227.35 296.07 228.39 293.34 230.17 293.05C231.95 292.77 233.8 295.04 234.29 298.13" id="c4ZS0GyMS0"></path><path d="M29.76 304.46L29.76 304.46L29.76 305.32L143.34 309.24L173.51 292.94L29.76 304.46Z" id="a2MzjO1MSX"></path><path d="M29.76 304.46L52.73 299.23L166.14 298.65L143.58 307.42L29.76 304.46Z" id="f3MbgpUjCc"></path><path d="M200.91 291.96C200.91 291.96 217.84 262.9 223.1 262.9C229.47 262.9 238.29 262.76 241.44 262.76C243.87 262.76 235.75 266.28 235.75 266.28C234.82 269.32 227.39 293.63 226.46 296.67C226.46 296.67 199.36 294.03 200.91 291.96" id="a5jL3xLO"></path><path d="M69.4 331.68C162.4 352.56 232.69 311.99 232.49 298.76C232.34 288.11 192.45 285.1 150.27 288.13C121.48 277.45 97.95 283.4 87 297.78C74.25 301.14 63.94 305.23 58.01 309.96C51.19 315.4 60.98 325.41 69.4 331.68" id="c2feCDMvhT"></path><path d="M75.64 332.78C75.64 332.78 115.78 326.12 124.25 314.72C124.25 314.72 119.9 339.28 77.81 348.28C77.38 345.18 76.08 335.88 75.64 332.78Z" id="b7BkJ8HgEs"></path><path d="M87.31 345.94L75.21 333.9L76.32 332.78L86.31 342.73L88.87 329.15L100.45 337.38L101.39 325.69L109.83 331.95L110.82 323.01L117.53 324.63L118.32 319.07L119.88 319.29L118.85 326.56L112.19 324.96L111.1 334.85L102.73 328.65L101.8 340.28L89.96 331.86L87.31 345.94Z" id="a18aWTVcHb"></path><path d="M136.88 305.32C136.88 305.32 200.81 301.47 209.49 305.32C218.17 309.18 137.58 332.18 137.58 332.18C137.93 331.22 139.68 326.46 142.83 317.89C139.65 311.19 137.67 307 136.88 305.32Z" id="a33j3Uu32M"></path><path d="M136.88 305.32C141.6 317.89 139.85 322.32 137.58 332.18C147.55 331.01 148.24 310.78 136.88 305.32" id="d45haG8gzH"></path><path d="M150.27 316.19L150.27 319.38L263.3 328.45L286.74 319.38L150.27 316.19Z" id="a1QPcLKn12"></path><path d="M150.27 316.19L205.99 307.34L286.74 319.38L263.65 326.65L150.27 316.19Z" id="b2yCrdSaD"></path><path d="M63.74 315.55C62.87 316.32 11.08 326.02 11.08 326.02C14.65 325.91 32.49 325.36 64.62 324.37C64.15 319.67 63.85 316.73 63.74 315.55Z" id="c1wAVByr0K"></path><path d="M81.85 318.75C81.85 326.17 76.49 332.18 69.87 332.18C63.25 332.18 43.27 327.17 43.27 321.1C43.27 314.4 63.25 305.32 69.87 305.32C76.49 305.32 81.85 311.34 81.85 318.75" id="c6swp7wfK"></path><path d="M63.74 312.36C64.14 313.75 60.88 315.93 56.44 317.23C52.01 318.54 48.08 318.47 47.68 317.09C47.27 315.7 50.53 313.52 54.97 312.21C59.4 310.91 63.33 310.98 63.74 312.36" id="an2wvPg28"></path><path d="M87 297.78C87 297.78 111.7 311.74 150.27 288.13C121.48 277.45 97.95 283.4 87 297.78" id="f1IP8d8kUj"></path><path d="M103.01 288.06C103.01 292.16 101 295.48 98.53 295.48C96.05 295.48 94.04 292.16 94.04 288.06C94.04 283.95 96.05 280.63 98.53 280.63C101 280.63 103.01 283.95 103.01 288.06" id="a1OJUWIFLV"></path><path d="M100.85 289.53C100.85 291.44 99.91 292.99 98.76 292.99C97.6 292.99 96.67 291.44 96.67 289.53C96.67 287.63 97.6 286.08 98.76 286.08C99.91 286.08 100.85 287.63 100.85 289.53" id="b1uynQAGd6"></path><path d="M117.11 288.06C117.11 292.82 114.77 296.67 111.9 296.67C109.02 296.67 106.69 292.82 106.69 288.06C106.69 283.3 109.02 279.44 111.9 279.44C114.77 279.44 117.11 283.3 117.11 288.06" id="c1DvAyMQRI"></path><path d="M114.59 289.53C114.59 291.75 113.51 293.55 112.17 293.55C110.83 293.55 109.75 291.75 109.75 289.53C109.75 287.32 110.83 285.52 112.17 285.52C113.51 285.52 114.59 287.32 114.59 289.53" id="fIq5pI5ia"></path><path d="M112.37 287C112.37 287.82 111.7 288.48 110.89 288.48C110.07 288.48 109.41 287.82 109.41 287C109.41 286.19 110.07 285.52 110.89 285.52C111.7 285.52 112.37 286.19 112.37 287" id="a1LpHUxGGf"></path><path d="M99.1 287C99.1 287.82 98.44 288.48 97.63 288.48C96.81 288.48 96.15 287.82 96.15 287C96.15 286.19 96.81 285.52 97.63 285.52C98.44 285.52 99.1 286.19 99.1 287" id="eeQFWmxsW"></path><path d="M106.27 284.6C106.27 284.6 116.22 279.42 118.32 277.53C118.32 277.53 118.41 274.81 117.11 274.49C115.8 274.18 105.01 282.57 105.01 282.57C105.01 282.57 104.49 284.64 106.27 284.6" id="a1A8YgKsTW"></path><path d="M103.45 284.5C103.45 284.5 96.95 280.5 95.58 279.05C95.58 279.05 95.52 276.95 96.37 276.7C97.22 276.46 104.27 282.93 104.27 282.93C104.27 282.93 104.61 284.53 103.45 284.5" id="a31GphJgNz"></path><path d="M281.45 316.08C265.96 318.57 249.78 324.66 239.64 332.28C255.52 333.75 272.98 331.95 286.65 327.98C297.34 324.88 304.43 320.79 307.75 316.89C302.49 314.83 293.37 314.17 281.45 316.08" id="a2SvvMzqh"></path><path d="M282.45 318.36C290.2 316.93 296.69 316.36 301.81 316.41C296.77 315.79 290.06 315.98 282.02 317.38C272.49 319.04 262.66 322.11 253.99 326.16C263.54 322.71 273.31 320.04 282.45 318.36" id="a3SrgeThNt"></path><path d="M304.35 316.5L305.61 312.21L306.85 312.01L307.75 316.89L304.35 316.5Z" id="a2IELfhse7"></path><path d="M305.03 318.66L308.48 321.65L309.62 321.32L307.75 316.89L305.03 318.66Z" id="c1ah6ht4jQ"></path><path d="M121.22 284.5C121.22 284.5 134.72 283.33 144.11 288.06C144.11 288.06 130.67 284.87 121.22 284.5" id="cb0S5zTlC"></path><path d="M150.27 319.38L161.79 324.95L173.94 321.12L150.27 319.38Z" id="c210MI3FlT"></path><path d="M148.78 289.86C148.78 289.86 208.81 284.77 226.82 294.14C226.82 294.14 180.12 288.35 144.11 293.57C145.04 292.83 147.84 290.61 148.78 289.86Z" id="l2hU5BwRFP"></path><path d="M150.27 334.26C150.27 334.26 182.89 330.02 192.34 323.87C192.34 323.87 172.5 329.54 150.27 334.26" id="hbyQlBAew"></path><path d="M87 299.87C87 299.87 103.13 307.91 132.66 299.87C132.66 299.87 98.97 312.47 87 299.87" id="e7QFZ5lCf"></path><path d="M237.71 287.54C238.41 287.25 242.6 282.47 245.51 282.18C244.15 283.55 243.34 285.44 243.29 287.36C246.74 286.09 250.2 284.82 253.66 283.54C253.24 284.34 252.81 285.14 252.39 285.94C259.05 285.75 265.69 285.31 272.31 284.63C268.71 285.33 266.28 288.62 263.24 290.68C258.76 293.72 252.72 294.15 248.76 297.85C251.24 297.95 253.72 298.06 256.2 298.16C250.8 300.1 244.15 298.91 234.91 301.69C238.41 299 237.97 298.27 239.83 297.61C241.69 296.95 243.85 296.5 244.96 294.87C242.11 295.06 239.26 295.25 236.42 295.44C237.81 294.69 239.2 293.94 240.59 293.18C238.69 293.07 238.39 292.46 236.49 292.35C237.73 291.05 237.63 290.48 239.26 289.71C238.81 289.92 232.13 291.09 232.49 290.86C235.12 289.18 236.66 287.97 237.71 287.54" id="ab3kp2YAx"></path><path d="M242.93 288.85C244.67 288.33 249.29 286.05 251.1 285.87C250.26 286.72 246.03 287.9 246 289.09C248.15 288.3 250.3 287.51 252.45 286.72C252.18 287.22 249.25 288.79 248.99 289.29C253.13 289.17 259.93 287.82 264.04 287.4C261.8 287.83 259.46 288.97 257.57 290.25C254.78 292.14 251.45 291.84 248.99 294.14C250.53 294.2 252.45 293.42 253.99 293.49C250.63 294.69 244.85 297.97 239.1 299.7C240.16 298.03 243.9 297.08 245.06 296.67C246.22 296.26 246.34 294.77 247.04 293.76C245.27 293.88 243.5 294 241.73 294.12C242.59 293.65 243.45 293.18 244.32 292.71C243.14 292.64 241.96 292.58 240.78 292.51C241.55 291.7 242.48 291.03 243.49 290.55C243.21 290.69 238.89 291.46 239.11 291.31C240.84 290.16 242.48 288.99 242.93 288.85" id="b16sLIW76X"></path></defs><g><g><use xlink:href="#b3LL18n4Iv" opacity="1" fill="#de0f0d" fill-opacity="1"></use><g><use xlink:href="#b3LL18n4Iv" opacity="1" fill-opacity="0" stroke="#000000" stroke-width="1" stroke-opacity="0"></use></g></g><g><use xlink:href="#aVNy3YmuA" opacity="1" fill="#ffffff" fill-opacity="1"></use><g><use xlink:href="#aVNy3YmuA" opacity="1" fill-opacity="0" stroke="#000000" stroke-width="1" stroke-opacity="0"></use></g></g><g><use xlink:href="#e17RuIOWkT" opacity="1" fill="#de0f0d" fill-opacity="1"></use><g><use xlink:href="#e17RuIOWkT" opacity="1" fill-opacity="0" stroke="#000000" stroke-width="1" stroke-opacity="0"></use></g></g><g><use xlink:href="#ce8qeL9qt" opacity="1" fill="#de0f0d" fill-opacity="1"></use><g><use xlink:href="#ce8qeL9qt" opacity="1" fill-opacity="0" stroke="#000000" stroke-width="1" stroke-opacity="0"></use></g></g><g><use xlink:href="#a4cZbYTtFG" opacity="1" fill="#de0f0d" fill-opacity="1"></use><g><use xlink:href="#a4cZbYTtFG" opacity="1" fill-opacity="0" stroke="#000000" stroke-width="1" stroke-opacity="0"></use></g></g><g><use xlink:href="#e2dgRpFGdO" opacity="1" fill="#ffffff" fill-opacity="1"></use><g><use xlink:href="#e2dgRpFGdO" opacity="1" fill-opacity="0" stroke="#000000" stroke-width="1" stroke-opacity="0"></use></g></g><g><use xlink:href="#b7a0ImT2G" opacity="1" fill="#de0f0d" fill-opacity="1"></use><g><use xlink:href="#b7a0ImT2G" opacity="1" fill-opacity="0" stroke="#000000" stroke-width="1" stroke-opacity="0"></use></g></g><g><use xlink:href="#czx73aOBV" opacity="1" fill="#de0f0d" fill-opacity="1"></use><g><use xlink:href="#czx73aOBV" opacity="1" fill-opacity="0" stroke="#000000" stroke-width="1" stroke-opacity="0"></use></g></g><g><use xlink:href="#c4ZS0GyMS0" opacity="1" fill="#de0f0d" fill-opacity="1"></use><g><use xlink:href="#c4ZS0GyMS0" opacity="1" fill-opacity="0" stroke="#000000" stroke-width="1" stroke-opacity="0"></use></g></g><g><use xlink:href="#a2MzjO1MSX" opacity="1" fill="#001736" fill-opacity="1"></use><g><use xlink:href="#a2MzjO1MSX" opacity="1" fill-opacity="0" stroke="#000000" stroke-width="1" stroke-opacity="0"></use></g></g><g><use xlink:href="#f3MbgpUjCc" opacity="1" fill="#192d69" fill-opacity="1"></use><g><use xlink:href="#f3MbgpUjCc" opacity="1" fill-opacity="0" stroke="#000000" stroke-width="1" stroke-opacity="0"></use></g></g><g><use xlink:href="#a5jL3xLO" opacity="1" fill="#de0f0d" fill-opacity="1"></use><g><use xlink:href="#a5jL3xLO" opacity="1" fill-opacity="0" stroke="#000000" stroke-width="1" stroke-opacity="0"></use></g></g><g><use xlink:href="#c2feCDMvhT" opacity="1" fill="#bdc8cc" fill-opacity="1"></use><g><use xlink:href="#c2feCDMvhT" opacity="1" fill-opacity="0" stroke="#000000" stroke-width="1" stroke-opacity="0"></use></g></g><g><use xlink:href="#b7BkJ8HgEs" opacity="1" fill="#ffffff" fill-opacity="1"></use><g><use xlink:href="#b7BkJ8HgEs" opacity="1" fill-opacity="0" stroke="#000000" stroke-width="1" stroke-opacity="0"></use></g></g><g><use xlink:href="#a18aWTVcHb" opacity="1" fill="#000000" fill-opacity="1"></use><g><use xlink:href="#a18aWTVcHb" opacity="1" fill-opacity="0" stroke="#000000" stroke-width="1" stroke-opacity="0"></use></g></g><g><use xlink:href="#a33j3Uu32M" opacity="1" fill="#de0f0d" fill-opacity="1"></use><g><use xlink:href="#a33j3Uu32M" opacity="1" fill-opacity="0" stroke="#000000" stroke-width="1" stroke-opacity="0"></use></g></g><g><use xlink:href="#d45haG8gzH" opacity="1" fill="#5e0303" fill-opacity="1"></use><g><use xlink:href="#d45haG8gzH" opacity="1" fill-opacity="0" stroke="#000000" stroke-width="1" stroke-opacity="0"></use></g></g><g><use xlink:href="#a1QPcLKn12" opacity="1" fill="#001736" fill-opacity="1"></use><g><use xlink:href="#a1QPcLKn12" opacity="1" fill-opacity="0" stroke="#000000" stroke-width="1" stroke-opacity="0"></use></g></g><g><use xlink:href="#b2yCrdSaD" opacity="1" fill="#192d69" fill-opacity="1"></use><g><use xlink:href="#b2yCrdSaD" opacity="1" fill-opacity="0" stroke="#000000" stroke-width="1" stroke-opacity="0"></use></g></g><g><use xlink:href="#c1wAVByr0K" opacity="1" fill="#ff5454" fill-opacity="1"></use><g><use xlink:href="#c1wAVByr0K" opacity="1" fill-opacity="0" stroke="#000000" stroke-width="1" stroke-opacity="0"></use></g></g><g><use xlink:href="#c6swp7wfK" opacity="1" fill="#de0f0d" fill-opacity="1"></use><g><use xlink:href="#c6swp7wfK" opacity="1" fill-opacity="0" stroke="#000000" stroke-width="1" stroke-opacity="0"></use></g></g><g><use xlink:href="#an2wvPg28" opacity="1" fill="#ffffff" fill-opacity="1"></use><g><use xlink:href="#an2wvPg28" opacity="1" fill-opacity="0" stroke="#000000" stroke-width="1" stroke-opacity="0"></use></g></g><g><use xlink:href="#f1IP8d8kUj" opacity="1" fill="#192d69" fill-opacity="1"></use><g><use xlink:href="#f1IP8d8kUj" opacity="1" fill-opacity="0" stroke="#000000" stroke-width="1" stroke-opacity="0"></use></g></g><g><use xlink:href="#a1OJUWIFLV" opacity="1" fill="#fafafa" fill-opacity="1"></use><g><use xlink:href="#a1OJUWIFLV" opacity="1" fill-opacity="0" stroke="#000000" stroke-width="1" stroke-opacity="0"></use></g></g><g><use xlink:href="#b1uynQAGd6" opacity="1" fill="#000000" fill-opacity="1"></use><g><use xlink:href="#b1uynQAGd6" opacity="1" fill-opacity="0" stroke="#000000" stroke-width="1" stroke-opacity="0"></use></g></g><g><use xlink:href="#c1DvAyMQRI" opacity="1" fill="#fafafa" fill-opacity="1"></use><g><use xlink:href="#c1DvAyMQRI" opacity="1" fill-opacity="0" stroke="#000000" stroke-width="1" stroke-opacity="0"></use></g></g><g><use xlink:href="#fIq5pI5ia" opacity="1" fill="#000000" fill-opacity="1"></use><g><use xlink:href="#fIq5pI5ia" opacity="1" fill-opacity="0" stroke="#000000" stroke-width="1" stroke-opacity="0"></use></g></g><g><use xlink:href="#a1LpHUxGGf" opacity="1" fill="#fafafa" fill-opacity="1"></use><g><use xlink:href="#a1LpHUxGGf" opacity="1" fill-opacity="0" stroke="#000000" stroke-width="1" stroke-opacity="0"></use></g></g><g><use xlink:href="#eeQFWmxsW" opacity="1" fill="#fafafa" fill-opacity="1"></use><g><use xlink:href="#eeQFWmxsW" opacity="1" fill-opacity="0" stroke="#000000" stroke-width="1" stroke-opacity="0"></use></g></g><g><use xlink:href="#a1A8YgKsTW" opacity="1" fill="#000000" fill-opacity="1"></use><g><use xlink:href="#a1A8YgKsTW" opacity="1" fill-opacity="0" stroke="#000000" stroke-width="1" stroke-opacity="0"></use></g></g><g><use xlink:href="#a31GphJgNz" opacity="1" fill="#000000" fill-opacity="1"></use><g><use xlink:href="#a31GphJgNz" opacity="1" fill-opacity="0" stroke="#000000" stroke-width="1" stroke-opacity="0"></use></g></g><g><use xlink:href="#a2SvvMzqh" opacity="1" fill="#de0f0d" fill-opacity="1"></use><g><use xlink:href="#a2SvvMzqh" opacity="1" fill-opacity="0" stroke="#000000" stroke-width="1" stroke-opacity="0"></use></g></g><g><use xlink:href="#a3SrgeThNt" opacity="1" fill="#ffffff" fill-opacity="1"></use><g><use xlink:href="#a3SrgeThNt" opacity="1" fill-opacity="0" stroke="#000000" stroke-width="1" stroke-opacity="0"></use></g></g><g><use xlink:href="#a2IELfhse7" opacity="1" fill="#de0f0d" fill-opacity="1"></use><g><use xlink:href="#a2IELfhse7" opacity="1" fill-opacity="0" stroke="#000000" stroke-width="1" stroke-opacity="0"></use></g></g><g><use xlink:href="#c1ah6ht4jQ" opacity="1" fill="#de0f0d" fill-opacity="1"></use><g><use xlink:href="#c1ah6ht4jQ" opacity="1" fill-opacity="0" stroke="#000000" stroke-width="1" stroke-opacity="0"></use></g></g><g><use xlink:href="#cb0S5zTlC" opacity="1" fill="#ffffff" fill-opacity="1"></use><g><use xlink:href="#cb0S5zTlC" opacity="1" fill-opacity="0" stroke="#000000" stroke-width="1" stroke-opacity="0"></use></g></g><g><use xlink:href="#c210MI3FlT" opacity="1" fill="#5e0303" fill-opacity="1"></use><g><use xlink:href="#c210MI3FlT" opacity="1" fill-opacity="0" stroke="#000000" stroke-width="1" stroke-opacity="0"></use></g></g><g><use xlink:href="#l2hU5BwRFP" opacity="1" fill="#ffffff" fill-opacity="1"></use><g><use xlink:href="#l2hU5BwRFP" opacity="1" fill-opacity="0" stroke="#000000" stroke-width="1" stroke-opacity="0"></use></g></g><g><use xlink:href="#hbyQlBAew" opacity="1" fill="#808285" fill-opacity="1"></use><g><use xlink:href="#hbyQlBAew" opacity="1" fill-opacity="0" stroke="#000000" stroke-width="1" stroke-opacity="0"></use></g></g><g><use xlink:href="#e7QFZ5lCf" opacity="1" fill="#ffffff" fill-opacity="1"></use><g><use xlink:href="#e7QFZ5lCf" opacity="1" fill-opacity="0" stroke="#000000" stroke-width="1" stroke-opacity="0"></use></g></g><g><use xlink:href="#ab3kp2YAx" opacity="1" fill="#de0f0d" fill-opacity="1"></use><g><use xlink:href="#ab3kp2YAx" opacity="1" fill-opacity="0" stroke="#000000" stroke-width="1" stroke-opacity="0"></use></g></g><g><use xlink:href="#b16sLIW76X" opacity="1" fill="#fff200" fill-opacity="1"></use><g><use xlink:href="#b16sLIW76X" opacity="1" fill-opacity="0" stroke="#000000" stroke-width="1" stroke-opacity="0"></use></g></g></g></svg>