<?xml version="1.0" encoding="UTF-8" standalone="no"?>
<!DOCTYPE svg PUBLIC "-//W3C//DTD SVG 1.1//EN" "http://www.w3.org/Graphics/SVG/1.1/DTD/svg11.dtd">
<svg version="1.1" xmlns="http://www.w3.org/2000/svg" xmlns:xlink="http://www.w3.org/1999/xlink" preserveAspectRatio="xMidYMid meet" viewBox="44.68448001945666 408.10863896260764 232.90962187672125 123.13680296778261" width="228.91" height="119.14"><defs><path d="M123.7 514.12C123.1 514.12 122.53 513.79 122.27 513.21C121.9 512.42 122.24 511.49 123.03 511.12C123.25 511.02 124.36 510.51 126.35 509.58C130 498.51 132.03 492.36 132.43 491.13C132.71 490.3 133.6 489.85 134.42 490.13C135.25 490.4 135.7 491.29 135.43 492.11C134.99 493.43 132.82 500.02 128.91 511.87C126.18 513.13 124.66 513.84 124.36 513.98C124.14 514.08 123.92 514.12 123.7 514.12" id="c2TUsXGXZ"></path><path d="M111.72 512.55C111.72 518.33 114.93 523.01 118.88 523.01C122.84 523.01 126.04 518.33 126.04 512.55C126.04 506.77 122.84 502.09 118.88 502.09C114.93 502.09 111.72 506.77 111.72 512.55" id="cctWwB2q"></path><path d="M217.46 454.04C217.46 454.04 237.4 409.26 242.66 409.26C249.04 409.26 257.85 409.11 261 409.11C263.44 409.11 255.31 412.63 255.31 412.63C254.25 416.79 245.79 450.11 244.73 454.27C244.73 454.27 215.91 456.11 217.46 454.04" id="cv8s8XHQ9"></path><path d="M154.61 463.14C156.59 468.19 109.44 475.73 68.48 455.44C66.19 454.31 66.78 450.88 69.32 450.57C82.8 448.97 105.28 448.92 111.94 449.9C120.09 451.09 151.53 455.24 154.61 463.14" id="akJapFTRc"></path><path d="M68.68 455.54C67.82 455.12 68.33 453.81 69.25 454.07C117.88 467.53 148.78 458.35 148.78 458.35C151.78 459.76 153.92 461.36 154.61 463.14C156.58 468.18 109.6 475.71 68.68 455.54" id="fBJzpIOco"></path><path d="M89.69 500.14C182.7 521.01 249.23 474.07 249.04 460.84C248.75 440.59 191.89 447.45 164.56 447.45C153.01 402.35 117.85 417.9 114.56 453.3C114.56 453.3 88.78 459.08 82.44 467.41C77.15 474.36 81.27 493.87 89.69 500.14" id="a3CJjPf7d6"></path><path d="M106.13 484.21C106.13 484.21 105.86 498.51 95.87 501.43C95.87 501.43 92.91 501.25 89.69 500.14C92.98 496.95 102.84 487.4 106.13 484.21Z" id="c2rp7XHP00"></path><path d="M106.21 480.83C106.21 491.49 99.76 500.14 91.8 500.14C83.84 500.14 71.25 490.24 71.25 481.51C71.25 471.87 83.84 461.53 91.8 461.53C99.76 461.53 106.21 470.17 106.21 480.83" id="b3SwMu2al4"></path><path d="M162.37 478.51C158.81 483.15 216.43 498.51 272.26 485.4C275.38 484.67 275.37 481.18 272.25 480.46C255.65 476.61 227.41 472.79 218.84 472.63C208.34 472.43 167.94 471.23 162.37 478.51" id="csk0s6SDW"></path><path d="M271.98 485.46C273.15 485.19 272.8 483.82 271.58 483.92C207.59 489.01 170.72 474.77 170.72 474.77C166.66 475.66 163.63 476.86 162.37 478.51C158.82 483.15 216.24 498.46 271.98 485.46" id="fhlIz6bls"></path><path d="M223.7 456.78C222.09 458.89 248.15 465.83 273.4 459.9C274.81 459.57 274.81 458 273.4 457.67C265.89 455.93 253.11 454.2 249.24 454.12C244.49 454.04 226.22 453.5 223.7 456.78" id="dJog3FLQT"></path><path d="M273.28 459.93C273.81 459.81 273.65 459.19 273.1 459.23C244.15 461.54 227.47 455.09 227.47 455.09C225.64 455.5 224.26 456.04 223.7 456.78C222.09 458.88 248.06 465.81 273.28 459.93" id="b15h5kCEAG"></path><path d="M78.85 525.25C63.01 525.25 50.17 505.15 50.17 480.35C50.17 455.55 63.01 435.45 78.85 435.45C84.88 435.45 90.48 438.38 95.1 443.37C89.88 436.58 83.17 432.51 75.86 432.51C59.19 432.51 45.68 453.66 45.68 479.75C45.68 505.84 59.19 526.99 75.86 526.99C80.38 526.99 84.67 525.42 88.52 522.63C85.5 524.32 82.24 525.25 78.85 525.25" id="bU8KPjFw"></path><path d="M68.39 480.05C68.39 471.61 72.76 464.78 78.14 464.78C78.9 464.78 79.64 464.92 80.35 465.17C79.3 464.56 78.15 464.22 76.96 464.22C71.57 464.22 67.2 471.06 67.2 479.49C67.2 486.74 70.43 492.8 74.75 494.37C71.04 492.21 68.39 486.61 68.39 480.05" id="a1XvgxoHnT"></path><path d="M85.95 480.83C85.95 485.84 81.64 489.9 76.33 489.9C71.01 489.9 62.6 485.25 62.6 481.15C62.6 476.62 71.01 471.77 76.33 471.77C81.64 471.77 85.95 475.83 85.95 480.83" id="b4GcGZeb43"></path><path d="M77.72 473.61C76.37 473.61 74.82 473.92 73.27 474.46C72.01 476.75 71.25 479.15 71.25 481.51C71.25 484.91 73.17 488.49 75.97 491.59C76.58 491.69 77.17 491.74 77.72 491.74C83.03 491.74 87.34 487.68 87.34 482.67C87.34 477.67 83.03 473.61 77.72 473.61" id="c3xlEdKRXW"></path><path d="M83.63 477.64C83.63 477.64 233.88 464.22 246.19 454.19C234.31 442.28 188.3 447.45 164.56 447.45C153.01 402.35 117.85 417.9 114.56 453.3C114.56 453.3 88.78 459.08 82.44 467.41C81.3 468.91 80.6 470.99 80.28 473.4C82.23 476.08 83.63 477.64 83.63 477.64" id="cKJNRDWeo"></path><path d="M126.44 441.67C126.44 448.53 123.09 454.08 118.95 454.08C114.81 454.08 111.46 448.53 111.46 441.67C111.46 434.82 114.81 429.27 118.95 429.27C123.09 429.27 126.44 434.82 126.44 441.67" id="a5UatDAGvO"></path><path d="M122.83 444.14C122.83 447.33 121.27 449.92 119.34 449.92C117.41 449.92 115.85 447.33 115.85 444.14C115.85 440.95 117.41 438.37 119.34 438.37C121.27 438.37 122.83 440.95 122.83 444.14" id="b1UrfNAi31"></path><path d="M149.97 441.67C149.97 449.62 146.08 456.06 141.28 456.06C136.48 456.06 132.59 449.62 132.59 441.67C132.59 433.73 136.48 427.29 141.28 427.29C146.08 427.29 149.97 433.73 149.97 441.67" id="j4oSjHVz0b"></path><path d="M145.78 444.14C145.78 447.84 143.97 450.84 141.73 450.84C139.5 450.84 137.68 447.84 137.68 444.14C137.68 440.44 139.5 437.45 141.73 437.45C143.97 437.45 145.78 440.44 145.78 444.14" id="bfxwUmfxa"></path><path d="M142.06 439.91C142.06 441.28 140.95 442.38 139.59 442.38C138.23 442.38 137.12 441.28 137.12 439.91C137.12 438.55 138.23 437.45 139.59 437.45C140.95 437.45 142.06 438.55 142.06 439.91" id="a23ZqxQjvJ"></path><path d="M119.92 439.91C119.92 441.28 118.81 442.38 117.45 442.38C116.08 442.38 114.98 441.28 114.98 439.91C114.98 438.55 116.08 437.45 117.45 437.45C118.81 437.45 119.92 438.55 119.92 439.91" id="a2mszE8udf"></path><path d="M77.56 512.01C88.95 512.01 98.18 497.56 98.18 479.73C98.18 461.9 88.95 447.45 77.56 447.45C73.22 447.45 69.19 449.55 65.87 453.14C69.62 448.26 74.45 445.33 79.71 445.33C91.69 445.33 101.4 460.54 101.4 479.3C101.4 498.05 91.69 513.26 79.71 513.26C76.45 513.26 73.37 512.13 70.6 510.12C72.78 511.34 75.12 512.01 77.56 512.01" id="d1uvvqVsCQ"></path><path d="M131.88 435.9C131.88 435.9 148.5 427.25 152 424.1C152 424.1 152.15 419.55 149.97 419.03C147.8 418.5 129.78 432.51 129.78 432.51C129.78 432.51 128.9 435.98 131.88 435.9" id="d2OSwWASM7"></path><path d="M127.17 435.73C127.17 435.73 116.32 429.06 114.03 426.63C114.03 426.63 113.93 423.12 115.35 422.72C116.77 422.31 128.54 433.11 128.54 433.11C128.54 433.11 129.11 435.79 127.17 435.73" id="d8B128s5V"></path><path d="M129.66 502.22C129.4 502.22 129.15 502.09 129 501.86C127.62 499.76 127.23 498.03 127.84 496.72C128.53 495.25 130.19 494.94 130.51 494.89C142.83 492.09 147.84 481.13 149.41 476.58C140.18 481.86 118.6 486.6 117.62 486.81C115.66 487.15 114.33 486.83 113.64 485.85C112.35 484.02 114.09 480.81 114.29 480.45C114.51 480.07 114.99 479.93 115.36 480.15C115.74 480.36 115.88 480.84 115.67 481.22C115.18 482.09 114.36 484.14 114.93 484.94C115.23 485.36 116.08 485.48 117.31 485.26C117.53 485.21 142.83 479.67 150.3 474.14C150.42 474.05 150.98 473.63 152 472.88C151.73 474.12 151.57 474.8 151.54 474.94C151.5 475.12 147.39 492.69 130.83 496.43C130.82 496.43 130.75 496.44 130.74 496.44C130.74 496.45 129.63 496.6 129.26 497.39C128.92 498.15 129.29 499.43 130.32 501C130.55 501.36 130.45 501.85 130.09 502.09C129.96 502.18 129.81 502.22 129.66 502.22" id="ao17NNELb"></path><path d="M125.05 484.21C125.89 487.62 126.35 489.52 126.44 489.9C126.44 489.9 144.12 485.02 150.77 474.77C150.77 474.77 142.55 479.93 125.05 484.21" id="c1l5ftEpxa"></path><path d="M128.62 489.21C131.41 492.64 132.95 494.54 133.26 494.92C133.26 494.92 148.85 487.99 150.77 474.77C150.77 474.77 151.96 480.84 128.62 489.21" id="a1JbHKIcek"></path><path d="M135.2 500.12C134.82 500.12 134.49 499.85 134.42 499.46C134.35 499.03 134.65 498.63 135.08 498.56C135.16 498.55 143.31 497.19 147.29 493.77C147.62 493.49 148.11 493.53 148.4 493.86C148.68 494.19 148.64 494.68 148.31 494.97C143.99 498.67 135.68 500.06 135.33 500.11C135.28 500.12 135.24 500.12 135.2 500.12" id="h1cVGcX0oj"></path><path d="M85.95 480.83C85.95 485.84 81.64 489.9 76.33 489.9C71.01 489.9 62.6 485.25 62.6 481.15C62.6 476.62 71.01 471.77 76.33 471.77C81.64 471.77 85.95 475.83 85.95 480.83" id="d1amqZvuaN"></path><path d="M75.63 474.66C75.98 475.68 74 477.3 71.19 478.28C68.38 479.26 65.82 479.22 65.46 478.2C65.11 477.18 67.1 475.57 69.9 474.59C72.71 473.61 75.27 473.64 75.63 474.66" id="d9IJkXBk"></path><path d="M183.58 519.36C183.36 519.36 183.13 519.31 182.92 519.21C182.61 519.07 181.09 518.37 178.36 517.1C174.45 505.25 172.28 498.66 171.85 497.35C171.58 496.52 172.02 495.63 172.85 495.36C173.68 495.08 174.57 495.53 174.84 496.36C175.24 497.59 177.27 503.74 180.92 514.82C182.91 515.74 184.02 516.25 184.24 516.35C185.03 516.72 185.37 517.65 185.01 518.44C184.74 519.02 184.17 519.36 183.58 519.36" id="a26x4pUpUP"></path><path d="M195.55 517.78C195.55 523.56 192.34 528.25 188.39 528.25C184.44 528.25 181.23 523.56 181.23 517.78C181.23 512 184.44 507.32 188.39 507.32C192.34 507.32 195.55 512 195.55 517.78" id="a50YdmtzJL"></path><path d="M184.41 517.78C184.41 512.8 186.79 508.64 189.98 507.59C189.47 507.42 188.94 507.32 188.39 507.32C184.44 507.32 181.23 512 181.23 517.78C181.23 523.56 184.44 528.25 188.39 528.25C188.94 528.25 189.47 528.15 189.98 527.98C186.79 526.92 184.41 522.76 184.41 517.78" id="e3Jvg0vwy8"></path><path d="M193.16 517.2C193.16 519.77 191.74 521.85 189.98 521.85C188.22 521.85 186.8 519.77 186.8 517.2C186.8 514.63 188.22 512.55 189.98 512.55C191.74 512.55 193.16 514.63 193.16 517.2" id="a39i4BaWur"></path><path d="M143.6 460.32L172.15 462.46L168.64 459.1L194.78 459.25L190.89 454.58L213.06 454.91L182.53 450.95L187.19 457.45L161.3 455.26L165.18 459.87L143.6 460.32Z" id="b89e865li"></path></defs><g><g><use xlink:href="#c2TUsXGXZ" opacity="1" fill="#000000" fill-opacity="1"></use><g><use xlink:href="#c2TUsXGXZ" opacity="1" fill-opacity="0" stroke="#000000" stroke-width="1" stroke-opacity="0"></use></g></g><g><use xlink:href="#cctWwB2q" opacity="1" fill="#000000" fill-opacity="1"></use><g><use xlink:href="#cctWwB2q" opacity="1" fill-opacity="0" stroke="#000000" stroke-width="1" stroke-opacity="0"></use></g></g><g><use xlink:href="#cv8s8XHQ9" opacity="1" fill="#ff5454" fill-opacity="1"></use><g><use xlink:href="#cv8s8XHQ9" opacity="1" fill-opacity="0" stroke="#000000" stroke-width="1" stroke-opacity="0"></use></g></g><g><use xlink:href="#akJapFTRc" opacity="1" fill="#ff5454" fill-opacity="1"></use><g><use xlink:href="#akJapFTRc" opacity="1" fill-opacity="0" stroke="#000000" stroke-width="1" stroke-opacity="0"></use></g></g><g><use xlink:href="#fBJzpIOco" opacity="1" fill="#ff7c7c" fill-opacity="1"></use><g><use xlink:href="#fBJzpIOco" opacity="1" fill-opacity="0" stroke="#000000" stroke-width="1" stroke-opacity="0"></use></g></g><g><use xlink:href="#a3CJjPf7d6" opacity="1" fill="#dfe0e4" fill-opacity="1"></use><g><use xlink:href="#a3CJjPf7d6" opacity="1" fill-opacity="0" stroke="#000000" stroke-width="1" stroke-opacity="0"></use></g></g><g><use xlink:href="#c2rp7XHP00" opacity="1" fill="#939598" fill-opacity="1"></use><g><use xlink:href="#c2rp7XHP00" opacity="1" fill-opacity="0" stroke="#000000" stroke-width="1" stroke-opacity="0"></use></g></g><g><use xlink:href="#b3SwMu2al4" opacity="1" fill="#ff5454" fill-opacity="1"></use><g><use xlink:href="#b3SwMu2al4" opacity="1" fill-opacity="0" stroke="#000000" stroke-width="1" stroke-opacity="0"></use></g></g><g><use xlink:href="#csk0s6SDW" opacity="1" fill="#ff5454" fill-opacity="1"></use><g><use xlink:href="#csk0s6SDW" opacity="1" fill-opacity="0" stroke="#000000" stroke-width="1" stroke-opacity="0"></use></g></g><g><use xlink:href="#fhlIz6bls" opacity="1" fill="#ff7c7c" fill-opacity="1"></use><g><use xlink:href="#fhlIz6bls" opacity="1" fill-opacity="0" stroke="#000000" stroke-width="1" stroke-opacity="0"></use></g></g><g><use xlink:href="#dJog3FLQT" opacity="1" fill="#ff5454" fill-opacity="1"></use><g><use xlink:href="#dJog3FLQT" opacity="1" fill-opacity="0" stroke="#000000" stroke-width="1" stroke-opacity="0"></use></g></g><g><use xlink:href="#b15h5kCEAG" opacity="1" fill="#ff7c7c" fill-opacity="1"></use><g><use xlink:href="#b15h5kCEAG" opacity="1" fill-opacity="0" stroke="#000000" stroke-width="1" stroke-opacity="0"></use></g></g><g><use xlink:href="#bU8KPjFw" opacity="1" fill="#000000" fill-opacity="1"></use><g><use xlink:href="#bU8KPjFw" opacity="1" fill-opacity="0" stroke="#000000" stroke-width="1" stroke-opacity="0"></use></g></g><g><use xlink:href="#a1XvgxoHnT" opacity="1" fill="#000000" fill-opacity="1"></use><g><use xlink:href="#a1XvgxoHnT" opacity="1" fill-opacity="0" stroke="#000000" stroke-width="1" stroke-opacity="0"></use></g></g><g><use xlink:href="#b4GcGZeb43" opacity="1" fill="#ff5454" fill-opacity="1"></use><g><use xlink:href="#b4GcGZeb43" opacity="1" fill-opacity="0" stroke="#000000" stroke-width="1" stroke-opacity="0"></use></g></g><g><use xlink:href="#c3xlEdKRXW" opacity="1" fill="#d13d3d" fill-opacity="1"></use><g><use xlink:href="#c3xlEdKRXW" opacity="1" fill-opacity="0" stroke="#000000" stroke-width="1" stroke-opacity="0"></use></g></g><g><use xlink:href="#cKJNRDWeo" opacity="1" fill="#ff5454" fill-opacity="1"></use><g><use xlink:href="#cKJNRDWeo" opacity="1" fill-opacity="0" stroke="#000000" stroke-width="1" stroke-opacity="0"></use></g></g><g><use xlink:href="#a5UatDAGvO" opacity="1" fill="#fafafa" fill-opacity="1"></use><g><use xlink:href="#a5UatDAGvO" opacity="1" fill-opacity="0" stroke="#000000" stroke-width="1" stroke-opacity="0"></use></g></g><g><use xlink:href="#b1UrfNAi31" opacity="1" fill="#000000" fill-opacity="1"></use><g><use xlink:href="#b1UrfNAi31" opacity="1" fill-opacity="0" stroke="#000000" stroke-width="1" stroke-opacity="0"></use></g></g><g><use xlink:href="#j4oSjHVz0b" opacity="1" fill="#fafafa" fill-opacity="1"></use><g><use xlink:href="#j4oSjHVz0b" opacity="1" fill-opacity="0" stroke="#000000" stroke-width="1" stroke-opacity="0"></use></g></g><g><use xlink:href="#bfxwUmfxa" opacity="1" fill="#000000" fill-opacity="1"></use><g><use xlink:href="#bfxwUmfxa" opacity="1" fill-opacity="0" stroke="#000000" stroke-width="1" stroke-opacity="0"></use></g></g><g><use xlink:href="#a23ZqxQjvJ" opacity="1" fill="#fafafa" fill-opacity="1"></use><g><use xlink:href="#a23ZqxQjvJ" opacity="1" fill-opacity="0" stroke="#000000" stroke-width="1" stroke-opacity="0"></use></g></g><g><use xlink:href="#a2mszE8udf" opacity="1" fill="#fafafa" fill-opacity="1"></use><g><use xlink:href="#a2mszE8udf" opacity="1" fill-opacity="0" stroke="#000000" stroke-width="1" stroke-opacity="0"></use></g></g><g><use xlink:href="#d1uvvqVsCQ" opacity="1" fill="#000000" fill-opacity="1"></use><g><use xlink:href="#d1uvvqVsCQ" opacity="1" fill-opacity="0" stroke="#000000" stroke-width="1" stroke-opacity="0"></use></g></g><g><use xlink:href="#d2OSwWASM7" opacity="1" fill="#000000" fill-opacity="1"></use><g><use xlink:href="#d2OSwWASM7" opacity="1" fill-opacity="0" stroke="#000000" stroke-width="1" stroke-opacity="0"></use></g></g><g><use xlink:href="#d8B128s5V" opacity="1" fill="#000000" fill-opacity="1"></use><g><use xlink:href="#d8B128s5V" opacity="1" fill-opacity="0" stroke="#000000" stroke-width="1" stroke-opacity="0"></use></g></g><g><use xlink:href="#ao17NNELb" opacity="1" fill="#000000" fill-opacity="1"></use><g><use xlink:href="#ao17NNELb" opacity="1" fill-opacity="0" stroke="#000000" stroke-width="1" stroke-opacity="0"></use></g></g><g><use xlink:href="#c1l5ftEpxa" opacity="1" fill="#ffffff" fill-opacity="1"></use><g><use xlink:href="#c1l5ftEpxa" opacity="1" fill-opacity="0" stroke="#000000" stroke-width="1" stroke-opacity="0"></use></g></g><g><use xlink:href="#a1JbHKIcek" opacity="1" fill="#ffffff" fill-opacity="1"></use><g><use xlink:href="#a1JbHKIcek" opacity="1" fill-opacity="0" stroke="#000000" stroke-width="1" stroke-opacity="0"></use></g></g><g><use xlink:href="#h1cVGcX0oj" opacity="1" fill="#000000" fill-opacity="1"></use><g><use xlink:href="#h1cVGcX0oj" opacity="1" fill-opacity="0" stroke="#000000" stroke-width="1" stroke-opacity="0"></use></g></g><g><use xlink:href="#d1amqZvuaN" opacity="1" fill="#ff5454" fill-opacity="1"></use><g><use xlink:href="#d1amqZvuaN" opacity="1" fill-opacity="0" stroke="#000000" stroke-width="1" stroke-opacity="0"></use></g></g><g><use xlink:href="#d9IJkXBk" opacity="1" fill="#ffffff" fill-opacity="1"></use><g><use xlink:href="#d9IJkXBk" opacity="1" fill-opacity="0" stroke="#000000" stroke-width="1" stroke-opacity="0"></use></g></g><g><use xlink:href="#a26x4pUpUP" opacity="1" fill="#000000" fill-opacity="1"></use><g><use xlink:href="#a26x4pUpUP" opacity="1" fill-opacity="0" stroke="#000000" stroke-width="1" stroke-opacity="0"></use></g></g><g><use xlink:href="#a50YdmtzJL" opacity="1" fill="#414042" fill-opacity="1"></use><g><use xlink:href="#a50YdmtzJL" opacity="1" fill-opacity="0" stroke="#000000" stroke-width="1" stroke-opacity="0"></use></g></g><g><use xlink:href="#e3Jvg0vwy8" opacity="1" fill="#000000" fill-opacity="1"></use><g><use xlink:href="#e3Jvg0vwy8" opacity="1" fill-opacity="0" stroke="#000000" stroke-width="1" stroke-opacity="0"></use></g></g><g><use xlink:href="#a39i4BaWur" opacity="1" fill="#ffffff" fill-opacity="1"></use><g><use xlink:href="#a39i4BaWur" opacity="1" fill-opacity="0" stroke="#000000" stroke-width="1" stroke-opacity="0"></use></g></g><g><use xlink:href="#b89e865li" opacity="1" fill="#fff200" fill-opacity="1"></use><g><use xlink:href="#b89e865li" opacity="1" fill-opacity="0" stroke="#000000" stroke-width="1" stroke-opacity="0"></use></g></g></g></svg>