<?xml version="1.0" encoding="UTF-8" standalone="no"?>
<!DOCTYPE svg PUBLIC "-//W3C//DTD SVG 1.1//EN" "http://www.w3.org/Graphics/SVG/1.1/DTD/svg11.dtd">
<svg version="1.1" xmlns="http://www.w3.org/2000/svg" xmlns:xlink="http://www.w3.org/1999/xlink" preserveAspectRatio="xMidYMid meet" viewBox="364.90490969677694 415.1907099189364 243.00959046664934 108.97245095467741" width="239.01" height="104.97"><defs><path d="M537.17 468.79C537.17 468.79 563.91 424.35 568.61 421.99C573.32 419.64 591.67 419.64 592.29 421.99C592.92 424.35 586.64 423.86 586.64 423.86C585.59 428.02 577.12 461.34 576.06 465.51C576.06 465.51 535.63 470.87 537.17 468.79" id="c4yDGsndP4"></path><path d="M453.47 479.27C455.44 484.32 408.3 491.86 367.33 471.57C365.05 470.44 365.64 467.01 368.17 466.7C381.65 465.1 404.14 465.05 410.79 466.03C418.94 467.22 450.39 471.37 453.47 479.27" id="c6BqNtExY"></path><path d="M367.54 471.67C366.68 471.25 367.18 469.95 368.11 470.2C416.73 483.66 447.64 474.48 447.64 474.48C450.63 475.89 452.77 477.49 453.47 479.27C455.44 484.31 408.46 491.84 367.54 471.67" id="d69ZHpeME"></path><path d="M388.55 516.27C481.55 537.14 580.57 485.3 580.37 472.07C580.05 450.21 505.11 474.89 466.24 427.01C441.65 396.72 388.55 436.33 396.77 468.79C396.77 468.79 387.63 475.21 381.3 483.54C376.01 490.49 380.12 510 388.55 516.27" id="aJDtZZpkL"></path><path d="M405.06 496.96C405.06 507.63 398.61 516.27 390.65 516.27C382.69 516.27 365.9 508.3 365.9 497.64C365.9 486.98 382.69 477.66 390.65 477.66C398.61 477.66 405.06 486.3 405.06 496.96" id="ebbSoISOC"></path><path d="M380.94 493.03C378.15 496.49 374.32 498.02 372.38 496.46C370.45 494.9 371.13 490.83 373.92 487.37C376.7 483.92 380.53 482.38 382.47 483.94C384.41 485.51 383.72 489.57 380.94 493.03" id="a4Q7WImNYr"></path><path d="M466.43 483.54C462.04 488.19 533.14 503.55 602.03 490.43C605.88 489.7 605.87 486.22 602.02 485.49C581.54 481.64 546.69 477.82 536.11 477.66C523.16 477.46 473.3 476.27 466.43 483.54" id="a2aIJdS66K"></path><path d="M601.69 490.5C603.14 490.22 602.7 488.85 601.2 488.95C522.24 494.05 476.74 479.8 476.74 479.8C471.73 480.69 467.98 481.9 466.43 483.54C462.05 488.18 532.91 503.49 601.69 490.5" id="bRzvrwDYl"></path><path d="M448.67 462.11C447.24 462.11 446.33 462.03 446.15 462.02C443.55 461.76 441.66 459.45 441.92 456.85C442.17 454.26 444.47 452.36 447.06 452.61C447.87 452.68 466.23 454.14 475.54 437.59C476.82 435.31 479.7 434.51 481.97 435.79C484.24 437.07 485.05 439.95 483.77 442.22C473.57 460.35 455.36 462.11 448.67 462.11" id="e3U64oN02t"></path><path d="M435.88 475.94C431.19 475.94 428.58 475.94 428.06 475.94C420.98 475.94 415.19 470.15 415.19 463.07C415.19 461.92 415.19 452.71 415.19 451.56C415.19 444.48 420.98 438.69 428.06 438.69C428.84 438.69 435.09 438.69 435.88 438.69C442.95 438.69 448.74 444.48 448.74 451.56C448.74 452.71 448.74 461.92 448.74 463.07C448.74 470.15 442.95 475.94 435.88 475.94" id="cWqZPqIAn"></path><path d="M434.94 471.49C431.37 471.49 429.39 471.49 428.99 471.49C423.61 471.49 419.2 467.08 419.2 461.7C419.2 460.82 419.2 453.81 419.2 452.93C419.2 447.55 423.61 443.14 428.99 443.14C429.59 443.14 434.35 443.14 434.94 443.14C440.33 443.14 444.74 447.55 444.74 452.93C444.74 453.81 444.74 460.82 444.74 461.7C444.74 467.08 440.33 471.49 434.94 471.49" id="c28gYsGmKv"></path><path d="M406.61 473.58C402.51 473.58 400.24 473.58 399.79 473.58C393.61 473.58 388.55 468.52 388.55 462.34C388.55 461.34 388.55 453.29 388.55 452.29C388.55 446.11 393.61 441.05 399.79 441.05C400.47 441.05 405.93 441.05 406.61 441.05C412.79 441.05 417.84 446.11 417.84 452.29C417.84 453.29 417.84 461.34 417.84 462.34C417.84 468.52 412.79 473.58 406.61 473.58" id="a9ZtsbGD9"></path><path d="M405.79 469.69C402.68 469.69 400.95 469.69 400.6 469.69C395.9 469.69 392.05 465.84 392.05 461.14C392.05 460.38 392.05 454.25 392.05 453.49C392.05 448.78 395.9 444.94 400.6 444.94C401.12 444.94 405.27 444.94 405.79 444.94C410.5 444.94 414.35 448.78 414.35 453.49C414.35 454.25 414.35 460.38 414.35 461.14C414.35 465.84 410.5 469.69 405.79 469.69" id="bdyHrHF3H"></path><path d="M393.55 462.46C393.55 458.21 393.55 455.84 393.55 455.37C393.55 451.01 397.12 447.44 401.48 447.44C401.96 447.44 405.82 447.44 406.3 447.44C408.57 447.44 410.62 448.41 412.07 449.96C410.66 447.72 408.18 446.21 405.35 446.21C404.87 446.21 401.02 446.21 400.54 446.21C396.18 446.21 392.61 449.78 392.61 454.14C392.61 454.85 392.61 460.53 392.61 461.24C392.61 463.33 393.43 465.23 394.77 466.65C394 465.43 393.55 464 393.55 462.46" id="e2LQqsJHCK"></path><path d="M423.18 461.19C423.18 456.93 423.18 454.56 423.18 454.09C423.18 449.73 426.75 446.16 431.11 446.16C431.59 446.16 435.45 446.16 435.93 446.16C438.2 446.16 440.25 447.14 441.7 448.68C440.29 446.44 437.81 444.94 434.98 444.94C434.5 444.94 430.65 444.94 430.17 444.94C425.81 444.94 422.24 448.5 422.24 452.87C422.24 453.57 422.24 459.25 422.24 459.96C422.24 462.05 423.06 463.95 424.4 465.37C423.63 464.15 423.18 462.72 423.18 461.19" id="fd51bbah1"></path><path d="M490.42 475.9C487.57 475.9 485.99 475.9 485.68 475.9C484.17 475.9 482.93 474.66 482.93 473.15C482.93 472.56 482.93 467.78 482.93 467.18C482.93 465.67 484.17 464.44 485.68 464.44C486.15 464.44 489.95 464.44 490.42 464.44C491.93 464.44 493.17 465.67 493.17 467.18C493.17 467.78 493.17 472.56 493.17 473.15C493.17 474.66 491.93 475.9 490.42 475.9" id="a40VBqQo"></path><path d="M504.02 475.9C501.39 475.9 499.93 475.9 499.64 475.9C498.24 475.9 497.1 474.76 497.1 473.36C497.1 472.81 497.1 468.41 497.1 467.85C497.1 466.46 498.24 465.32 499.64 465.32C500.08 465.32 503.58 465.32 504.02 465.32C505.41 465.32 506.55 466.46 506.55 467.85C506.55 468.41 506.55 472.81 506.55 473.36C506.55 474.76 505.41 475.9 504.02 475.9" id="bVVbRB1cY"></path><path d="M516.24 475.9C513.9 475.9 512.61 475.9 512.35 475.9C511.11 475.9 510.09 474.89 510.09 473.65C510.09 473.16 510.09 469.24 510.09 468.75C510.09 467.51 511.11 466.49 512.35 466.49C512.74 466.49 515.85 466.49 516.24 466.49C517.48 466.49 518.49 467.51 518.49 468.75C518.49 469.24 518.49 473.16 518.49 473.65C518.49 474.89 517.48 475.9 516.24 475.9" id="e2vjaWBQBo"></path><path d="M527.21 475.9C525.09 475.9 523.92 475.9 523.68 475.9C522.56 475.9 521.64 474.98 521.64 473.86C521.64 473.41 521.64 469.87 521.64 469.42C521.64 468.3 522.56 467.38 523.68 467.38C524.04 467.38 526.86 467.38 527.21 467.38C528.33 467.38 529.25 468.3 529.25 469.42C529.25 469.87 529.25 473.41 529.25 473.86C529.25 474.98 528.33 475.9 527.21 475.9" id="a14N5sqfEL"></path><path d="M427.69 433.18C427.69 433.18 431.1 407.46 440.55 433.18C440.55 433.18 431.21 418.65 427.69 433.18" id="fazEKZIYB"></path><path d="M399.21 437C399.21 437 402.62 411.28 412.07 437C412.07 437 402.74 422.47 399.21 437" id="abnB18qhq"></path><path d="M450.4 487.71C450.4 487.71 464.69 495.61 455.96 501.82C449.54 506.38 436.39 493.95 436.39 493.95C436.39 493.95 445.06 491.51 450.4 487.71" id="a1sVZvA2pP"></path><path d="M460.79 487.83C455.5 486.91 452.04 484.99 450.5 482.1C448.84 478.98 450.14 475.99 450.19 475.86C450.35 475.93 451.15 476.29 452.59 476.93L451.39 476.39C452.12 476.71 452.52 476.88 452.6 476.92C452.56 477 451.76 478.92 452.84 480.9C453.97 482.99 456.88 484.49 461.24 485.25C461.15 485.76 460.88 487.31 460.79 487.83Z" id="c2egg0BPxG"></path><path d="M413.1 498.29C412.47 498.29 412.1 498.28 412.04 498.28C412.04 498.01 412.1 495.91 412.1 495.65C412.42 495.66 443.36 496.29 452.44 482.61C452.65 482.75 454.41 483.91 454.62 484.06C450.44 490.37 441.96 494.68 429.43 496.86C422.09 498.15 415.58 498.29 413.1 498.29" id="c1R8zcWYJl"></path></defs><g><g><use xlink:href="#c4yDGsndP4" opacity="1" fill="#e04d17" fill-opacity="1"></use><g><use xlink:href="#c4yDGsndP4" opacity="1" fill-opacity="0" stroke="#000000" stroke-width="1" stroke-opacity="0"></use></g></g><g><use xlink:href="#c6BqNtExY" opacity="1" fill="#e04d17" fill-opacity="1"></use><g><use xlink:href="#c6BqNtExY" opacity="1" fill-opacity="0" stroke="#000000" stroke-width="1" stroke-opacity="0"></use></g></g><g><use xlink:href="#d69ZHpeME" opacity="1" fill="#e04d17" fill-opacity="1"></use><g><use xlink:href="#d69ZHpeME" opacity="1" fill-opacity="0" stroke="#000000" stroke-width="1" stroke-opacity="0"></use></g></g><g><use xlink:href="#aJDtZZpkL" opacity="1" fill="#ffc438" fill-opacity="1"></use><g><use xlink:href="#aJDtZZpkL" opacity="1" fill-opacity="0" stroke="#000000" stroke-width="1" stroke-opacity="0"></use></g></g><g><use xlink:href="#ebbSoISOC" opacity="1" fill="#e04d17" fill-opacity="1"></use><g><use xlink:href="#ebbSoISOC" opacity="1" fill-opacity="0" stroke="#000000" stroke-width="1" stroke-opacity="0"></use></g></g><g><use xlink:href="#a4Q7WImNYr" opacity="1" fill="#ffffff" fill-opacity="1"></use><g><use xlink:href="#a4Q7WImNYr" opacity="1" fill-opacity="0" stroke="#000000" stroke-width="1" stroke-opacity="0"></use></g></g><g><use xlink:href="#a2aIJdS66K" opacity="1" fill="#e04d17" fill-opacity="1"></use><g><use xlink:href="#a2aIJdS66K" opacity="1" fill-opacity="0" stroke="#000000" stroke-width="1" stroke-opacity="0"></use></g></g><g><use xlink:href="#bRzvrwDYl" opacity="1" fill="#e04d17" fill-opacity="1"></use><g><use xlink:href="#bRzvrwDYl" opacity="1" fill-opacity="0" stroke="#000000" stroke-width="1" stroke-opacity="0"></use></g></g><g><use xlink:href="#e3U64oN02t" opacity="1" fill="#301e00" fill-opacity="1"></use><g><use xlink:href="#e3U64oN02t" opacity="1" fill-opacity="0" stroke="#000000" stroke-width="1" stroke-opacity="0"></use></g></g><g><use xlink:href="#cWqZPqIAn" opacity="1" fill="#301e00" fill-opacity="1"></use><g><use xlink:href="#cWqZPqIAn" opacity="1" fill-opacity="0" stroke="#000000" stroke-width="1" stroke-opacity="0"></use></g></g><g><use xlink:href="#c28gYsGmKv" opacity="1" fill="#60a1e2" fill-opacity="1"></use><g><use xlink:href="#c28gYsGmKv" opacity="1" fill-opacity="0" stroke="#000000" stroke-width="1" stroke-opacity="0"></use></g></g><g><use xlink:href="#a9ZtsbGD9" opacity="1" fill="#301e00" fill-opacity="1"></use><g><use xlink:href="#a9ZtsbGD9" opacity="1" fill-opacity="0" stroke="#000000" stroke-width="1" stroke-opacity="0"></use></g></g><g><use xlink:href="#bdyHrHF3H" opacity="1" fill="#60a1e2" fill-opacity="1"></use><g><use xlink:href="#bdyHrHF3H" opacity="1" fill-opacity="0" stroke="#000000" stroke-width="1" stroke-opacity="0"></use></g></g><g><use xlink:href="#e2LQqsJHCK" opacity="1" fill="#ffffff" fill-opacity="1"></use><g><use xlink:href="#e2LQqsJHCK" opacity="1" fill-opacity="0" stroke="#000000" stroke-width="1" stroke-opacity="0"></use></g></g><g><use xlink:href="#fd51bbah1" opacity="1" fill="#ffffff" fill-opacity="1"></use><g><use xlink:href="#fd51bbah1" opacity="1" fill-opacity="0" stroke="#000000" stroke-width="1" stroke-opacity="0"></use></g></g><g><use xlink:href="#a40VBqQo" opacity="1" fill="#60a1e2" fill-opacity="1"></use><g><use xlink:href="#a40VBqQo" opacity="1" fill-opacity="0" stroke="#000000" stroke-width="1" stroke-opacity="0"></use></g></g><g><use xlink:href="#bVVbRB1cY" opacity="1" fill="#60a1e2" fill-opacity="1"></use><g><use xlink:href="#bVVbRB1cY" opacity="1" fill-opacity="0" stroke="#000000" stroke-width="1" stroke-opacity="0"></use></g></g><g><use xlink:href="#e2vjaWBQBo" opacity="1" fill="#60a1e2" fill-opacity="1"></use><g><use xlink:href="#e2vjaWBQBo" opacity="1" fill-opacity="0" stroke="#000000" stroke-width="1" stroke-opacity="0"></use></g></g><g><use xlink:href="#a14N5sqfEL" opacity="1" fill="#60a1e2" fill-opacity="1"></use><g><use xlink:href="#a14N5sqfEL" opacity="1" fill-opacity="0" stroke="#000000" stroke-width="1" stroke-opacity="0"></use></g></g><g><use xlink:href="#fazEKZIYB" opacity="1" fill="#000000" fill-opacity="1"></use><g><use xlink:href="#fazEKZIYB" opacity="1" fill-opacity="0" stroke="#000000" stroke-width="1" stroke-opacity="0"></use></g></g><g><use xlink:href="#abnB18qhq" opacity="1" fill="#000000" fill-opacity="1"></use><g><use xlink:href="#abnB18qhq" opacity="1" fill-opacity="0" stroke="#000000" stroke-width="1" stroke-opacity="0"></use></g></g><g><use xlink:href="#a1sVZvA2pP" opacity="1" fill="#f40000" fill-opacity="1"></use><g><use xlink:href="#a1sVZvA2pP" opacity="1" fill-opacity="0" stroke="#000000" stroke-width="1" stroke-opacity="0"></use></g></g><g><use xlink:href="#c2egg0BPxG" opacity="1" fill="#000000" fill-opacity="1"></use><g><use xlink:href="#c2egg0BPxG" opacity="1" fill-opacity="0" stroke="#000000" stroke-width="1" stroke-opacity="0"></use></g></g><g><use xlink:href="#c1R8zcWYJl" opacity="1" fill="#000000" fill-opacity="1"></use><g><use xlink:href="#c1R8zcWYJl" opacity="1" fill-opacity="0" stroke="#000000" stroke-width="1" stroke-opacity="0"></use></g></g></g></svg>