<?xml version="1.0" encoding="UTF-8" standalone="no"?>
<!DOCTYPE svg PUBLIC "-//W3C//DTD SVG 1.1//EN" "http://www.w3.org/Graphics/SVG/1.1/DTD/svg11.dtd">
<svg version="1.1" xmlns="http://www.w3.org/2000/svg" xmlns:xlink="http://www.w3.org/1999/xlink" preserveAspectRatio="xMidYMid meet" viewBox="367.1648215208162 254.84379629327043 238.48973840910423 92.61332914682794" width="234.49" height="88.61"><defs><path d="M368.16 324.45L564.77 344.46L602.65 326.71L602.65 324.45L520.52 316.55L564.54 294.52L564.54 292.27L526.51 294.52L573.71 269.96L573.71 267.7L511.1 280.97L518.81 265.73L518.81 263.47L460.21 275.04L461.58 258.1L428.06 274.2L408.94 301.28L368.16 324.45Z" id="gPYcQRfAk"></path><path d="M368.16 324.45L564.77 342.2L602.65 324.45L520.52 314.29L564.54 292.27L526.51 292.27L573.71 267.7L511.1 278.71L518.81 263.47L460.21 272.78L461.58 255.84L428.06 271.94L408.94 299.02L368.16 324.45Z" id="cfyOENghi"></path><path d="M368.16 324.45C368.16 324.45 405.67 279.07 520.52 283.25C520.52 283.25 442.05 320.26 368.16 324.45" id="a2R9pPcB0I"></path><path d="M515.91 285.54C517.21 284.96 517.9 284.63 517.9 284.63C409.31 280.68 373.85 323.59 373.85 323.59C375.01 323.53 376.18 323.45 377.34 323.37C390.84 311.25 431.1 283.61 515.91 285.54" id="eakuGLXPb"></path><path d="M402.98 310.86C402.98 310.86 426.04 303.33 437.43 297.59C437.54 298.32 438.45 304.2 438.56 304.94C438.56 304.94 413.46 309.49 402.98 310.86" id="c3qDwrCL8g"></path><path d="M429.9 304.5C429.9 306.71 428.87 308.5 427.6 308.5C426.33 308.5 425.29 306.71 425.29 304.5C425.29 302.29 426.33 300.5 427.6 300.5C428.87 300.5 429.9 302.29 429.9 304.5" id="cmnoQKlwj"></path><path d="M427.6 303.71C427.6 304.62 427.18 305.35 426.65 305.35C426.13 305.35 425.71 304.62 425.71 303.71C425.71 302.81 426.13 302.07 426.65 302.07C427.18 302.07 427.6 302.81 427.6 303.71" id="f9VpD2eSS"></path></defs><g><g><use xlink:href="#gPYcQRfAk" opacity="1" fill="#231f20" fill-opacity="1"></use><g><use xlink:href="#gPYcQRfAk" opacity="1" fill-opacity="0" stroke="#000000" stroke-width="1" stroke-opacity="0"></use></g></g><g><use xlink:href="#cfyOENghi" opacity="1" fill="#323a45" fill-opacity="1"></use><g><use xlink:href="#cfyOENghi" opacity="1" fill-opacity="0" stroke="#000000" stroke-width="1" stroke-opacity="0"></use></g></g><g><use xlink:href="#a2R9pPcB0I" opacity="1" fill="#231f20" fill-opacity="1"></use><g><use xlink:href="#a2R9pPcB0I" opacity="1" fill-opacity="0" stroke="#000000" stroke-width="1" stroke-opacity="0"></use></g></g><g><use xlink:href="#eakuGLXPb" opacity="1" fill="#808285" fill-opacity="1"></use><g><use xlink:href="#eakuGLXPb" opacity="1" fill-opacity="0" stroke="#000000" stroke-width="1" stroke-opacity="0"></use></g></g><g><use xlink:href="#c3qDwrCL8g" opacity="1" fill="#ffffff" fill-opacity="1"></use><g><use xlink:href="#c3qDwrCL8g" opacity="1" fill-opacity="0" stroke="#000000" stroke-width="1" stroke-opacity="0"></use></g></g><g><use xlink:href="#cmnoQKlwj" opacity="1" fill="#231f20" fill-opacity="1"></use><g><use xlink:href="#cmnoQKlwj" opacity="1" fill-opacity="0" stroke="#000000" stroke-width="1" stroke-opacity="0"></use></g></g><g><use xlink:href="#f9VpD2eSS" opacity="1" fill="#ffffff" fill-opacity="1"></use><g><use xlink:href="#f9VpD2eSS" opacity="1" fill-opacity="0" stroke="#000000" stroke-width="1" stroke-opacity="0"></use></g></g></g></svg>