<?xml version="1.0" encoding="UTF-8" standalone="no"?>
<!DOCTYPE svg PUBLIC "-//W3C//DTD SVG 1.1//EN" "http://www.w3.org/Graphics/SVG/1.1/DTD/svg11.dtd">
<svg version="1.1" xmlns="http://www.w3.org/2000/svg" xmlns:xlink="http://www.w3.org/1999/xlink" preserveAspectRatio="xMidYMid meet" viewBox="103.92887864363047 158.77476720802076 280.09836273432677 166.54236570607247" width="276.1" height="162.54"><defs><path d="M281.47 275.49C357.49 288.02 389.97 271.87 378.92 227.04C364.53 198.52 335.52 182.31 291.9 178.42C254.61 175.09 207.98 180.42 152.03 194.4C138.12 197.88 127.86 209.66 126.33 223.91C125.97 227.29 126.84 219.17 126.33 223.91C125.27 233.75 131.25 242.98 140.65 246.04C166.54 254.47 213.48 264.29 281.47 275.49Z" id="a7TBlqumS"></path><linearGradient id="gradientbjm43RNnS" gradientUnits="userSpaceOnUse" x1="266.23" y1="175.63" x2="287.66" y2="436.25"><stop style="stop-color: #f6f6f6;stop-opacity: 1" offset="0%"></stop><stop style="stop-color: #010000;stop-opacity: 1" offset="100%"></stop></linearGradient><path d="M380.25 233.56L380.68 236.65L380.93 239.64L381.03 242.52L380.96 245.29L380.73 247.95L380.33 250.51L379.77 252.95L379.05 255.29L378.17 257.53L377.12 259.65L375.91 261.67L374.53 263.58L372.99 265.38L371.29 267.08L369.43 268.67L367.4 270.15L365.21 271.52L362.85 272.78L360.33 273.94L357.65 274.99L354.81 275.93L351.8 276.77L348.63 277.5L345.3 278.12L341.8 278.63L338.14 279.03L334.31 279.33L330.33 279.52L326.18 279.6L321.86 279.58L317.39 279.44L312.75 279.2L307.94 278.85L302.98 278.4L297.85 277.84L292.55 277.16L287.1 276.39L281.48 275.5L276.42 274.66L271.43 273.83L266.53 273L261.71 272.18L256.96 271.36L252.3 270.55L247.71 269.74L243.21 268.94L238.78 268.15L234.43 267.36L230.16 266.57L225.97 265.79L221.85 265.01L217.82 264.24L213.86 263.48L209.99 262.72L206.19 261.96L202.47 261.22L198.83 260.47L195.27 259.73L191.79 259L188.39 258.27L185.07 257.55L181.82 256.83L178.66 256.12L175.57 255.41L172.57 254.7L169.64 254.01L166.79 253.32L164.02 252.63L161.33 251.95L158.71 251.27L156.18 250.6L153.73 249.93L151.35 249.27L149.05 248.62L146.84 247.97L144.7 247.32L142.64 246.68L140.66 246.05L139.96 245.8L139.27 245.54L138.6 245.25L137.94 244.95L137.3 244.62L136.67 244.27L136.05 243.9L135.45 243.51L134.87 243.1L134.3 242.68L133.75 242.23L133.22 241.77L132.7 241.3L132.2 240.8L131.71 240.29L131.25 239.77L131.04 239.51L136.74 240.07L142.88 240.66L148.87 241.23L154.72 241.78L160.42 242.3L165.98 242.8L171.39 243.28L176.65 243.73L181.77 244.16L186.74 244.56L191.56 244.94L196.24 245.3L200.77 245.64L205.16 245.95L209.4 246.23L213.49 246.5L217.43 246.74L221.24 246.95L224.89 247.15L228.4 247.32L231.76 247.46L234.97 247.59L238.04 247.69L240.97 247.76L243.74 247.81L246.37 247.84L248.86 247.85L251.19 247.83L253.39 247.79L255.43 247.72L257.33 247.63L259.08 247.52L260.69 247.38L263.1 247.15L265.74 246.87L268.58 246.57L271.61 246.24L274.83 245.87L278.21 245.48L281.74 245.05L285.41 244.6L289.2 244.11L293.11 243.6L297.12 243.06L301.21 242.49L305.37 241.89L309.59 241.27L313.86 240.62L318.15 239.94L322.47 239.24L326.79 238.52L331.09 237.77L335.38 236.99L339.63 236.2L343.82 235.38L347.96 234.53L352.02 233.67L355.98 232.78L359.85 231.88L363.59 230.95L367.21 230L370.68 229.03L373.99 228.05L377.13 227.04L378.64 226.52L378.92 227.05L379.67 230.36L379.67 230.36L380.25 233.56Z" id="hNHo06nT9"></path><linearGradient id="gradienta48YdZa82r" gradientUnits="userSpaceOnUse" x1="247.09" y1="392.24" x2="257.86" y2="225.3"><stop style="stop-color: #e6e6ff;stop-opacity: 1" offset="0%"></stop><stop style="stop-color: #a1a3ff;stop-opacity: 1" offset="100%"></stop></linearGradient><path d="M173.83 241.95C163.51 251.92 152.82 257.8 141.77 259.59C116.42 261.22 104.15 254.73 104.97 240.13C105.79 225.53 117.05 213.51 138.76 204.08" id="a7AmWlFUC"></path><linearGradient id="gradientb6EtVGdGRL" gradientUnits="userSpaceOnUse" x1="140.62" y1="204.28" x2="105.34" y2="285.18"><stop style="stop-color: #ececec;stop-opacity: 1" offset="0%"></stop><stop style="stop-color: #b3b3b3;stop-opacity: 1" offset="100%"></stop></linearGradient><path d="M194.31 245.13C205.05 250.45 250.48 309.48 268.68 317.39C286.87 325.29 313.6 325.78 323.19 303.01C327.41 292.97 328.05 283.01 325.1 273.13C322.25 263.58 317.85 254.58 312.07 246.47C309.92 243.46 304.56 235.94 295.97 223.91" id="c1MpgbYweA"></path><linearGradient id="gradientcVAe0PYz" gradientUnits="userSpaceOnUse" x1="238.19" y1="239.13" x2="281.61" y2="390.57"><stop style="stop-color: #c5c5c5;stop-opacity: 1" offset="0%"></stop><stop style="stop-color: #848484;stop-opacity: 1" offset="100%"></stop></linearGradient><path d="M131.19 210.69C129.93 191.57 110.23 166.04 127.95 160.5C139.77 156.8 152.89 167.28 167.32 191.94" id="inSGrkdPo"></path><linearGradient id="gradientc4b8UHmOw" gradientUnits="userSpaceOnUse" x1="122.1" y1="129.39" x2="141.21" y2="211.59"><stop style="stop-color: #e0e0e0;stop-opacity: 1" offset="0%"></stop><stop style="stop-color: #ededed;stop-opacity: 1" offset="100%"></stop></linearGradient><path d="M283.9 214.09C283.65 216.51 280.4 218.14 276.67 217.74C272.93 217.34 270.11 215.05 270.37 212.64C270.63 210.22 273.88 208.58 277.61 208.99C281.34 209.39 284.16 211.67 283.9 214.09Z" id="bxE6N9vhy"></path><path d="M247.86 212.7C247.78 215.13 244.67 217.01 240.92 216.89C237.17 216.77 234.18 214.71 234.25 212.28C234.33 209.85 237.44 207.97 241.19 208.09C244.95 208.2 247.93 210.27 247.86 212.7Z" id="g5EEVYwl"></path><path d="M211.15 214.94C211.2 217.37 208.19 219.41 204.44 219.48C200.68 219.55 197.59 217.64 197.55 215.21C197.5 212.78 200.51 210.74 204.27 210.67C208.02 210.6 211.11 212.51 211.15 214.94Z" id="bEfpPpZn"></path><path d="M318.13 216.23C317.88 218.65 314.64 220.29 310.9 219.9C307.17 219.5 304.34 217.22 304.6 214.8C304.85 212.38 308.09 210.74 311.83 211.14C315.56 211.53 318.39 213.82 318.13 216.23Z" id="aM71u0OzI"></path><path d="M370.19 225.46C368 215.2 359.2 206.2 343.77 198.46C342.88 198.02 341.82 198.58 341.7 199.56C341.15 203.88 339.76 214.68 337.55 231.96" id="f8CLyCkPu"></path></defs><g><g><use xlink:href="#a7TBlqumS" opacity="1" fill="url(#gradientbjm43RNnS)"></use><g><use xlink:href="#a7TBlqumS" opacity="1" fill-opacity="0" stroke="#7d2525" stroke-width="0" stroke-opacity="1"></use></g></g><g><use xlink:href="#hNHo06nT9" opacity="1" fill="url(#gradienta48YdZa82r)"></use><g><use xlink:href="#hNHo06nT9" opacity="1" fill-opacity="0" stroke="#7d2525" stroke-width="0" stroke-opacity="1"></use></g></g><g><use xlink:href="#a7AmWlFUC" opacity="1" fill="url(#gradientb6EtVGdGRL)"></use><g><use xlink:href="#a7AmWlFUC" opacity="1" fill-opacity="0" stroke="#7d2525" stroke-width="0" stroke-opacity="1"></use></g></g><g><use xlink:href="#c1MpgbYweA" opacity="1" fill="url(#gradientcVAe0PYz)"></use><g><use xlink:href="#c1MpgbYweA" opacity="1" fill-opacity="0" stroke="#7d2525" stroke-width="0" stroke-opacity="1"></use></g></g><g><use xlink:href="#inSGrkdPo" opacity="1" fill="url(#gradientc4b8UHmOw)"></use><g><use xlink:href="#inSGrkdPo" opacity="1" fill-opacity="0" stroke="#7d2525" stroke-width="0" stroke-opacity="1"></use></g></g><g><use xlink:href="#bxE6N9vhy" opacity="1" fill="#f8f8ff" fill-opacity="1"></use></g><g><use xlink:href="#g5EEVYwl" opacity="1" fill="#f8f8ff" fill-opacity="1"></use></g><g><use xlink:href="#bEfpPpZn" opacity="1" fill="#f8f8ff" fill-opacity="1"></use></g><g><use xlink:href="#aM71u0OzI" opacity="1" fill="#f8f8ff" fill-opacity="1"></use><g><use xlink:href="#aM71u0OzI" opacity="1" fill-opacity="0" stroke="#7d2525" stroke-width="0" stroke-opacity="1"></use></g></g><g><use xlink:href="#f8CLyCkPu" opacity="1" fill="#efefef" fill-opacity="1"></use><g><use xlink:href="#f8CLyCkPu" opacity="1" fill-opacity="0" stroke="#7d2525" stroke-width="0" stroke-opacity="1"></use></g></g></g></svg>