<?xml version="1.0" encoding="UTF-8" standalone="no"?>
<!DOCTYPE svg PUBLIC "-//W3C//DTD SVG 1.1//EN" "http://www.w3.org/Graphics/SVG/1.1/DTD/svg11.dtd">
<svg version="1.1" xmlns="http://www.w3.org/2000/svg" xmlns:xlink="http://www.w3.org/1999/xlink" preserveAspectRatio="xMidYMid meet" viewBox="0 0 640 640" width="640" height="640"><defs><path d="M0 0L640 0L640 640L0 640L0 0Z" id="acDVHGiII5"></path><linearGradient id="gradientb1eXuZZUL" gradientUnits="userSpaceOnUse" x1="320" y1="0" x2="320" y2="604.75"><stop style="stop-color: #8c9eff;stop-opacity: 1" offset="0%"></stop><stop style="stop-color: #ffffff;stop-opacity: 1" offset="100%"></stop></linearGradient><path d="M175.88 637.81C212.61 634.88 219.19 628.1 195.6 617.46C160.23 601.49 111.9 601.77 90.92 602.4C76.94 602.82 57.64 609.5 33.01 622.44L175.88 637.81Z" id="b1KOYlsQnY"></path><path d="M-56.73 642.07L83.51 658.03L79.34 624.09C55.68 612.61 36.73 606.69 22.49 606.32C8.25 605.96 -5.92 609.47 -20.03 616.84L-56.73 642.07Z" id="bnwJTkwPN"></path><path d="M395.51 642.19L431.63 613.48C395.82 601.7 347.98 597.29 288.1 600.23C228.21 603.17 165.25 618.88 99.19 647.34L395.51 642.19Z" id="amixO4nOy"></path><path d="M-22.96 630.96C-24.27 629.58 -21.63 630.38 -15.04 633.39L182.55 648.89L184.17 632.07C172.91 634.13 160.45 634.93 146.79 634.45C126.3 633.74 68.65 621.92 42.21 619.38C24.58 617.69 3.02 616.88 -22.48 616.95L-21.43 606.04C-21.14 624.04 -21.65 632.34 -22.96 630.96Z" id="bn1m7Trjs"></path><path d="M228.6 657.09C91.59 649.24 40.89 643.35 76.49 639.43C129.89 633.54 218.13 630.02 243.71 626.75C269.3 623.48 302 612.93 346.04 613.67C375.4 614.16 395.26 623.72 405.62 642.37L228.6 657.09Z" id="hehl9x8y2"></path><path d="M516.52 638.3C553.25 635.38 559.82 628.59 536.24 617.95C500.87 601.98 452.53 602.27 431.56 602.89C417.57 603.31 398.27 609.99 373.64 622.93L516.52 638.3Z" id="a4ifZU8lme"></path><path d="M269.62 648.1L533.15 680.05L521.56 645.15C476.11 630.84 440.08 622.7 413.46 620.74C386.84 618.77 360.78 620.73 335.29 626.63L269.62 648.1Z" id="b2tet5xvT8"></path><path d="M736.15 642.68L772.26 613.97C736.46 602.19 688.61 597.78 628.73 600.72C568.85 603.67 505.88 619.37 439.82 647.83L736.15 642.68Z" id="a1UPRXrfCy"></path><path d="M543.13 657.09C406.12 649.24 355.41 643.35 391.01 639.43C444.41 633.54 532.66 630.02 558.24 626.75C583.82 623.48 616.52 612.93 660.56 613.67C689.92 614.16 709.78 623.72 720.14 642.37L543.13 657.09Z" id="a5rgowpzzs"></path><path d="M38.07 501.75L39.49 502.19L40.79 502.79L41.94 503.52L42.93 504.37L43.74 505.33L44.34 506.37L44.71 507.5L44.75 507.87L44.84 507.86L46.34 507.98L47.72 508.33L48.94 508.86L49.95 509.57L50.73 510.42L51.22 511.38L51.39 512.43L51.28 513.12L52.05 513.07L53.79 513.18L55.36 513.49L56.68 513.98L57.71 514.61L58.37 515.36L58.6 516.19L58.37 517.02L57.71 517.77L56.68 518.4L55.36 518.89L53.79 519.2L52.05 519.32L50.31 519.2L48.74 518.89L48.32 518.73L47.25 519.05L45.87 519.36L44.3 519.62L42.57 519.83L40.71 519.99L38.73 520.09L36.65 520.12L34.58 520.09L32.6 519.99L30.74 519.83L29.01 519.62L28.83 519.59L28.22 519.86L26.84 520.21L25.34 520.33L23.83 520.21L22.45 519.86L21.24 519.32L20.22 518.62L19.45 517.77L18.95 516.8L18.78 515.76L18.95 514.71L19.45 513.75L20.22 512.9L21.24 512.19L22.45 511.65L23.83 511.31L25.34 511.19L25.69 511.22L25.56 510.99L25.19 509.87L25.06 508.68L25.19 507.5L25.56 506.37L26.16 505.33L26.97 504.37L27.96 503.52L29.11 502.79L30.41 502.19L31.82 501.75L33.35 501.47L34.95 501.38L36.55 501.47L38.07 501.75Z" id="acmhyNZfHV"></path><path d="M238.93 482.8L240.34 483.24L241.64 483.84L242.79 484.57L243.78 485.42L244.59 486.38L245.19 487.42L245.56 488.55L245.6 488.92L245.69 488.91L247.19 489.03L248.57 489.37L249.79 489.91L250.8 490.62L251.58 491.47L252.07 492.43L252.25 493.48L252.13 494.17L252.9 494.12L254.64 494.23L256.21 494.54L257.53 495.03L258.56 495.66L259.22 496.41L259.45 497.24L259.22 498.07L258.56 498.82L257.53 499.45L256.21 499.94L254.64 500.25L252.9 500.36L251.16 500.25L249.59 499.94L249.17 499.78L248.1 500.1L246.72 500.41L245.15 500.67L243.42 500.88L241.56 501.04L239.58 501.14L237.51 501.17L235.43 501.14L233.45 501.04L231.59 500.88L229.86 500.67L229.68 500.64L229.07 500.91L227.69 501.26L226.19 501.38L224.68 501.26L223.3 500.91L222.09 500.37L221.07 499.66L220.3 498.82L219.81 497.85L219.63 496.81L219.81 495.76L220.3 494.8L221.07 493.95L222.09 493.24L223.3 492.7L224.68 492.36L226.19 492.24L226.54 492.27L226.41 492.04L226.04 490.92L225.91 489.73L226.04 488.55L226.41 487.42L227.01 486.38L227.82 485.42L228.81 484.57L229.96 483.84L231.26 483.24L232.68 482.8L234.2 482.52L235.8 482.43L237.4 482.52L238.93 482.8Z" id="gXVMufbcZ"></path><path d="M71.52 387.56L72.9 387.89L74.21 388.33L75.44 388.89L76.59 389.54L77.63 390.29L78.57 391.13L79.39 392.05L80.08 393.04L80.64 394.09L81.04 395.19L81.3 396.35L81.3 396.4L81.38 396.39L82.91 396.49L84.34 396.79L85.66 397.27L86.84 397.9L87.87 398.67L88.7 399.57L89.33 400.57L89.73 401.65L89.86 402.81L89.75 403.75L90.71 403.7L92.42 403.79L94.01 404.05L95.45 404.45L96.71 404.99L97.74 405.64L98.52 406.38L99.02 407.2L99.19 408.09L99.02 408.97L98.52 409.8L97.74 410.54L96.71 411.19L95.45 411.73L94.01 412.13L92.42 412.39L90.71 412.48L89 412.39L87.41 412.13L85.97 411.73L85.84 411.67L85.45 411.81L84.28 412.16L82.96 412.48L81.52 412.76L79.96 413.01L78.29 413.22L76.53 413.39L74.69 413.51L72.77 413.59L70.79 413.61L68.81 413.59L66.9 413.51L65.05 413.39L63.29 413.22L61.62 413.01L60.71 412.87L60.42 413.02L59.1 413.49L57.67 413.79L56.15 413.9L54.62 413.79L53.19 413.49L51.87 413.02L50.68 412.39L49.66 411.61L48.82 410.72L48.2 409.72L47.8 408.63L47.67 407.48L47.8 406.33L48.2 405.24L48.82 404.24L49.66 403.35L50.68 402.57L51.87 401.94L53.19 401.47L54.62 401.17L56.15 401.06L56.58 401.09L56.53 401L56.13 399.9L55.87 398.74L55.79 397.55L55.87 396.35L56.13 395.19L56.53 394.09L57.09 393.04L57.78 392.05L58.6 391.13L59.54 390.29L60.58 389.54L61.73 388.89L62.96 388.33L64.27 387.89L65.65 387.56L67.09 387.36L68.59 387.29L70.08 387.36L71.52 387.56Z" id="aCHhF49z"></path><path d="M418.86 385.18L420.37 385.47L421.81 385.86L423.18 386.35L424.46 386.93L425.65 387.59L426.73 388.33L427.69 389.15L428.53 390.03L429.24 390.97L429.81 391.96L430.23 393.01L430.48 394.09L430.57 395.21L430.48 396.32L430.23 397.4L429.81 398.45L429.64 398.75L430.15 398.72L431.75 398.81L433.27 399.05L434.69 399.44L435.99 399.96L437.14 400.6L438.13 401.35L438.93 402.19L439.53 403.11L439.9 404.1L440.03 405.14L439.9 406.18L439.53 407.17L438.93 408.09L438.13 408.93L437.14 409.68L435.99 410.32L434.69 410.84L433.27 411.23L431.75 411.47L430.15 411.56L428.55 411.47L427.03 411.23L425.61 410.84L424.84 410.53L424.32 410.6L422.64 410.8L420.88 410.96L419.03 411.1L417.11 411.19L415.13 411.25L413.09 411.27L411.05 411.25L409.07 411.19L407.15 411.1L405.3 410.96L403.53 410.8L401.86 410.6L400.28 410.38L398.81 410.12L397.46 409.84L396.23 409.54L395.53 409.33L394.86 409.54L393.33 409.86L391.65 410.06L389.88 410.14L388.1 410.06L386.43 409.86L384.89 409.54L383.51 409.1L382.32 408.57L381.35 407.96L380.62 407.28L380.16 406.54L380 405.75L380.16 404.96L380.62 404.22L381.35 403.53L382.32 402.92L383.51 402.39L384.89 401.96L386.43 401.64L388.1 401.43L389.88 401.36L390.98 401.41L390.87 400.47L391 399.43L391.37 398.44L391.97 397.52L392.77 396.68L393.76 395.93L394.91 395.29L396.21 394.77L397.63 394.38L399.15 394.13L400.75 394.05L400.84 394.06L401.09 393.01L401.51 391.96L402.08 390.97L402.78 390.03L403.63 389.15L404.59 388.33L405.67 387.59L406.85 386.93L408.14 386.35L409.5 385.86L410.95 385.47L412.46 385.18L414.03 385.01L415.66 384.95L417.28 385.01L418.86 385.18Z" id="aadtDfsH3"></path><path d="M189.92 293.83L191.06 294.35L192.12 295.04L193.08 295.91L193.93 296.92L194.66 298.07L195.25 299.33L195.68 300.69L195.96 302.13L196.05 303.65L195.96 305.16L195.68 306.61L195.49 307.21L195.81 307.17L197.12 307.34L198.32 307.82L199.38 308.58L200.26 309.57L200.94 310.76L201.37 312.11L201.52 313.58L201.37 315.05L200.94 316.4L200.26 317.6L199.38 318.59L198.32 319.35L197.12 319.83L195.81 320L194.5 319.83L193.3 319.35L192.76 318.97L192.61 319.01L191.1 319.31L189.48 319.53L187.75 319.67L185.94 319.71L184.14 319.67L182.41 319.53L180.79 319.31L179.28 319.01L177.92 318.64L176.71 318.21L175.78 317.76L175.41 317.98L174.05 318.42L172.53 318.58L171.01 318.42L169.65 317.98L168.49 317.29L167.6 316.41L167.02 315.36L166.82 314.19L167.02 313.03L167.6 311.98L168.49 311.09L169.65 310.4L171.01 309.96L172.53 309.8L173.2 309.87L173.1 308.91L173.25 307.44L173.68 306.09L174.36 304.9L175.24 303.91L176.3 303.15L177.5 302.66L178.81 302.49L178.88 302.5L178.9 302.13L179.18 300.69L179.61 299.33L180.2 298.07L180.93 296.92L181.78 295.91L182.74 295.04L183.8 294.35L184.94 293.83L186.16 293.5L187.43 293.39L188.7 293.5L189.92 293.83Z" id="b13c30Cmwe"></path><path d="M439.29 378.8L440.24 379.43L441.11 380.26L441.88 381.29L442.54 382.48L443.08 383.83L443.49 385.3L443.74 386.88L443.82 388.54L443.74 390.2L443.49 391.78L443.4 392.1L443.64 392.06L444.81 392.29L445.86 392.93L446.75 393.94L447.43 395.24L447.88 396.77L448.03 398.47L447.88 400.18L447.43 401.71L446.75 403.01L445.86 404.01L444.81 404.66L443.64 404.89L442.47 404.66L441.42 404.01L441.29 403.86L439.71 404.26L437.95 404.51L436.05 404.6L434.15 404.51L432.39 404.26L430.79 403.85L429.39 403.32L428.24 402.67L428.24 402.67L427.11 403.24L425.73 403.47L424.34 403.24L423.13 402.62L422.18 401.67L421.56 400.47L421.33 399.08L421.56 397.7L422.18 396.49L423.13 395.54L424.34 394.92L425.73 394.69L426.26 394.78L426.17 393.8L426.32 392.1L426.77 390.56L427.45 389.26L428.34 388.26L429.39 387.61L430.56 387.38L430.62 387.4L430.65 386.88L430.9 385.3L431.3 383.83L431.84 382.48L432.5 381.29L433.28 380.26L434.15 379.43L435.1 378.8L436.12 378.41L437.19 378.28L438.27 378.41L439.29 378.8Z" id="l1CTl0wDcv"></path><path d="M532.05 347.58L533.56 347.87L535.01 348.26L536.37 348.75L537.65 349.32L538.84 349.99L539.92 350.73L540.88 351.55L541.72 352.43L542.43 353.37L543 354.36L543.42 355.4L543.67 356.49L543.76 357.6L543.67 358.72L543.42 359.8L543 360.84L542.83 361.15L543.34 361.12L544.95 361.2L546.47 361.45L547.88 361.84L549.18 362.36L550.33 363L551.32 363.75L552.12 364.59L552.72 365.51L553.1 366.5L553.22 367.54L553.1 368.58L552.72 369.56L552.12 370.48L551.32 371.33L550.33 372.07L549.18 372.71L547.88 373.24L546.47 373.63L544.95 373.87L543.34 373.95L541.74 373.87L540.22 373.63L538.81 373.24L538.03 372.93L537.51 373L535.83 373.2L534.07 373.36L532.22 373.49L530.3 373.59L528.32 373.65L526.28 373.67L524.24 373.65L522.26 373.59L520.34 373.49L518.49 373.36L516.73 373.2L515.05 373L513.47 372.77L512 372.52L510.65 372.24L509.43 371.93L508.72 371.72L508.06 371.93L506.52 372.26L504.85 372.46L503.07 372.53L501.3 372.46L499.62 372.26L498.09 371.93L496.71 371.5L495.51 370.97L494.54 370.36L493.81 369.68L493.35 368.93L493.19 368.15L493.35 367.36L493.81 366.61L494.54 365.93L495.51 365.32L496.71 364.79L498.09 364.36L499.62 364.03L501.3 363.83L503.07 363.76L504.18 363.8L504.06 362.86L504.19 361.82L504.56 360.84L505.16 359.92L505.97 359.08L506.95 358.33L508.11 357.69L509.4 357.16L510.82 356.78L512.34 356.53L513.94 356.45L514.03 356.45L514.28 355.4L514.7 354.36L515.27 353.37L515.98 352.43L516.82 351.55L517.78 350.73L518.86 349.99L520.05 349.32L521.33 348.75L522.69 348.26L524.14 347.87L525.65 347.58L527.23 347.4L528.85 347.34L530.47 347.4L532.05 347.58Z" id="a1wpzfCNSF"></path><path d="M550.78 340.91L552.29 341.2L553.74 341.59L555.11 342.08L556.39 342.66L557.57 343.32L558.65 344.06L559.61 344.88L560.46 345.76L561.17 346.7L561.73 347.69L562.15 348.74L562.4 349.79L562.49 349.78L564.1 349.87L565.62 350.11L567.03 350.5L568.33 351.02L569.48 351.66L570.47 352.41L571.27 353.25L571.87 354.17L572.24 355.16L572.37 356.2L572.26 357.14L573.36 357.09L575.14 357.16L576.81 357.37L578.35 357.69L579.73 358.12L580.92 358.65L581.89 359.26L582.62 359.95L583.08 360.69L583.24 361.48L583.08 362.27L582.62 363.01L581.89 363.69L580.92 364.3L579.73 364.83L578.35 365.27L576.81 365.59L575.14 365.8L573.36 365.87L571.59 365.8L569.92 365.59L568.38 365.27L567.71 365.06L567.01 365.27L565.78 365.57L564.43 365.85L562.96 366.11L561.38 366.33L559.71 366.53L557.94 366.69L556.09 366.83L554.17 366.92L552.19 366.98L550.15 367L548.11 366.98L546.13 366.92L544.21 366.83L542.36 366.69L540.6 366.53L538.92 366.33L538.4 366.26L537.63 366.57L536.21 366.96L534.69 367.2L533.09 367.29L531.49 367.2L529.97 366.96L528.55 366.57L527.25 366.05L526.1 365.41L525.11 364.66L524.31 363.82L523.71 362.9L523.34 361.91L523.21 360.87L523.34 359.83L523.71 358.84L524.31 357.92L525.11 357.08L526.1 356.33L527.25 355.69L528.55 355.17L529.97 354.78L531.49 354.54L533.09 354.45L533.61 354.48L533.43 354.18L533.02 353.14L532.76 352.05L532.67 350.94L532.76 349.82L533.02 348.74L533.43 347.69L534 346.7L534.71 345.76L535.55 344.88L536.51 344.06L537.59 343.32L538.78 342.66L540.06 342.08L541.43 341.59L542.87 341.2L544.39 340.91L545.96 340.74L547.58 340.68L549.21 340.74L550.78 340.91Z" id="gEmcSYDIH"></path><path d="M613.46 515.39L614.74 515.82L615.91 516.41L616.96 517.13L617.85 517.96L618.58 518.9L619.12 519.93L619.46 521.03L619.5 521.4L619.58 521.39L621.16 521.55L622.57 522L623.77 522.7L624.7 523.61L625.3 524.68L625.51 525.88L625.39 526.56L626.1 526.5L627.98 526.66L629.6 527.09L630.89 527.76L631.73 528.6L632.03 529.57L631.73 530.54L630.89 531.38L629.6 532.05L627.98 532.48L626.1 532.64L624.23 532.48L622.7 532.07L622.43 532.18L621.16 532.53L619.67 532.84L618.01 533.09L616.19 533.28L614.23 533.39L612.17 533.43L610.11 533.39L608.16 533.28L606.33 533.09L605.11 532.91L604.92 533.02L603.5 533.47L601.93 533.63L600.35 533.47L598.94 533.02L597.74 532.32L596.81 531.41L596.21 530.34L596 529.14L596.21 527.95L596.81 526.88L597.74 525.97L598.94 525.27L600.35 524.82L601.93 524.66L602.26 524.69L602.14 524.46L601.8 523.36L601.68 522.2L601.8 521.03L602.14 519.93L602.68 518.9L603.41 517.96L604.3 517.13L605.34 516.41L606.52 515.82L607.8 515.39L609.18 515.12L610.63 515.02L612.08 515.12L613.46 515.39Z" id="a4ItU47yA"></path><path d="M168.25 297.4L169.39 297.94L170.43 298.66L171.36 299.55L172.16 300.59L172.8 301.75L173.29 303.03L173.59 304.39L173.62 304.84L173.69 304.83L175.09 305.03L176.35 305.59L177.42 306.46L178.24 307.59L178.78 308.92L178.96 310.39L178.86 311.24L179.49 311.17L181.16 311.36L182.6 311.9L183.75 312.72L184.49 313.77L184.76 314.97L184.49 316.17L183.75 317.21L182.6 318.04L181.16 318.58L179.49 318.77L177.83 318.58L176.46 318.07L176.22 318.2L175.09 318.64L173.78 319.02L172.3 319.33L170.68 319.56L168.94 319.7L167.11 319.75L165.28 319.7L163.54 319.56L161.92 319.33L160.83 319.1L160.66 319.24L159.4 319.8L158 320L156.6 319.8L155.34 319.24L154.27 318.37L153.45 317.25L152.92 315.92L152.73 314.44L152.92 312.96L153.45 311.64L154.27 310.51L155.34 309.64L156.6 309.08L158 308.88L158.29 308.92L158.18 308.64L157.88 307.27L157.78 305.83L157.88 304.39L158.18 303.03L158.67 301.75L159.31 300.59L160.11 299.55L161.04 298.66L162.08 297.94L163.22 297.4L164.45 297.06L165.74 296.95L167.03 297.06L168.25 297.4Z" id="b17Vq43xW8"></path><path d="M376.11 534.15L377.34 534.76L378.37 535.55L379.15 536.51L379.65 537.59L379.82 538.76L379.65 539.94L379.36 540.56L379.64 540.52L381.35 540.77L382.75 541.46L383.69 542.48L384.03 543.73L383.69 544.98L382.75 546L381.35 546.68L379.64 546.94L377.93 546.68L377.37 546.41L377.31 546.42L375.71 546.62L373.95 546.75L372.05 546.79L370.15 546.75L368.39 546.62L366.79 546.42L365.39 546.15L364.24 545.83L364.19 545.8L363.44 546.05L361.73 546.23L360.02 546.05L358.62 545.58L357.68 544.89L357.33 544.03L357.68 543.18L358.62 542.48L360.02 542.01L361.73 541.84L362.31 541.9L362.17 541.39L362.51 540.14L363.45 539.12L364.85 538.44L366.56 538.18L366.64 538.2L366.74 537.59L367.23 536.51L368.02 535.55L369.05 534.76L370.28 534.15L371.67 533.77L373.19 533.63L374.71 533.77L376.11 534.15Z" id="a1Gp3fy97Y"></path><path d="M474.61 496.78L475.9 497.22L477.07 497.8L478.11 498.52L479.01 499.35L479.74 500.29L480.28 501.32L480.62 502.43L480.66 502.79L480.74 502.78L482.31 502.94L483.73 503.39L484.93 504.1L485.86 505L486.45 506.08L486.67 507.27L486.55 507.95L487.26 507.89L489.13 508.05L490.76 508.49L492.05 509.15L492.89 509.99L493.19 510.96L492.89 511.93L492.05 512.77L490.76 513.44L489.13 513.87L487.26 514.03L485.39 513.87L483.85 513.46L483.58 513.57L482.31 513.92L480.83 514.23L479.17 514.48L477.34 514.67L475.39 514.78L473.33 514.82L471.27 514.78L469.31 514.67L467.49 514.48L466.27 514.3L466.08 514.41L464.66 514.86L463.09 515.02L461.51 514.86L460.09 514.41L458.89 513.71L457.97 512.8L457.37 511.73L457.15 510.54L457.37 509.34L457.97 508.27L458.89 507.36L460.09 506.66L461.51 506.21L463.09 506.05L463.41 506.08L463.29 505.85L462.95 504.75L462.84 503.59L462.95 502.43L463.29 501.32L463.83 500.29L464.56 499.35L465.46 498.52L466.5 497.8L467.67 497.22L468.96 496.78L470.33 496.51L471.79 496.41L473.24 496.51L474.61 496.78Z" id="g1YghPWbCF"></path><path d="M673.46 575.39L674.74 575.82L675.91 576.41L676.96 577.13L677.85 577.96L678.58 578.9L679.12 579.93L679.46 581.03L679.5 581.4L679.58 581.39L681.16 581.55L682.57 582L683.77 582.7L684.7 583.61L685.3 584.68L685.51 585.88L685.39 586.56L686.1 586.5L687.98 586.66L689.6 587.09L690.89 587.76L691.73 588.6L692.03 589.57L691.73 590.54L690.89 591.38L689.6 592.05L687.98 592.48L686.1 592.64L684.23 592.48L682.7 592.07L682.43 592.18L681.16 592.53L679.67 592.84L678.01 593.09L676.19 593.28L674.23 593.39L672.17 593.43L670.11 593.39L668.16 593.28L666.33 593.09L665.11 592.91L664.92 593.02L663.5 593.47L661.93 593.63L660.35 593.47L658.94 593.02L657.74 592.32L656.81 591.41L656.21 590.34L656 589.14L656.21 587.95L656.81 586.88L657.74 585.97L658.94 585.27L660.35 584.82L661.93 584.66L662.26 584.69L662.14 584.46L661.8 583.36L661.68 582.2L661.8 581.03L662.14 579.93L662.68 578.9L663.41 577.96L664.3 577.13L665.34 576.41L666.52 575.82L667.8 575.39L669.18 575.12L670.63 575.02L672.08 575.12L673.46 575.39Z" id="cKnPPVW2v"></path><path d="M166.57 -549.69L171.56 -549.25L176.49 -548.64L181.36 -547.86L186.15 -546.92L190.88 -545.82L195.52 -544.56L200.09 -543.15L204.57 -541.59L208.97 -539.89L213.27 -538.04L217.48 -536.05L221.59 -533.93L225.59 -531.68L229.49 -529.29L233.27 -526.79L236.94 -524.16L240.48 -521.41L243.91 -518.55L247.2 -515.57L250.36 -512.49L253.39 -509.31L256.28 -506.02L259.02 -502.63L261.61 -499.16L264.06 -495.59L266.34 -491.93L268.47 -488.19L270.43 -484.38L272.23 -480.48L273.85 -476.51L275.3 -472.47L276.56 -468.37L277.65 -464.2L278.54 -459.98L279.25 -455.69L279.75 -451.36L280.06 -446.98L280.16 -442.55L280.06 -438.12L279.75 -433.74L279.25 -429.4L278.54 -425.12L277.65 -420.89L276.56 -416.73L275.3 -412.62L273.85 -408.59L272.63 -405.59L273.32 -405.62L276.7 -405.68L280.08 -405.62L283.42 -405.46L286.73 -405.18L289.99 -404.8L293.22 -404.31L296.39 -403.72L299.52 -403.04L302.6 -402.25L305.63 -401.37L308.6 -400.39L311.51 -399.33L314.37 -398.17L317.15 -396.93L319.87 -395.6L322.53 -394.19L325.11 -392.7L327.62 -391.13L330.05 -389.49L332.4 -387.77L334.66 -385.98L336.85 -384.12L338.94 -382.19L340.95 -380.2L342.86 -378.14L344.68 -376.02L346.4 -373.85L348.02 -371.62L349.53 -369.33L350.94 -366.99L352.24 -364.6L353.43 -362.16L354.51 -359.68L355.46 -357.16L356.3 -354.59L357.02 -351.98L357.61 -349.34L358.08 -346.66L358.42 -343.95L358.62 -341.21L358.69 -338.44L358.62 -335.67L358.42 -332.93L358.08 -330.22L357.61 -327.54L357.02 -324.89L356.3 -322.29L355.46 -319.72L354.51 -317.19L353.43 -314.71L352.24 -312.28L350.94 -309.89L349.53 -307.55L348.02 -305.26L346.4 -303.03L344.68 -300.85L342.86 -298.74L340.95 -296.68L338.94 -294.69L336.85 -292.76L334.66 -290.9L332.4 -289.11L330.05 -287.39L327.62 -285.75L325.11 -284.18L322.53 -282.69L319.87 -281.28L317.15 -279.95L314.37 -278.71L311.51 -277.55L308.6 -276.48L305.63 -275.51L302.6 -274.63L299.52 -273.84L296.39 -273.15L293.22 -272.56L289.99 -272.08L286.73 -271.7L283.42 -271.42L280.08 -271.25L276.7 -271.2L273.32 -271.25L269.98 -271.42L266.68 -271.7L263.41 -272.08L260.19 -272.56L257.01 -273.15L253.88 -273.84L250.8 -274.63L247.77 -275.51L244.8 -276.48L241.89 -277.55L239.04 -278.71L236.25 -279.95L233.53 -281.28L232.38 -281.89L227.61 -281.08L221.78 -280.17L215.8 -279.32L209.69 -278.53L203.45 -277.8L197.09 -277.13L190.6 -276.53L184.01 -275.99L177.3 -275.52L170.49 -275.12L163.58 -274.79L156.59 -274.53L149.5 -274.34L142.34 -274.22L135.11 -274.19L127.87 -274.22L120.71 -274.34L113.62 -274.53L106.63 -274.79L99.72 -275.12L92.91 -275.52L86.21 -275.99L79.61 -276.53L73.12 -277.13L66.76 -277.8L60.52 -278.53L54.41 -279.32L48.43 -280.17L42.6 -281.08L36.92 -282.04L31.39 -283.06L26.02 -284.13L20.81 -285.26L15.77 -286.43L10.92 -287.66L6.24 -288.93L1.75 -290.25L-2.55 -291.61L-6.65 -293.02L-10.43 -294.42L-11.65 -293.94L-14.31 -292.98L-17.03 -292.07L-19.82 -291.22L-22.67 -290.43L-25.58 -289.7L-28.55 -289.03L-31.58 -288.43L-34.66 -287.89L-37.79 -287.42L-40.97 -287.02L-44.19 -286.69L-47.45 -286.43L-50.76 -286.24L-54.1 -286.12L-57.48 -286.09L-60.86 -286.12L-64.2 -286.24L-67.51 -286.43L-70.77 -286.69L-73.99 -287.02L-77.17 -287.42L-80.3 -287.89L-83.38 -288.43L-86.41 -289.03L-89.38 -289.7L-92.29 -290.43L-95.14 -291.22L-97.93 -292.07L-100.65 -292.98L-103.31 -293.94L-105.89 -294.96L-108.39 -296.03L-110.82 -297.16L-113.17 -298.33L-115.44 -299.56L-117.63 -300.83L-119.72 -302.15L-121.73 -303.51L-123.64 -304.92L-125.46 -306.36L-127.18 -307.85L-128.8 -309.38L-130.31 -310.94L-131.72 -312.54L-133.02 -314.17L-134.21 -315.84L-135.28 -317.54L-136.24 -319.26L-137.08 -321.02L-137.8 -322.8L-138.39 -324.61L-138.86 -326.44L-139.2 -328.29L-139.4 -330.17L-139.47 -332.06L-139.4 -333.96L-139.2 -335.83L-138.86 -337.68L-138.39 -339.52L-137.8 -341.32L-137.08 -343.11L-136.24 -344.86L-135.28 -346.59L-134.21 -348.29L-133.02 -349.95L-131.72 -351.59L-130.31 -353.18L-128.8 -354.75L-127.18 -356.27L-125.46 -357.76L-123.64 -359.21L-121.73 -360.61L-119.72 -361.98L-117.63 -363.3L-115.44 -364.57L-113.17 -365.79L-110.82 -366.97L-108.39 -368.09L-105.89 -369.16L-103.31 -370.18L-100.65 -371.15L-97.93 -372.05L-95.14 -372.9L-92.29 -373.69L-89.38 -374.42L-86.41 -375.09L-83.38 -375.69L-80.3 -376.23L-77.17 -376.7L-73.99 -377.1L-70.77 -377.44L-67.51 -377.7L-64.2 -377.89L-60.86 -378L-57.48 -378.04L-54.1 -378L-50.76 -377.89L-48.43 -377.75L-48.68 -379.18L-49.01 -381.89L-49.22 -384.63L-49.29 -387.4L-49.22 -390.17L-49.01 -392.92L-48.68 -395.63L-48.21 -398.3L-47.62 -400.95L-46.9 -403.55L-46.06 -406.12L-45.1 -408.65L-44.03 -411.13L-42.84 -413.57L-41.54 -415.96L-40.13 -418.29L-38.61 -420.58L-36.99 -422.81L-35.27 -424.99L-33.46 -427.11L-31.54 -429.16L-29.54 -431.15L-27.44 -433.08L-25.26 -434.94L-22.99 -436.73L-20.64 -438.45L-18.21 -440.1L-15.71 -441.66L-13.12 -443.15L-10.47 -444.57L-7.75 -445.89L-4.96 -447.14L-2.11 -448.29L0.8 -449.36L3.77 -450.33L6.8 -451.21L9.88 -452L13.01 -452.69L16.19 -453.28L19.41 -453.76L22.68 -454.15L25.98 -454.42L29.32 -454.59L32.7 -454.65L33.49 -454.63L33.62 -455.69L34.32 -459.98L35.22 -464.2L36.3 -468.37L37.57 -472.47L39.01 -476.51L40.64 -480.48L42.43 -484.38L44.39 -488.19L46.52 -491.93L48.81 -495.59L51.25 -499.16L53.85 -502.63L56.59 -506.02L59.47 -509.31L62.5 -512.49L65.66 -515.57L68.96 -518.55L72.38 -521.41L75.93 -524.16L79.6 -526.79L83.38 -529.29L87.27 -531.68L91.28 -533.93L95.38 -536.05L99.59 -538.04L103.89 -539.89L108.29 -541.59L112.77 -543.15L117.34 -544.56L121.99 -545.82L126.71 -546.92L131.51 -547.86L136.37 -548.64L141.3 -549.25L146.29 -549.69L151.34 -549.96L156.43 -550.05L161.53 -549.96L166.57 -549.69Z" id="b2nAcwCkF"></path><path d="M600.97 339.88L602.39 340.32L603.69 340.91L604.84 341.65L605.83 342.5L606.63 343.45L607.23 344.5L607.61 345.63L607.74 346.81L607.61 347.99L607.23 349.12L607.11 349.34L607.46 349.32L608.96 349.44L610.34 349.78L611.56 350.32L612.58 351.03L613.35 351.88L613.84 352.84L614.02 353.89L613.84 354.93L613.35 355.89L612.58 356.74L611.56 357.45L610.34 357.99L608.96 358.33L607.46 358.46L605.96 358.33L604.58 357.99L603.97 357.72L603.79 357.75L602.06 357.96L600.2 358.12L598.22 358.22L596.14 358.25L594.07 358.22L592.09 358.12L590.23 357.96L588.5 357.75L586.93 357.49L585.55 357.18L584.48 356.86L584.05 357.02L582.49 357.33L580.75 357.44L579.01 357.33L577.44 357.02L576.11 356.53L575.09 355.9L574.43 355.15L574.19 354.32L574.43 353.49L575.09 352.74L576.11 352.11L577.44 351.62L579.01 351.31L580.75 351.19L581.52 351.24L581.4 350.56L581.58 349.51L582.07 348.55L582.84 347.7L583.86 346.99L585.08 346.45L586.45 346.11L587.96 345.99L588.05 346L588.09 345.63L588.46 344.5L589.06 343.45L589.87 342.5L590.86 341.65L592.01 340.91L593.3 340.32L594.72 339.88L596.24 339.6L597.85 339.5L599.45 339.6L600.97 339.88Z" id="b1i7yXNzE0"></path><path d="M400.12 320.93L401.54 321.37L402.84 321.96L403.99 322.69L404.98 323.55L405.78 324.5L406.38 325.55L406.76 326.68L406.89 327.86L406.76 329.04L406.38 330.17L406.25 330.39L406.61 330.37L408.11 330.49L409.49 330.83L410.71 331.37L411.72 332.08L412.5 332.93L412.99 333.89L413.16 334.93L412.99 335.98L412.5 336.94L411.72 337.79L410.71 338.5L409.49 339.04L408.11 339.38L406.61 339.5L405.11 339.38L403.73 339.04L403.12 338.77L402.94 338.8L401.21 339.01L399.35 339.17L397.37 339.27L395.29 339.3L393.22 339.27L391.24 339.17L389.37 339.01L387.65 338.8L386.08 338.53L384.7 338.23L383.63 337.91L383.2 338.07L381.64 338.38L379.9 338.49L378.16 338.38L376.59 338.07L375.26 337.58L374.24 336.94L373.58 336.2L373.34 335.37L373.58 334.54L374.24 333.79L375.26 333.16L376.59 332.67L378.16 332.36L379.9 332.24L380.67 332.29L380.55 331.61L380.72 330.56L381.22 329.6L381.99 328.75L383.01 328.04L384.22 327.5L385.6 327.16L387.11 327.04L387.2 327.05L387.24 326.68L387.61 325.55L388.21 324.5L389.02 323.55L390 322.69L391.16 321.96L392.45 321.37L393.87 320.93L395.39 320.65L397 320.55L398.6 320.65L400.12 320.93Z" id="b4QHJOQhOF"></path><path d="M567.14 225.69L568.53 226.01L569.84 226.46L571.07 227.01L572.21 227.67L573.26 228.42L574.2 229.26L575.02 230.18L575.71 231.16L576.26 232.22L576.67 233.32L576.92 234.48L577.01 235.67L576.92 236.87L576.67 238.02L576.26 239.13L576.22 239.22L576.65 239.19L578.17 239.29L579.61 239.59L580.93 240.07L582.11 240.7L583.14 241.47L583.97 242.37L584.6 243.37L584.99 244.45L585.13 245.61L584.99 246.76L584.6 247.85L583.97 248.85L583.14 249.74L582.11 250.51L580.93 251.15L579.61 251.62L578.17 251.92L576.65 252.02L575.13 251.92L573.69 251.62L572.37 251.15L572.09 251L571.17 251.14L569.51 251.35L567.75 251.52L565.9 251.64L563.98 251.71L562.01 251.74L560.03 251.71L558.11 251.64L556.27 251.52L554.5 251.35L552.84 251.14L551.28 250.89L549.84 250.61L548.52 250.29L547.34 249.94L546.96 249.8L546.83 249.85L545.39 250.26L543.8 250.51L542.09 250.6L540.38 250.51L538.79 250.26L537.35 249.85L536.09 249.32L535.06 248.67L534.27 247.92L533.78 247.1L533.61 246.22L533.78 245.33L534.27 244.51L535.06 243.76L536.09 243.11L537.35 242.58L538.79 242.17L540.38 241.92L542.09 241.83L543.05 241.88L542.93 240.94L543.07 239.78L543.47 238.7L544.09 237.7L544.93 236.8L545.95 236.03L547.14 235.4L548.46 234.92L549.89 234.62L551.41 234.52L551.5 234.52L551.5 234.48L551.75 233.32L552.16 232.22L552.72 231.16L553.41 230.18L554.23 229.26L555.16 228.42L556.21 227.67L557.35 227.01L558.59 226.46L559.9 226.01L561.28 225.69L562.72 225.48L564.21 225.42L565.7 225.48L567.14 225.69Z" id="h7hTJ7Irz"></path><path d="M220.34 223.31L221.85 223.6L223.29 223.99L224.66 224.48L225.94 225.06L227.13 225.72L228.21 226.46L229.17 227.28L230.01 228.16L230.72 229.1L231.29 230.09L231.71 231.13L231.96 232.18L232.05 232.18L233.65 232.26L235.17 232.51L236.59 232.9L237.88 233.42L239.04 234.06L240.02 234.81L240.83 235.65L241.43 236.57L241.8 237.55L241.93 238.59L241.81 239.53L242.92 239.49L244.69 239.56L246.36 239.76L247.9 240.09L249.28 240.52L250.47 241.05L251.45 241.66L252.18 242.35L252.64 243.09L252.8 243.88L252.64 244.66L252.18 245.41L251.45 246.09L250.47 246.7L249.28 247.23L247.9 247.66L246.36 247.99L244.69 248.19L242.92 248.26L241.14 248.19L239.47 247.99L237.93 247.66L237.27 247.45L236.56 247.67L235.34 247.97L233.98 248.25L232.52 248.5L230.94 248.73L229.26 248.93L227.5 249.09L225.65 249.22L223.73 249.32L221.75 249.38L219.71 249.4L217.67 249.38L215.69 249.32L213.77 249.22L211.92 249.09L210.15 248.93L208.48 248.73L207.96 248.66L207.18 248.97L205.77 249.36L204.25 249.6L202.64 249.68L201.04 249.6L199.52 249.36L198.11 248.97L196.81 248.44L195.66 247.8L194.67 247.06L193.87 246.21L193.27 245.29L192.89 244.31L192.76 243.27L192.89 242.23L193.27 241.24L193.87 240.32L194.67 239.48L195.66 238.73L196.81 238.09L198.11 237.57L199.52 237.18L201.04 236.93L202.64 236.85L203.16 236.88L202.99 236.57L202.57 235.53L202.31 234.45L202.23 233.33L202.31 232.22L202.57 231.13L202.99 230.09L203.56 229.1L204.26 228.16L205.11 227.28L206.07 226.46L207.15 225.72L208.33 225.06L209.61 224.48L210.98 223.99L212.43 223.6L213.94 223.31L215.51 223.14L217.14 223.07L218.76 223.14L220.34 223.31Z" id="a3idRUSXPF"></path><path d="M447.86 131.95L449 132.47L450.06 133.17L451.02 134.04L451.87 135.05L452.6 136.19L453.18 137.45L453.62 138.82L453.89 140.26L453.92 140.63L453.99 140.62L455.3 140.79L456.5 141.28L457.56 142.03L458.44 143.03L459.12 144.22L459.55 145.57L459.7 147.04L459.6 148L460.27 147.93L461.79 148.09L463.15 148.53L464.31 149.22L465.2 150.11L465.78 151.15L465.98 152.32L465.78 153.49L465.2 154.53L464.31 155.42L463.15 156.11L461.79 156.55L460.27 156.71L458.75 156.55L457.39 156.11L457.02 155.89L456.09 156.33L454.88 156.77L453.51 157.14L452.01 157.43L450.39 157.66L448.66 157.79L446.85 157.84L445.05 157.79L443.32 157.66L441.7 157.43L440.19 157.14L440.04 157.09L439.5 157.48L438.3 157.96L436.99 158.13L435.68 157.96L434.48 157.48L433.42 156.72L432.53 155.72L431.86 154.53L431.43 153.18L431.28 151.71L431.43 150.24L431.86 148.89L432.53 147.7L433.42 146.71L434.48 145.95L435.68 145.46L436.99 145.29L437.31 145.34L437.11 144.74L436.84 143.29L436.75 141.78L436.84 140.26L437.11 138.82L437.55 137.45L438.14 136.19L438.86 135.05L439.71 134.04L440.68 133.17L441.73 132.47L442.88 131.95L444.09 131.63L445.37 131.52L446.64 131.63L447.86 131.95Z" id="d45kmqPKmr"></path><path d="M197.7 216.93L198.65 217.55L199.52 218.39L200.29 219.41L200.96 220.61L201.5 221.95L201.9 223.43L202.15 225L202.18 225.52L202.24 225.51L203.4 225.74L204.45 226.39L205.34 227.39L206.03 228.69L206.47 230.22L206.63 231.93L206.54 232.91L207.07 232.82L208.46 233.05L209.67 233.67L210.62 234.62L211.24 235.82L211.47 237.21L211.24 238.6L210.62 239.8L209.67 240.75L208.46 241.37L207.07 241.6L205.68 241.37L204.56 240.79L204.55 240.8L203.4 241.45L202.01 241.98L200.41 242.39L198.64 242.64L196.75 242.73L194.85 242.64L193.08 242.39L191.51 241.99L191.38 242.14L190.33 242.79L189.16 243.02L187.99 242.79L186.94 242.14L186.05 241.14L185.36 239.84L184.92 238.31L184.76 236.6L184.92 234.9L185.36 233.36L186.05 232.06L186.94 231.06L187.99 230.41L189.16 230.18L189.4 230.23L189.31 229.91L189.06 228.33L188.97 226.67L189.06 225L189.31 223.43L189.71 221.95L190.25 220.61L190.92 219.41L191.69 218.39L192.56 217.55L193.51 216.93L194.53 216.54L195.6 216.41L196.68 216.54L197.7 216.93Z" id="eUvjaih9d"></path><path d="M107.14 185.71L108.66 186L110.1 186.39L111.47 186.87L112.75 187.45L113.94 188.12L115.01 188.86L115.98 189.67L116.82 190.55L117.53 191.49L118.1 192.49L118.51 193.53L118.76 194.58L118.86 194.58L120.46 194.66L121.98 194.9L123.4 195.29L124.69 195.81L125.84 196.46L126.83 197.2L127.64 198.04L128.23 198.96L128.61 199.95L128.74 200.99L128.62 201.93L129.73 201.89L131.5 201.96L133.17 202.16L134.71 202.48L136.09 202.92L137.28 203.45L138.26 204.06L138.99 204.74L139.45 205.48L139.61 206.27L139.45 207.06L138.99 207.8L138.26 208.49L137.28 209.1L136.09 209.63L134.71 210.06L133.17 210.39L131.5 210.59L129.73 210.66L127.95 210.59L126.28 210.39L124.74 210.06L124.08 209.85L123.37 210.06L122.14 210.37L120.79 210.65L119.32 210.9L117.75 211.13L116.07 211.32L114.3 211.49L112.46 211.62L110.54 211.72L108.55 211.78L106.52 211.8L104.48 211.78L102.5 211.72L100.58 211.62L98.73 211.49L96.96 211.32L95.29 211.13L94.77 211.05L93.99 211.36L92.57 211.75L91.05 212L89.45 212.08L87.85 212L86.33 211.75L84.91 211.36L83.62 210.84L82.47 210.2L81.48 209.45L80.68 208.61L80.08 207.69L79.7 206.7L79.57 205.66L79.7 204.62L80.08 203.64L80.68 202.72L81.48 201.88L82.47 201.13L83.62 200.49L84.91 199.96L86.33 199.58L87.85 199.33L89.45 199.25L89.97 199.28L89.8 198.97L89.38 197.93L89.12 196.85L89.04 195.73L89.12 194.61L89.38 193.53L89.8 192.49L90.36 191.49L91.07 190.55L91.91 189.67L92.88 188.86L93.96 188.12L95.14 187.45L96.42 186.87L97.79 186.39L99.24 186L100.75 185.71L102.32 185.53L103.95 185.47L105.57 185.53L107.14 185.71Z" id="aJCm7HpB9"></path><path d="M88.41 179.04L89.93 179.33L91.37 179.72L92.74 180.21L94.02 180.79L95.2 181.45L96.28 182.19L97.25 183.01L98.09 183.89L98.8 184.83L99.37 185.82L99.78 186.86L100.04 187.95L100.13 189.06L100.04 190.18L99.78 191.26L99.37 192.3L99.19 192.61L99.71 192.58L101.31 192.67L102.83 192.91L104.25 193.3L105.54 193.82L106.69 194.46L107.68 195.21L108.49 196.05L109.09 196.97L109.46 197.96L109.59 199L109.46 200.04L109.09 201.02L108.49 201.95L107.68 202.79L106.69 203.53L105.54 204.18L104.25 204.7L102.83 205.09L101.31 205.33L99.71 205.41L98.11 205.33L96.59 205.09L95.17 204.7L94.4 204.39L93.87 204.46L92.2 204.66L90.43 204.82L88.58 204.95L86.67 205.05L84.68 205.11L82.64 205.13L80.61 205.11L78.62 205.05L76.7 204.95L74.86 204.82L73.09 204.66L71.42 204.46L69.84 204.23L68.37 203.98L67.02 203.7L65.79 203.4L65.09 203.19L64.42 203.39L62.88 203.72L61.21 203.92L59.44 203.99L57.66 203.92L55.99 203.72L54.45 203.39L53.07 202.96L51.88 202.43L50.9 201.82L50.17 201.14L49.71 200.39L49.55 199.61L49.71 198.82L50.17 198.08L50.9 197.39L51.88 196.78L53.07 196.25L54.45 195.82L55.99 195.49L57.66 195.29L59.44 195.22L60.54 195.26L60.42 194.33L60.55 193.29L60.93 192.3L61.53 191.38L62.33 190.54L63.32 189.79L64.47 189.15L65.76 188.63L67.18 188.24L68.7 187.99L70.3 187.91L70.4 187.91L70.65 186.86L71.06 185.82L71.63 184.83L72.34 183.89L73.18 183.01L74.15 182.19L75.23 181.45L76.41 180.79L77.69 180.21L79.06 179.72L80.5 179.33L82.02 179.04L83.59 178.87L85.21 178.81L86.84 178.87L88.41 179.04Z" id="alcxTWDQT"></path><path d="M25 353.52L26.28 353.95L27.45 354.54L28.5 355.25L29.39 356.09L30.12 357.03L30.66 358.06L31 359.16L31.12 360.32L31 361.49L30.66 362.59L30.54 362.82L30.87 362.78L32.44 362.95L33.86 363.4L35.06 364.1L35.99 365.01L36.59 366.08L36.8 367.27L36.59 368.46L35.99 369.54L35.06 370.44L33.86 371.15L32.44 371.6L30.87 371.76L29.29 371.6L27.88 371.15L27.68 371.03L26.46 371.22L24.64 371.4L22.69 371.52L20.63 371.56L18.57 371.52L16.61 371.4L14.79 371.22L13.12 370.97L11.64 370.66L10.37 370.3L10.1 370.2L8.57 370.61L6.69 370.77L4.82 370.61L3.19 370.17L1.91 369.51L1.07 368.67L0.76 367.7L1.07 366.73L1.91 365.89L3.19 365.22L4.82 364.79L6.69 364.63L7.41 364.69L7.29 364L7.5 362.81L8.1 361.74L9.03 360.83L10.23 360.13L11.64 359.68L13.22 359.52L13.3 359.53L13.34 359.16L13.67 358.06L14.22 357.03L14.95 356.09L15.84 355.25L16.88 354.54L18.06 353.95L19.34 353.52L20.72 353.24L22.17 353.15L23.62 353.24L25 353.52Z" id="heJT2a13H"></path><path d="M462.71 135.53L463.85 136.07L464.89 136.79L465.82 137.68L466.61 138.71L467.26 139.88L467.74 141.15L468.05 142.52L468.15 143.96L468.05 145.4L467.74 146.77L467.64 147.05L467.93 147.01L469.33 147.21L470.59 147.77L471.65 148.64L472.48 149.76L473.01 151.09L473.2 152.57L473.01 154.05L472.48 155.37L471.65 156.5L470.59 157.37L469.33 157.93L467.93 158.13L466.53 157.93L465.27 157.37L465.1 157.23L464.01 157.46L462.39 157.69L460.65 157.83L458.82 157.88L456.99 157.83L455.25 157.69L453.63 157.46L452.15 157.15L450.84 156.77L449.71 156.32L449.47 156.19L448.1 156.7L446.44 156.9L444.77 156.7L443.32 156.16L442.18 155.34L441.43 154.3L441.16 153.1L441.43 151.9L442.18 150.85L443.32 150.03L444.77 149.49L446.44 149.29L447.07 149.37L446.96 148.52L447.15 147.04L447.68 145.72L448.51 144.59L449.58 143.72L450.84 143.16L452.24 142.96L452.31 142.97L452.34 142.52L452.64 141.15L453.13 139.88L453.77 138.71L454.57 137.68L455.5 136.79L456.54 136.07L457.68 135.53L458.9 135.19L460.19 135.07L461.48 135.19L462.71 135.53Z" id="c1yShDhTQB"></path><path d="M262.52 372.28L263.75 372.89L264.78 373.68L265.56 374.63L266.06 375.71L266.15 376.32L266.24 376.31L267.95 376.56L269.34 377.25L270.29 378.27L270.63 379.52L270.49 380.03L271.07 379.97L272.78 380.14L274.18 380.61L275.12 381.31L275.47 382.16L275.12 383.01L274.18 383.71L272.78 384.18L271.07 384.35L269.36 384.18L268.61 383.93L268.55 383.95L267.4 384.28L266.01 384.55L264.41 384.75L262.64 384.88L260.75 384.92L258.85 384.88L257.08 384.75L255.48 384.55L255.43 384.54L254.87 384.81L253.16 385.06L251.45 384.81L250.05 384.12L249.11 383.1L248.76 381.86L249.11 380.61L250.05 379.59L251.45 378.9L253.16 378.65L253.44 378.69L253.15 378.06L252.97 376.89L253.15 375.71L253.65 374.63L254.43 373.68L255.46 372.89L256.69 372.28L258.08 371.9L259.6 371.76L261.12 371.9L262.52 372.28Z" id="f2v1fxL71c"></path><path d="M247.65 366.82L248.94 367.26L250.11 367.84L251.15 368.56L252.05 369.39L252.77 370.33L253.32 371.36L253.66 372.47L253.77 373.63L253.66 374.79L253.32 375.9L253.2 376.12L253.52 376.09L255.1 376.25L256.52 376.7L257.72 377.4L258.64 378.31L259.24 379.38L259.45 380.58L259.24 381.77L258.64 382.84L257.72 383.75L256.52 384.45L255.1 384.9L253.52 385.06L251.95 384.9L250.53 384.45L250.34 384.34L249.12 384.52L247.3 384.71L245.34 384.82L243.28 384.86L241.22 384.82L239.27 384.71L237.44 384.52L235.78 384.27L234.3 383.97L233.03 383.61L232.76 383.5L231.22 383.91L229.35 384.07L227.48 383.91L225.85 383.48L224.56 382.81L223.72 381.97L223.42 381L223.72 380.03L224.56 379.19L225.85 378.53L227.48 378.09L229.35 377.93L230.07 377.99L229.94 377.31L230.15 376.12L230.75 375.04L231.68 374.14L232.88 373.43L234.3 372.98L235.87 372.82L235.95 372.83L235.99 372.47L236.33 371.36L236.87 370.33L237.6 369.39L238.5 368.56L239.54 367.84L240.71 367.26L242 366.82L243.37 366.55L244.82 366.46L246.27 366.55L247.65 366.82Z" id="adWIScevl"></path><path d="M499.77 385.43L501.06 385.87L502.23 386.45L503.27 387.17L504.17 388L504.89 388.94L505.44 389.97L505.78 391.07L505.89 392.24L505.78 393.4L505.44 394.5L505.32 394.73L505.64 394.7L507.22 394.86L508.64 395.31L509.84 396.01L510.76 396.92L511.36 397.99L511.57 399.19L511.36 400.38L510.76 401.45L509.84 402.36L508.64 403.06L507.22 403.51L505.64 403.67L504.07 403.51L502.65 403.06L502.46 402.95L501.24 403.13L499.42 403.32L497.46 403.43L495.4 403.47L493.34 403.43L491.39 403.32L489.56 403.13L487.9 402.88L486.42 402.57L485.15 402.22L484.88 402.11L483.34 402.52L481.47 402.68L479.6 402.52L477.97 402.09L476.68 401.42L475.84 400.58L475.54 399.61L475.84 398.64L476.68 397.8L477.97 397.13L479.6 396.7L481.47 396.54L482.19 396.6L482.06 395.92L482.27 394.73L482.87 393.65L483.8 392.75L485 392.04L486.42 391.59L487.99 391.43L488.07 391.44L488.11 391.07L488.45 389.97L488.99 388.94L489.72 388L490.62 387.17L491.66 386.45L492.83 385.87L494.12 385.43L495.49 385.16L496.94 385.06L498.39 385.16L499.77 385.43Z" id="elSfABYaa"></path><path d="M-35 413.52L-33.72 413.95L-32.55 414.54L-31.5 415.25L-30.61 416.09L-29.88 417.03L-29.34 418.06L-29 419.16L-28.88 420.32L-29 421.49L-29.34 422.59L-29.46 422.82L-29.13 422.78L-27.56 422.95L-26.14 423.4L-24.94 424.1L-24.01 425.01L-23.41 426.08L-23.2 427.27L-23.41 428.46L-24.01 429.54L-24.94 430.44L-26.14 431.15L-27.56 431.6L-29.13 431.76L-30.71 431.6L-32.12 431.15L-32.32 431.03L-33.54 431.22L-35.36 431.4L-37.31 431.52L-39.37 431.56L-41.43 431.52L-43.39 431.4L-45.21 431.22L-46.88 430.97L-48.36 430.66L-49.63 430.3L-49.9 430.2L-51.43 430.61L-53.31 430.77L-55.18 430.61L-56.81 430.17L-58.09 429.51L-58.93 428.67L-59.24 427.7L-58.93 426.73L-58.09 425.89L-56.81 425.22L-55.18 424.79L-53.31 424.63L-52.59 424.69L-52.71 424L-52.5 422.81L-51.9 421.74L-50.97 420.83L-49.77 420.13L-48.36 419.68L-46.78 419.52L-46.7 419.53L-46.66 419.16L-46.33 418.06L-45.78 417.03L-45.05 416.09L-44.16 415.25L-43.12 414.54L-41.94 413.95L-40.66 413.52L-39.28 413.24L-37.83 413.15L-36.38 413.24L-35 413.52Z" id="c1Ys4Tapo"></path></defs><g><g><g><use xlink:href="#acDVHGiII5" opacity="1" fill="url(#gradientb1eXuZZUL)"></use></g><g><use xlink:href="#b1KOYlsQnY" opacity="1" fill="#70a856" fill-opacity="1"></use><g><use xlink:href="#b1KOYlsQnY" opacity="1" fill-opacity="0" stroke="#000000" stroke-width="1" stroke-opacity="0"></use></g></g><g><use xlink:href="#bnwJTkwPN" opacity="1" fill="#0fd255" fill-opacity="1"></use><g><use xlink:href="#bnwJTkwPN" opacity="1" fill-opacity="0" stroke="#000000" stroke-width="1" stroke-opacity="0.01"></use></g></g><g><use xlink:href="#amixO4nOy" opacity="1" fill="#5bb13f" fill-opacity="1"></use><g><use xlink:href="#amixO4nOy" opacity="1" fill-opacity="0" stroke="#000000" stroke-width="1" stroke-opacity="0"></use></g></g><g><use xlink:href="#bn1m7Trjs" opacity="1" fill="#5ec62c" fill-opacity="1"></use><g><use xlink:href="#bn1m7Trjs" opacity="1" fill-opacity="0" stroke="#000000" stroke-width="1" stroke-opacity="0"></use></g></g><g><use xlink:href="#hehl9x8y2" opacity="1" fill="#61c333" fill-opacity="1"></use><g><use xlink:href="#hehl9x8y2" opacity="1" fill-opacity="0" stroke="#000000" stroke-width="1" stroke-opacity="0"></use></g></g><g><use xlink:href="#a4ifZU8lme" opacity="1" fill="#70a856" fill-opacity="1"></use><g><use xlink:href="#a4ifZU8lme" opacity="1" fill-opacity="0" stroke="#000000" stroke-width="1" stroke-opacity="0"></use></g></g><g><use xlink:href="#b2tet5xvT8" opacity="1" fill="#0fd255" fill-opacity="1"></use><g><use xlink:href="#b2tet5xvT8" opacity="1" fill-opacity="0" stroke="#000000" stroke-width="1" stroke-opacity="0.01"></use></g></g><g><use xlink:href="#a1UPRXrfCy" opacity="1" fill="#3c9c1d" fill-opacity="1"></use><g><use xlink:href="#a1UPRXrfCy" opacity="1" fill-opacity="0" stroke="#000000" stroke-width="1" stroke-opacity="0"></use></g></g><g><use xlink:href="#a5rgowpzzs" opacity="1" fill="#61c333" fill-opacity="1"></use><g><use xlink:href="#a5rgowpzzs" opacity="1" fill-opacity="0" stroke="#000000" stroke-width="1" stroke-opacity="0"></use></g></g><g><use xlink:href="#acmhyNZfHV" opacity="1" fill="#ffffff" fill-opacity="1"></use></g><g><use xlink:href="#gXVMufbcZ" opacity="1" fill="#ffffff" fill-opacity="1"></use></g><g><use xlink:href="#aCHhF49z" opacity="1" fill="#ffffff" fill-opacity="1"></use></g><g><use xlink:href="#aadtDfsH3" opacity="1" fill="#ffffff" fill-opacity="1"></use></g><g><use xlink:href="#b13c30Cmwe" opacity="1" fill="#ffffff" fill-opacity="1"></use></g><g><use xlink:href="#l1CTl0wDcv" opacity="1" fill="#ffffff" fill-opacity="1"></use></g><g><use xlink:href="#a1wpzfCNSF" opacity="1" fill="#ffffff" fill-opacity="1"></use></g><g><use xlink:href="#gEmcSYDIH" opacity="1" fill="#ffffff" fill-opacity="1"></use></g><g><use xlink:href="#a4ItU47yA" opacity="1" fill="#ffffff" fill-opacity="1"></use></g><g><use xlink:href="#b17Vq43xW8" opacity="1" fill="#ffffff" fill-opacity="1"></use></g><g><use xlink:href="#a1Gp3fy97Y" opacity="1" fill="#ffffff" fill-opacity="1"></use></g><g><use xlink:href="#g1YghPWbCF" opacity="1" fill="#ffffff" fill-opacity="1"></use></g><g><use xlink:href="#cKnPPVW2v" opacity="1" fill="#ffffff" fill-opacity="1"></use></g><g><use xlink:href="#b2nAcwCkF" opacity="1" fill="#77ff4b" fill-opacity="1"></use></g><g><use xlink:href="#b1i7yXNzE0" opacity="1" fill="#ffffff" fill-opacity="1"></use></g><g><use xlink:href="#b4QHJOQhOF" opacity="1" fill="#ffffff" fill-opacity="1"></use></g><g><use xlink:href="#h7hTJ7Irz" opacity="1" fill="#ffffff" fill-opacity="1"></use></g><g><use xlink:href="#a3idRUSXPF" opacity="1" fill="#ffffff" fill-opacity="1"></use></g><g><use xlink:href="#d45kmqPKmr" opacity="1" fill="#ffffff" fill-opacity="1"></use></g><g><use xlink:href="#eUvjaih9d" opacity="1" fill="#ffffff" fill-opacity="1"></use></g><g><use xlink:href="#aJCm7HpB9" opacity="1" fill="#ffffff" fill-opacity="1"></use></g><g><use xlink:href="#alcxTWDQT" opacity="1" fill="#ffffff" fill-opacity="1"></use></g><g><use xlink:href="#heJT2a13H" opacity="1" fill="#ffffff" fill-opacity="1"></use></g><g><use xlink:href="#c1yShDhTQB" opacity="1" fill="#ffffff" fill-opacity="1"></use></g><g><use xlink:href="#f2v1fxL71c" opacity="1" fill="#ffffff" fill-opacity="1"></use></g><g><use xlink:href="#adWIScevl" opacity="1" fill="#ffffff" fill-opacity="1"></use></g><g><use xlink:href="#elSfABYaa" opacity="1" fill="#ffffff" fill-opacity="1"></use></g><g><use xlink:href="#c1Ys4Tapo" opacity="1" fill="#ffffff" fill-opacity="1"></use></g></g></g></svg>