<?xml version="1.0" encoding="UTF-8" standalone="no"?>
<!DOCTYPE svg PUBLIC "-//W3C//DTD SVG 1.1//EN" "http://www.w3.org/Graphics/SVG/1.1/DTD/svg11.dtd">
<svg version="1.1" xmlns="http://www.w3.org/2000/svg" xmlns:xlink="http://www.w3.org/1999/xlink" preserveAspectRatio="xMidYMid meet" viewBox="462.58108108108115 165.2837837837838 144.1351351351351 322.445945945946" width="140.14" height="318.45"><defs><path d="M526.76 341.15L540.54 341.15L540.54 484.73L526.76 484.73L526.76 341.15Z" id="bEn6lp8kR"></path><path d="M540.79 166.72L543.11 167.05L545.41 167.47L547.67 167.98L549.9 168.58L552.09 169.26L554.25 170.03L556.36 170.87L558.44 171.8L560.47 172.8L562.45 173.88L564.39 175.04L566.28 176.26L568.12 177.55L569.9 178.92L571.63 180.34L573.31 181.84L574.92 183.39L576.47 185.01L577.97 186.68L579.4 188.41L580.76 190.19L582.05 192.03L583.28 193.92L584.43 195.86L585.51 197.84L586.51 199.87L587.44 201.95L588.28 204.06L589.05 206.22L589.73 208.41L590.33 210.64L590.84 212.9L591.26 215.2L591.59 217.52L591.83 219.88L591.98 222.26L592.03 224.66L591.98 227.07L591.83 229.45L591.59 231.8L591.26 234.13L590.84 236.42L590.33 238.68L589.73 240.91L589.05 243.11L588.28 245.26L587.44 247.38L586.51 249.45L585.51 251.48L584.43 253.47L583.28 255.4L582.05 257.29L581.56 257.99L583.18 259.55L585.05 261.49L586.84 263.5L588.56 265.58L590.19 267.72L591.74 269.92L593.21 272.19L594.6 274.52L595.89 276.9L597.09 279.34L598.21 281.83L599.22 284.36L600.14 286.95L600.96 289.58L601.68 292.26L602.29 294.97L602.8 297.73L603.2 300.52L603.48 303.34L603.66 306.2L603.72 309.09L603.66 311.97L603.48 314.83L603.2 317.66L602.8 320.45L602.29 323.2L601.68 325.92L600.96 328.59L600.14 331.22L599.22 333.81L598.21 336.35L597.09 338.84L595.89 341.28L594.6 343.66L593.21 345.98L591.74 348.25L590.19 350.46L588.56 352.6L586.84 354.68L585.05 356.69L583.18 358.62L581.25 360.49L579.24 362.28L577.16 363.99L575.02 365.63L572.81 367.18L570.55 368.65L568.22 370.03L565.84 371.33L563.4 372.53L560.91 373.65L558.37 374.66L555.79 375.58L553.15 376.4L550.48 377.12L547.76 377.73L545.01 378.24L542.22 378.64L539.39 378.92L536.53 379.1L533.65 379.16L530.76 379.1L527.91 378.92L525.08 378.64L522.29 378.24L519.54 377.73L516.82 377.12L514.14 376.4L511.51 375.58L508.93 374.66L506.39 373.65L503.9 372.53L501.46 371.33L499.08 370.03L496.75 368.65L494.48 367.18L492.28 365.63L490.14 363.99L488.06 362.28L486.05 360.49L484.11 358.62L482.25 356.69L480.46 354.68L478.74 352.6L477.11 350.46L475.55 348.25L474.09 345.98L472.7 343.66L471.41 341.28L470.2 338.84L469.09 336.35L468.07 333.81L467.16 331.22L466.34 328.59L465.62 325.92L465.01 323.2L464.5 320.45L464.1 317.66L463.81 314.83L463.64 311.97L463.58 309.09L463.64 306.2L463.81 303.34L464.1 300.52L464.5 297.73L465.01 294.97L465.62 292.26L466.34 289.58L467.16 286.95L468.07 284.36L469.09 281.83L470.2 279.34L471.41 276.9L472.7 274.52L474.09 272.19L475.55 269.92L477.11 267.72L478.74 265.58L480.46 263.5L482.25 261.49L484.11 259.55L485.74 257.99L485.25 257.29L484.02 255.4L482.87 253.47L481.79 251.48L480.79 249.45L479.86 247.38L479.01 245.26L478.25 243.11L477.57 240.91L476.97 238.68L476.46 236.42L476.03 234.13L475.7 231.8L475.46 229.45L475.32 227.07L475.27 224.66L475.32 222.26L475.46 219.88L475.7 217.52L476.03 215.2L476.46 212.9L476.97 210.64L477.57 208.41L478.25 206.22L479.01 204.06L479.86 201.95L480.79 199.87L481.79 197.84L482.87 195.86L484.02 193.92L485.25 192.03L486.54 190.19L487.9 188.41L489.33 186.68L490.82 185.01L492.38 183.39L493.99 181.84L495.67 180.34L497.4 178.92L499.18 177.55L501.02 176.26L502.91 175.04L504.84 173.88L506.83 172.8L508.86 171.8L510.93 170.87L513.05 170.03L515.2 169.26L517.4 168.58L519.63 167.98L521.89 167.47L524.18 167.05L526.51 166.72L528.86 166.48L531.24 166.33L533.65 166.28L536.05 166.33L538.43 166.48L538.43 166.48L540.79 166.72Z" id="b9sR98Xlh"></path><path d="M527.91 378.92L525.08 378.64L522.29 378.24L519.54 377.73L516.82 377.12L514.14 376.4L511.51 375.58L508.93 374.66L506.39 373.65L503.9 372.53L501.46 371.33L499.08 370.03L496.75 368.65L494.48 367.18L492.28 365.63L490.14 363.99L488.06 362.28L486.05 360.49L484.11 358.62L482.25 356.69L480.46 354.68L478.74 352.6L477.11 350.46L475.55 348.25L474.09 345.98L472.7 343.66L471.41 341.28L470.2 338.84L469.09 336.35L468.07 333.81L467.16 331.22L466.34 328.59L465.62 325.92L465.01 323.2L464.5 320.45L464.1 317.66L463.81 314.83L463.64 311.97L463.58 309.09L463.64 306.2L463.81 303.34L464.1 300.52L464.5 297.73L465.01 294.97L465.62 292.26L466.34 289.58L467.16 286.95L468.07 284.36L469.09 281.83L470.2 279.34L471.41 276.9L472.7 274.52L474.09 272.19L475.55 269.92L477.11 267.72L478.74 265.58L480.46 263.5L482.25 261.49L484.11 259.55L485.74 257.99L485.25 257.29L484.02 255.4L482.87 253.47L481.79 251.48L480.79 249.45L479.86 247.38L479.01 245.26L478.25 243.11L477.57 240.91L476.97 238.68L476.46 236.42L476.03 234.13L475.7 231.8L475.46 229.45L475.32 227.07L475.27 224.66L475.32 222.26L475.46 219.88L475.7 217.52L476.03 215.2L476.46 212.9L476.97 210.64L477.57 208.41L478.25 206.22L479.01 204.06L479.86 201.95L480.79 199.87L481.79 197.84L482.87 195.86L484.02 193.92L485.25 192.03L486.54 190.19L487.9 188.41L489.33 186.68L490.82 185.01L492.38 183.39L493.99 181.84L495.67 180.34L497.4 178.92L499.18 177.55L501.02 176.26L502.91 175.04L504.84 173.88L506.83 172.8L508.86 171.8L510.93 170.87L513.05 170.03L515.2 169.26L517.4 168.58L519.63 167.98L521.89 167.47L524.18 167.05L526.51 166.72L528.86 166.48L531.24 166.33L533.65 166.28L533.65 379.16L530.76 379.1L527.91 378.92Z" id="eHKCDuzrX"></path></defs><g><g><use xlink:href="#bEn6lp8kR" opacity="1" fill="#66692a" fill-opacity="1"></use></g><g><use xlink:href="#b9sR98Xlh" opacity="1" fill="#7a9e24" fill-opacity="1"></use></g><g><use xlink:href="#eHKCDuzrX" opacity="1" fill="#6b8f16" fill-opacity="1"></use></g></g></svg>