<?xml version="1.0" encoding="UTF-8" standalone="no"?>
<!DOCTYPE svg PUBLIC "-//W3C//DTD SVG 1.1//EN" "http://www.w3.org/Graphics/SVG/1.1/DTD/svg11.dtd">
<svg version="1.1" xmlns="http://www.w3.org/2000/svg" xmlns:xlink="http://www.w3.org/1999/xlink" preserveAspectRatio="xMidYMid meet" viewBox="212.96164614021944 94.87002718199966 216.07425076166322 329.8022615285908" width="212.07" height="325.8"><defs><path d="M320.49 95.87C375.49 137.89 409.87 164.14 423.62 174.65C425.67 176.21 426.52 178.89 425.76 181.35C420.51 198.37 407.37 240.9 386.33 308.94C377.56 308.94 333.66 308.94 254.65 308.94L213.96 177.25C277.88 128.42 313.39 101.3 320.49 95.87Z" id="d2DB28Hdm3"></path><path d="M423.91 174.89L424.06 175.01L424.2 175.15L424.33 175.29L424.46 175.43L424.58 175.56L424.7 175.71L424.82 175.86L424.93 176.01L425.03 176.16L425.13 176.32L425.23 176.49L425.32 176.64L425.4 176.81L425.48 176.98L425.55 177.14L425.62 177.32L425.69 177.49L425.75 177.66L425.8 177.84L425.85 178.02L425.89 178.2L425.93 178.38L425.96 178.57L425.99 178.74L426.01 178.93L426.02 179.12L426.03 179.3L426.03 179.49L426.03 179.68L426.03 179.86L426.02 180.05L426 180.24L425.98 180.42L425.95 180.62L425.91 180.8L425.87 180.99L425.82 181.18L425.76 181.35L386.34 308.94L320 308.94L320 96.24L320.49 95.87L423.62 174.65L423.77 174.77L423.91 174.89Z" id="a2vM8phvQq"></path><path d="M326.76 161.22L326.76 421.67L313.24 421.67L313.24 161.22L326.76 161.22Z" id="mxJG6Bo3t"></path><path d="M326.76 308.94L326.76 161.22L313.24 161.22L313.24 308.94" id="i17jElZyxY"></path></defs><g><g><use xlink:href="#d2DB28Hdm3" opacity="1" fill="#1c3e0b" fill-opacity="1"></use><g><use xlink:href="#d2DB28Hdm3" opacity="1" fill-opacity="0" stroke="#000000" stroke-width="1" stroke-opacity="0"></use></g></g><g><use xlink:href="#a2vM8phvQq" opacity="1" fill="#37560f" fill-opacity="1"></use><g><use xlink:href="#a2vM8phvQq" opacity="1" fill-opacity="0" stroke="#000000" stroke-width="1" stroke-opacity="0"></use></g></g><g><use xlink:href="#mxJG6Bo3t" opacity="1" fill="#66692a" fill-opacity="1"></use><g><use xlink:href="#mxJG6Bo3t" opacity="1" fill-opacity="0" stroke="#000000" stroke-width="1" stroke-opacity="0"></use></g></g><g><g><use xlink:href="#i17jElZyxY" opacity="1" fill-opacity="0" stroke="#ffffff" stroke-width="2" stroke-opacity="1"></use></g></g></g></svg>