<?xml version="1.0" encoding="UTF-8" standalone="no"?>
<!DOCTYPE svg PUBLIC "-//W3C//DTD SVG 1.1//EN" "http://www.w3.org/Graphics/SVG/1.1/DTD/svg11.dtd">
<svg version="1.1" xmlns="http://www.w3.org/2000/svg" xmlns:xlink="http://www.w3.org/1999/xlink" preserveAspectRatio="xMidYMid meet" viewBox="199.85002207161483 158.1891891891893 318.11076666758106 392.3729574493151" width="314.11" height="388.37"><defs><path d="M351.01 403.98L364.8 403.98L364.8 547.56L351.01 547.56L351.01 403.98Z" id="f2Rap6mwdu"></path><path d="M396.83 259.77L435.76 328.49L421.54 328.49L472.84 403.98L452.84 403.98L514.96 495.4L357.91 475.87L200.85 495.4L262.97 403.98L242.97 403.98L294.26 328.49L280.05 328.49L318.97 259.77L300.93 259.77L329.41 209.48L357.9 159.19L386.39 209.48L414.88 259.77L414.88 259.77L396.83 259.77Z" id="aPOgCJJJy"></path><path d="M357.91 475.87L200.85 495.4L262.97 403.98L242.97 403.98L294.26 328.49L280.05 328.49L318.97 259.77L300.93 259.77L329.41 209.48L357.9 159.19L357.91 159.19L357.91 475.87Z" id="jCsaKBXnc"></path></defs><g><g><use xlink:href="#f2Rap6mwdu" opacity="1" fill="#66692a" fill-opacity="1"></use></g><g><use xlink:href="#aPOgCJJJy" opacity="1" fill="#75991d" fill-opacity="1"></use></g><g><use xlink:href="#jCsaKBXnc" opacity="1" fill="#617b1f" fill-opacity="1"></use></g></g></svg>