<?xml version="1.0" encoding="UTF-8" standalone="no"?>
<!DOCTYPE svg PUBLIC "-//W3C//DTD SVG 1.1//EN" "http://www.w3.org/Graphics/SVG/1.1/DTD/svg11.dtd">
<svg version="1.1" xmlns="http://www.w3.org/2000/svg" xmlns:xlink="http://www.w3.org/1999/xlink" preserveAspectRatio="xMidYMid meet" viewBox="91.94107876408424 99.18718149592539 314.0509329917362 387.3513127439451" width="310.05" height="383.35"><defs><path d="M324.82 267.3L310.78 267.3L361.42 341.81L341.67 341.81L402.99 432.05L247.97 412.77L92.94 432.05L154.26 341.81L134.52 341.81L185.14 267.3L171.12 267.3L209.53 199.47L191.73 199.47L219.84 149.83L247.96 100.19L276.08 149.83L304.21 199.47L304.21 199.47L286.39 199.47L324.82 267.3Z" id="c1tDbd8e4f"></path><path d="M92.94 432.05L154.26 341.81L134.52 341.81L185.14 267.3L171.12 267.3L209.53 199.47L191.73 199.47L219.84 149.83L247.96 100.19L247.97 100.19L247.97 412.77L92.94 432.05Z" id="c3MxQJ1U07"></path><path d="M254.77 177.45L254.77 483.54L240.01 483.54L240.01 177.45L254.77 177.45Z" id="g38ldmdGBA"></path><path d="M254.77 414.27L254.77 177.45L240.01 177.45L240.01 414.27" id="fJWHD6K26"></path></defs><g><g><use xlink:href="#c1tDbd8e4f" opacity="1" fill="#3c500c" fill-opacity="1"></use><g><use xlink:href="#c1tDbd8e4f" opacity="1" fill-opacity="0" stroke="#000000" stroke-width="1" stroke-opacity="0"></use></g></g><g><use xlink:href="#c3MxQJ1U07" opacity="1" fill="#2a350d" fill-opacity="1"></use><g><use xlink:href="#c3MxQJ1U07" opacity="1" fill-opacity="0" stroke="#000000" stroke-width="1" stroke-opacity="0"></use></g></g><g><use xlink:href="#g38ldmdGBA" opacity="1" fill="#66692a" fill-opacity="1"></use><g><use xlink:href="#g38ldmdGBA" opacity="1" fill-opacity="0" stroke="#000000" stroke-width="1" stroke-opacity="0"></use></g></g><g><g><use xlink:href="#fJWHD6K26" opacity="1" fill-opacity="0" stroke="#ffffff" stroke-width="2" stroke-opacity="1"></use></g></g></g></svg>