<?xml version="1.0" encoding="UTF-8" standalone="no"?>
<!DOCTYPE svg PUBLIC "-//W3C//DTD SVG 1.1//EN" "http://www.w3.org/Graphics/SVG/1.1/DTD/svg11.dtd">
<svg version="1.1" xmlns="http://www.w3.org/2000/svg" xmlns:xlink="http://www.w3.org/1999/xlink" preserveAspectRatio="xMidYMid meet" viewBox="130.6216216216216 199.54054054054058 220.0824502064043 335.9594594594594" width="216.08" height="331.96"><defs><path d="M232.77 388.92L246.55 388.92L246.55 532.5L232.77 532.5L232.77 388.92Z" id="f12kzJLcOZ"></path><path d="M131.62 283.46L240.16 200.54C296.2 243.35 331.23 270.1 345.24 280.81C347.33 282.4 348.2 285.13 347.42 287.64C342.07 304.98 328.68 348.31 307.25 417.64L173.08 417.64L131.62 283.46Z" id="a3hLHO2YN"></path><path d="M345.39 280.93L345.54 281.05L345.69 281.18L345.83 281.32L345.96 281.46L346.1 281.6L346.22 281.74L346.34 281.89L346.46 282.04L346.57 282.19L346.68 282.35L346.78 282.51L346.88 282.68L346.97 282.84L347.05 283.01L347.13 283.18L347.21 283.35L347.28 283.53L347.35 283.7L347.41 283.88L347.46 284.06L347.51 284.24L347.55 284.43L347.59 284.61L347.62 284.8L347.65 284.98L347.67 285.17L347.69 285.36L347.7 285.55L347.7 285.74L347.7 285.93L347.7 286.12L347.68 286.31L347.66 286.5L347.64 286.69L347.61 286.89L347.57 287.08L347.53 287.27L347.48 287.46L347.42 287.64L307.25 417.64L239.66 417.64L239.66 200.92L240.16 200.54L345.24 280.81L345.39 280.93Z" id="c3Pnjnka6x"></path></defs><g><g><use xlink:href="#f12kzJLcOZ" opacity="1" fill="#66692a" fill-opacity="1"></use></g><g><use xlink:href="#a3hLHO2YN" opacity="1" fill="#4a9e23" fill-opacity="1"></use></g><g><use xlink:href="#c3Pnjnka6x" opacity="1" fill="#4fb321" fill-opacity="1"></use></g></g></svg>