<?xml version="1.0" encoding="UTF-8" standalone="no"?>
<!DOCTYPE svg PUBLIC "-//W3C//DTD SVG 1.1//EN" "http://www.w3.org/Graphics/SVG/1.1/DTD/svg11.dtd">
<svg version="1.1" xmlns="http://www.w3.org/2000/svg" xmlns:xlink="http://www.w3.org/1999/xlink" preserveAspectRatio="xMidYMid meet" viewBox="256.2920997217499 86.27808160423814 140.11948246765434 313.3138946184137" width="136.12" height="309.31"><defs><path d="M334.54 88.03L336.77 88.43L338.97 88.93L341.14 89.51L343.26 90.17L345.36 90.92L347.41 91.74L349.43 92.64L351.4 93.61L353.33 94.66L355.21 95.79L357.05 96.97L358.83 98.22L360.56 99.56L362.24 100.93L363.87 102.39L365.44 103.9L366.94 105.47L368.4 107.09L369.79 108.77L371.11 110.5L372.36 112.29L373.56 114.13L374.67 116.01L375.72 117.93L376.7 119.9L377.6 121.92L378.41 123.97L379.16 126.07L379.82 128.2L380.41 130.37L380.9 132.56L381.31 134.79L381.63 137.05L381.86 139.34L382.01 141.65L382.06 143.98L382.01 146.32L381.86 148.64L381.63 150.92L381.31 153.18L380.9 155.41L380.41 157.6L379.82 159.77L379.16 161.9L378.41 163.99L377.6 166.05L376.7 168.06L375.72 170.03L374.67 171.97L373.56 173.84L372.36 175.68L371.89 176.36L373.46 177.87L375.28 179.76L377.02 181.71L378.69 183.73L380.27 185.81L381.78 187.94L383.2 190.15L384.55 192.41L385.81 194.72L386.97 197.09L388.06 199.51L389.04 201.97L389.93 204.49L390.73 207.04L391.43 209.64L392.02 212.28L392.52 214.96L392.91 217.67L393.18 220.41L393.35 223.18L393.41 225.99L393.35 228.79L393.18 231.57L392.91 234.32L392.52 237.03L392.02 239.7L391.43 242.34L390.73 244.93L389.93 247.49L389.04 250L388.06 252.47L386.97 254.89L385.81 257.26L384.55 259.57L383.2 261.82L381.78 264.03L380.27 266.17L378.69 268.25L377.02 270.27L375.28 272.23L373.46 274.1L371.59 275.92L369.63 277.65L367.61 279.32L365.53 280.91L363.39 282.41L361.19 283.84L358.93 285.18L356.62 286.45L354.25 287.61L351.83 288.7L349.36 289.68L346.86 290.57L344.29 291.37L341.7 292.07L339.06 292.66L336.39 293.16L333.68 293.55L330.93 293.82L328.15 293.99L325.35 294.05L322.54 293.99L319.78 293.82L317.03 293.55L314.32 293.16L311.65 292.66L309 292.07L306.4 291.37L303.85 290.57L301.34 289.68L298.87 288.7L296.46 287.61L294.09 286.45L291.77 285.18L289.51 283.84L287.31 282.41L285.17 280.91L283.09 279.32L281.07 277.65L279.12 275.92L277.23 274.1L275.43 272.23L273.69 270.27L272.02 268.25L270.43 266.17L268.92 264.03L267.5 261.82L266.15 259.57L264.9 257.26L263.72 254.89L262.64 252.47L261.65 250L260.77 247.49L259.97 244.93L259.27 242.34L258.68 239.7L258.19 237.03L257.8 234.32L257.52 231.57L257.35 228.79L257.29 225.99L257.35 223.18L257.52 220.41L257.8 217.67L258.19 214.96L258.68 212.28L259.27 209.64L259.97 207.04L260.77 204.49L261.65 201.97L262.64 199.51L263.72 197.09L264.9 194.72L266.15 192.41L267.5 190.15L268.92 187.94L270.43 185.81L272.02 183.73L273.69 181.71L275.43 179.76L277.23 177.87L278.82 176.36L278.34 175.68L277.15 173.84L276.03 171.97L274.98 170.03L274.01 168.06L273.11 166.05L272.28 163.99L271.54 161.9L270.88 159.77L270.3 157.6L269.8 155.41L269.38 153.18L269.06 150.92L268.83 148.64L268.7 146.32L268.65 143.98L268.7 141.65L268.83 139.34L269.06 137.05L269.38 134.79L269.8 132.56L270.3 130.37L270.88 128.2L271.54 126.07L272.28 123.97L273.11 121.92L274.01 119.9L274.98 117.93L276.03 116.01L277.15 114.13L278.34 112.29L279.59 110.5L280.91 108.77L282.3 107.09L283.75 105.47L285.27 103.9L286.83 102.39L288.46 100.93L290.14 99.56L291.87 98.22L293.66 96.97L295.49 95.79L297.37 94.66L299.3 93.61L301.27 92.64L303.28 91.74L305.34 90.92L307.43 90.17L309.57 89.51L311.73 88.93L313.93 88.43L316.15 88.03L318.42 87.71L320.7 87.47L323.01 87.33L325.35 87.28L327.68 87.33L329.99 87.47L329.99 87.47L332.29 87.71L334.54 88.03Z" id="iepuzmwyJ"></path><path d="M317.03 293.55L314.32 293.16L311.65 292.66L309 292.07L306.4 291.37L303.85 290.57L301.34 289.68L298.87 288.7L296.46 287.61L294.09 286.45L291.77 285.18L289.51 283.84L287.31 282.41L285.17 280.91L283.09 279.32L281.07 277.65L279.12 275.92L277.23 274.1L275.43 272.23L273.69 270.27L272.02 268.25L270.43 266.17L268.92 264.03L267.5 261.82L266.15 259.57L264.9 257.26L263.72 254.89L262.64 252.47L261.65 250L260.77 247.49L259.97 244.93L259.27 242.34L258.68 239.7L258.19 237.03L257.8 234.32L257.52 231.57L257.35 228.79L257.29 225.99L257.35 223.18L257.52 220.41L257.8 217.67L258.19 214.96L258.68 212.28L259.27 209.64L259.97 207.04L260.77 204.49L261.65 201.97L262.64 199.51L263.72 197.09L264.9 194.72L266.15 192.41L267.5 190.15L268.92 187.94L270.43 185.81L272.02 183.73L273.69 181.71L275.43 179.76L277.23 177.87L278.82 176.36L278.34 175.68L277.15 173.84L276.03 171.97L274.98 170.03L274.01 168.06L273.11 166.05L272.28 163.99L271.54 161.9L270.88 159.77L270.3 157.6L269.8 155.41L269.38 153.18L269.06 150.92L268.83 148.64L268.7 146.32L268.65 143.98L268.7 141.65L268.83 139.34L269.06 137.05L269.38 134.79L269.8 132.56L270.3 130.37L270.88 128.2L271.54 126.07L272.28 123.97L273.11 121.92L274.01 119.9L274.98 117.93L276.03 116.01L277.15 114.13L278.34 112.29L279.59 110.5L280.91 108.77L282.3 107.09L283.75 105.47L285.27 103.9L286.83 102.39L288.46 100.93L290.14 99.56L291.87 98.22L293.66 96.97L295.49 95.79L297.37 94.66L299.3 93.61L301.27 92.64L303.28 91.74L305.34 90.92L307.43 90.17L309.57 89.51L311.73 88.93L313.93 88.43L316.15 88.03L318.42 87.71L320.7 87.47L323.01 87.33L325.35 87.28L325.35 294.05L322.54 293.99L319.78 293.82L317.03 293.55Z" id="bDQQvSwE"></path><path d="M332.04 123.8L332.04 396.59L318.66 396.59L318.66 123.8L332.04 123.8Z" id="aStaEup6y"></path><path d="M332.04 294.05L332.04 123.8L318.66 123.8L318.66 294.05" id="b37hK12rkn"></path></defs><g><g><use xlink:href="#iepuzmwyJ" opacity="1" fill="#43590f" fill-opacity="1"></use><g><use xlink:href="#iepuzmwyJ" opacity="1" fill-opacity="0" stroke="#000000" stroke-width="1" stroke-opacity="0"></use></g></g><g><use xlink:href="#bDQQvSwE" opacity="1" fill="#2f4105" fill-opacity="1"></use><g><use xlink:href="#bDQQvSwE" opacity="1" fill-opacity="0" stroke="#000000" stroke-width="1" stroke-opacity="0"></use></g></g><g><use xlink:href="#aStaEup6y" opacity="1" fill="#66692a" fill-opacity="1"></use><g><use xlink:href="#aStaEup6y" opacity="1" fill-opacity="0" stroke="#000000" stroke-width="1" stroke-opacity="0"></use></g></g><g><g><use xlink:href="#b37hK12rkn" opacity="1" fill-opacity="0" stroke="#ffffff" stroke-width="2" stroke-opacity="1"></use></g></g></g></svg>